<svg width="52" height="52" viewBox="0 0 52 52" fill="none" xmlns="http://www.w3.org/2000/svg">
<path d="M41.7746 30.3997L27.1496 45.0247C26.9987 45.1758 26.8195 45.2956 26.6222 45.3774C26.4249 45.4592 26.2135 45.5013 25.9999 45.5013C25.7864 45.5013 25.5749 45.4592 25.3776 45.3774C25.1804 45.2956 25.0012 45.1758 24.8502 45.0247L10.2252 30.3997C9.92032 30.0948 9.74902 29.6812 9.74902 29.25C9.74902 28.8188 9.92032 28.4052 10.2252 28.1003C10.5302 27.7954 10.9437 27.6241 11.3749 27.6241C11.8061 27.6241 12.2197 27.7954 12.5246 28.1003L24.3749 39.9527V8.125C24.3749 7.69402 24.5461 7.2807 24.8509 6.97595C25.1556 6.67121 25.5689 6.5 25.9999 6.5C26.4309 6.5 26.8442 6.67121 27.149 6.97595C27.4537 7.2807 27.6249 7.69402 27.6249 8.125V39.9527L39.4752 28.1003C39.7802 27.7954 40.1937 27.6241 40.6249 27.6241C41.0561 27.6241 41.4697 27.7954 41.7746 28.1003C42.0795 28.4052 42.2508 28.8188 42.2508 29.25C42.2508 29.6812 42.0795 30.0948 41.7746 30.3997Z" fill="#000A55"/>
</svg>
