<svg width="72" height="72" viewBox="0 0 72 72" fill="none" xmlns="http://www.w3.org/2000/svg">
<path d="M64.7803 39.6729C64.0445 39.1059 63.2011 38.6945 62.3013 38.4639C61.4014 38.2332 60.4641 38.1881 59.5463 38.3313C64.8281 32.9988 67.5 27.6973 67.5 22.4998C67.5 15.0551 61.5122 8.99978 54.1519 8.99978C52.1989 8.98751 50.2669 9.40288 48.4915 10.2167C46.7162 11.0305 45.1404 12.2231 43.875 13.7107C42.6096 12.2231 41.0338 11.0305 39.2585 10.2167C37.4831 9.40288 35.5511 8.98751 33.5981 8.99978C26.2378 8.99978 20.25 15.0551 20.25 22.4998C20.25 25.5935 21.1613 28.6001 23.0794 31.781C21.5084 32.179 20.0748 32.9955 18.9309 34.1435L12.5691 40.4998H4.5C3.30653 40.4998 2.16193 40.9739 1.31802 41.8178C0.474106 42.6617 0 43.8063 0 44.9998L0 56.2498C0 57.4432 0.474106 58.5878 1.31802 59.4318C2.16193 60.2757 3.30653 60.7498 4.5 60.7498H33.75C33.934 60.7499 34.1172 60.7272 34.2956 60.6823L52.2956 56.1823C52.4104 56.155 52.5224 56.1173 52.6303 56.0698L63.5625 51.4179L63.6863 51.3616C64.7369 50.8366 65.6366 50.0528 66.3006 49.084C66.9646 48.1151 67.3711 46.9932 67.4816 45.8239C67.5922 44.6546 67.4033 43.4764 66.9327 42.4003C66.462 41.3241 65.7252 40.3855 64.7916 39.6729H64.7803ZM61.7147 47.3088L51.0272 51.8595L33.4688 56.2498H15.75V43.6807L22.1147 37.3188C22.531 36.8992 23.0267 36.5664 23.5727 36.34C24.1188 36.1135 24.7045 35.9979 25.2956 35.9998H39.375C40.2701 35.9998 41.1286 36.3554 41.7615 36.9883C42.3944 37.6212 42.75 38.4797 42.75 39.3748C42.75 40.2699 42.3944 41.1283 41.7615 41.7613C41.1286 42.3942 40.2701 42.7498 39.375 42.7498H31.5C30.9033 42.7498 30.331 42.9868 29.909 43.4088C29.4871 43.8307 29.25 44.403 29.25 44.9998C29.25 45.5965 29.4871 46.1688 29.909 46.5908C30.331 47.0127 30.9033 47.2498 31.5 47.2498H40.5C40.6694 47.2493 40.8382 47.2304 41.0034 47.1935L59.8472 42.8595L59.9344 42.837C60.5096 42.6773 61.1236 42.736 61.6582 43.0017C62.1927 43.2675 62.6101 43.7216 62.8301 44.2766C63.05 44.8316 63.0569 45.4483 62.8494 46.0081C62.6419 46.5679 62.2348 47.0312 61.7063 47.3088H61.7147Z" fill="#00214E"/>
</svg>
