<svg width="170" height="170" viewBox="0 0 170 170" fill="none" xmlns="http://www.w3.org/2000/svg">
<path d="M87.8003 137.348C79.5253 137.878 71.5003 137.583 63.3003 137.443C53.9753 137.443 42.8603 139.873 35.8753 131.748C31.0453 126.128 31.6253 117.603 34.1153 110.623C35.8703 105.708 38.4753 100.683 37.5053 95.5529C36.7703 91.6679 34.0803 88.4429 32.8853 84.6779C31.7203 81.0079 32.0503 76.5179 34.0403 73.1779C35.8553 70.1179 38.7753 68.5329 39.3803 64.6529C39.7103 62.5229 39.1203 60.3779 38.7753 58.2479C35.9503 40.7929 50.0803 28.5729 64.0053 21.2479C72.5453 16.7479 82.8003 14.6879 92.0053 18.4779C92.6833 18.8143 93.4138 19.0325 94.1653 19.1229C94.8526 19.0942 95.5357 19.0005 96.2053 18.8429C107.655 17.1529 122.485 37.5729 119.325 47.9279C118.365 51.0629 116.855 54.3129 117.705 57.4829C118.96 62.1529 124.85 64.6329 125.58 69.4129C126.37 74.5679 120.605 79.1829 121.74 84.2779C122.41 87.2779 125.265 89.2379 127.075 91.7429C128.434 93.6475 129.21 95.9056 129.31 98.2429C129.38 99.6861 129.185 101.13 128.735 102.503C127.385 106.578 123.805 110.283 124.7 114.503C125.76 119.503 132.2 121.273 131.865 126.963C131.68 130.003 129.015 132.358 126.2 133.513C124.174 134.278 122.087 134.87 119.96 135.283C118.39 135.633 117.005 135.318 115.435 135.478C111.065 135.923 106.755 136.608 102.355 136.858C97.5353 137.098 92.6503 137.038 87.8003 137.348Z" fill="url(#paint0_linear_159_1105)"/>
<path d="M141.74 134.498C108.316 160.234 61.6955 160.028 28.5 133.998L52.83 122.593C53.5747 122.241 54.3007 121.85 55.005 121.423L55.565 121.073C55.765 120.948 55.96 120.818 56.155 120.683C59.2245 118.565 61.7402 115.741 63.49 112.448C65.49 108.673 66.15 104.503 66.18 100.253C66.18 97.3931 66.025 94.5331 65.995 91.6681C65.975 90.0814 65.9583 88.4964 65.945 86.9131L66.945 87.4131L69.545 88.7581L84.69 91.3331L100.25 93.9831L100.72 109.983L100.955 117.918L106.69 120.253L111.19 122.073L141.74 134.498Z" fill="#B1B1B1"/>
<path d="M100.695 105.843C99.3353 106.683 98.0503 107.078 96.9253 106.958C89.5303 106.163 75.1053 100.368 66.0253 89.643C66.0253 89.1197 66.0153 88.5947 65.9953 88.068C65.9753 86.4847 65.9586 84.8997 65.9453 83.313L66.9453 83.813L69.5453 85.158L84.6903 87.733L100.25 90.383L100.695 105.843Z" fill="#909090"/>
<circle cx="53.4453" cy="70.7881" r="8.5" fill="#B1B1B1"/>
<circle cx="56.4453" cy="69.7881" r="8.5" fill="#909090"/>
<path d="M111.215 58.0527C117.085 78.3977 104.615 102.998 96.9447 102.998C86.4447 102.998 60.9447 94.6127 55.0797 74.2677C49.2147 53.9227 57.0347 33.7977 72.5347 29.3227C88.0347 24.8477 105.34 37.7127 111.215 58.0527Z" fill="#B1B1B1"/>
<path d="M78.4949 61.5879C81.5449 61.5879 81.5449 66.2779 78.4949 66.2979H78.3549C75.3049 66.2979 75.3049 61.6129 78.3549 61.5879H78.4949Z" fill="#4E4E4E"/>
<path d="M103.535 60.8931C106.37 60.8931 106.37 65.2431 103.535 65.2681H103.41C100.58 65.2681 100.58 60.9131 103.41 60.8931H103.535Z" fill="#4E4E4E"/>
<path d="M92.5749 33.3977C92.5149 33.5327 92.4549 33.6727 92.3899 33.8127C90.9263 36.9067 88.9973 39.7581 86.6699 42.2677C82.0449 47.3677 76.2499 51.3477 70.2399 54.6527C66.7727 56.6305 63.1858 58.3906 59.4999 59.9227C54.1849 62.0377 49.6799 63.0927 49.5349 63.2427C49.0699 57.2977 45.8199 44.8277 61.9449 32.6177C74.9449 22.7827 93.7899 23.5527 93.7899 23.5527C93.7299 27.2577 94.0349 29.9977 92.5749 33.3977Z" fill="url(#paint1_linear_159_1105)"/>
<path d="M92.735 58.998C92.695 59.173 96.915 77.203 96.915 77.203H90.665" stroke="#4E4E4E"/>
<path d="M98.4648 53.8979C101.997 52.0984 106.083 51.7122 109.89 52.8179" stroke="#4E4E4E"/>
<path d="M70.9102 55.7479C75.7804 53.2618 81.5059 53.0785 86.5252 55.2479" stroke="#4E4E4E"/>
<path d="M141.74 134.498C108.316 160.234 61.6955 160.028 28.5 133.998L52.83 122.593C53.9887 122.048 55.1007 121.41 56.155 120.683C56.475 120.463 56.795 120.233 57.1 119.993C59.7479 117.967 61.9275 115.393 63.49 112.448C64.6712 110.185 65.4559 107.736 65.81 105.208C66.1631 105.55 66.5336 105.874 66.92 106.178C69.9858 108.445 73.313 110.335 76.83 111.808C78.5375 112.52 80.2836 113.136 82.06 113.653C87.412 115.214 93 115.805 98.56 115.398C99.33 115.338 100.105 115.263 100.875 115.208L100.95 117.748V117.913L107 120.373L141.74 134.498Z" fill="#4E4E4E"/>
<rect x="57.4785" y="34.3184" width="14.03" height="4.865" rx="2.4325" transform="rotate(20.94 57.4785 34.3184)" fill="#545454"/>
<rect x="54.1514" y="41.7349" width="14.03" height="4.865" rx="2.4325" transform="rotate(20.94 54.1514 41.7349)" fill="#F2F2F2"/>
<path d="M79.74 80.8229C79.8764 80.6023 80.0991 80.4491 80.3539 80.4006C80.6087 80.3521 80.8721 80.4128 81.08 80.5679C82.12 81.3029 84.02 82.8479 86.72 83.3879C90.4 84.1179 93.595 82.6479 94.355 83.5979C94.785 84.1329 94.26 84.7829 93.255 85.6229C91.1267 87.2107 88.4484 87.874 85.825 87.4629C82.285 86.8029 79.625 82.6979 79.625 81.2479C79.6244 81.0985 79.6641 80.9517 79.74 80.8229Z" fill="white"/>
<defs>
<linearGradient id="paint0_linear_159_1105" x1="80.2263" y1="197.624" x2="175.884" y2="112.353" gradientUnits="userSpaceOnUse">
<stop stop-color="#737373"/>
<stop offset="1" stop-color="#ABABAB"/>
</linearGradient>
<linearGradient id="paint1_linear_159_1105" x1="64.669" y1="79.9321" x2="101.049" y2="41.372" gradientUnits="userSpaceOnUse">
<stop stop-color="#858585"/>
<stop offset="1" stop-color="#CFCFCF"/>
</linearGradient>
</defs>
</svg>
