<svg width="170" height="170" viewBox="0 0 170 170" fill="none" xmlns="http://www.w3.org/2000/svg">
<path d="M92.932 108.85C87.732 108.76 82.527 108.51 77.122 108.18C70.387 107.765 62.202 109.43 55.772 106.85C49.532 104.35 45.557 100.385 41.457 95.3497C39.322 92.7447 36.027 91.4197 32.832 90.3497C29.637 89.2797 26.302 88.2947 23.732 86.1147C21.162 83.9347 19.597 80.1497 21.067 77.1147C24.682 69.6597 36.442 72.1497 36.467 60.8997C36.467 57.0747 34.762 52.7897 37.032 49.7097C37.8019 48.7777 38.7419 48.0005 39.802 47.4197C44.952 44.2447 51.592 44.5547 56.702 41.4197C62.472 37.8497 61.272 31.0947 66.412 26.3847C68.1287 24.8888 69.9838 23.5595 71.952 22.4147C85.412 14.0847 99.327 14.8647 113.117 22.7997C120.492 27.0547 126.897 34.6847 129.912 42.6047C133.257 51.4247 126.657 61.2297 132.212 68.8997C133.472 70.6397 135.142 72.0497 136.507 73.7097C142.227 80.6597 133.422 84.9397 129.812 89.6597C126.917 93.4547 127.362 99.0047 124.582 102.885C121.357 107.385 115.082 108.14 109.537 108.485C103.842 108.86 98.387 108.945 92.932 108.85Z" fill="#B1B1B1"/>
<path d="M149.987 134.71C116.563 160.445 69.9425 160.24 36.7471 134.21L61.0771 122.805C61.8218 122.453 62.5478 122.062 63.2521 121.635L63.8121 121.285C64.0121 121.16 64.2071 121.03 64.4021 120.895C67.4716 118.777 69.9872 115.953 71.7371 112.66C73.7371 108.885 74.3971 104.715 74.4271 100.465C74.4271 98.1298 74.3321 95.7948 74.2721 93.4648C74.2721 92.9381 74.2621 92.4131 74.2421 91.8898C74.2221 90.3064 74.2054 88.7214 74.1921 87.1348L75.1921 87.6348L77.7921 88.9798L92.9371 91.5548L108.497 94.2048L108.952 109.655V110.19L109.187 118.125L114.922 120.46L119.422 122.28L149.987 134.71Z" fill="#D1D1D1"/>
<path d="M108.942 106.15C107.582 106.99 106.297 107.385 105.172 107.265C97.7774 106.47 83.3524 100.675 74.2724 89.9496C74.2724 89.423 74.2624 88.898 74.2424 88.3746C74.2224 86.7913 74.2057 85.2063 74.1924 83.6196L75.1924 84.1196L77.7924 85.4646L92.9374 88.0396L108.497 90.6896L108.942 106.15Z" fill="#909090"/>
<circle cx="61.6924" cy="71.1196" r="8.5" fill="#D1D1D1"/>
<circle cx="64.6924" cy="70.1196" r="8.5" fill="#909090"/>
<path d="M119.462 58.2495C125.332 78.5945 112.857 103.184 105.192 103.184C94.6921 103.184 69.1921 94.7945 63.3271 74.4545C57.4621 54.1145 65.2571 33.9945 80.7571 29.5195C96.2571 25.0445 113.587 37.9095 119.462 58.2495Z" fill="#D1D1D1"/>
<path d="M87.8816 62.4746C90.9316 62.4746 90.9316 67.1646 87.8816 67.1846H87.7416C84.6916 67.1846 84.6916 62.4996 87.7416 62.4746H87.8816Z" fill="#4E4E4E"/>
<path d="M113.012 60.5547C115.842 60.5547 115.842 64.9047 113.012 64.9297H112.882C110.052 64.9047 110.052 60.5797 112.882 60.5547H113.012Z" fill="#4E4E4E"/>
<circle cx="87.8721" cy="64.8696" r="9.5" stroke="white"/>
<circle cx="114.442" cy="63.3696" r="9.5" stroke="white"/>
<path d="M100.107 31.2048C97.9574 40.5598 93.2624 48.4998 84.6774 54.2798C75.4224 60.6898 65.6424 63.7798 54.9824 65.9098C55.2524 59.3548 54.5324 50.1348 57.9124 44.2848C61.7485 37.7949 67.3516 32.53 74.0674 29.1048C81.4674 25.2798 92.9224 21.5298 101.242 24.1848C101.013 26.5465 100.634 28.8912 100.107 31.2048Z" fill="#B1B1B1"/>
<path d="M100.982 59.1997C100.942 59.3697 104.942 75.3697 104.942 75.3697H98.6924" stroke="#4E4E4E"/>
<path d="M106.712 54.1049C110.247 52.2919 114.343 51.9018 118.157 53.0149" stroke="#4E4E4E"/>
<path d="M79.1572 55.9396C84.0264 53.4564 89.7491 53.2731 94.7672 55.4396" stroke="#4E4E4E"/>
<path d="M97.3721 64.8696L104.942 64.2246" stroke="white"/>
<path d="M149.987 134.71C116.563 160.446 69.9425 160.24 36.7471 134.21L61.0771 122.805C62.2358 122.26 63.3478 121.621 64.4021 120.895C64.7221 120.675 65.0421 120.445 65.3471 120.205C67.995 118.179 70.1746 115.605 71.7371 112.66C72.9183 110.397 73.703 107.948 74.0571 105.42C74.4102 105.762 74.7807 106.086 75.1671 106.39C78.2328 108.657 81.56 110.547 85.0771 112.02C86.7846 112.732 88.5306 113.348 90.3071 113.865C95.6591 115.426 101.247 116.016 106.807 115.61C107.577 115.55 108.352 115.475 109.122 115.42L109.197 117.96V118.105L115.247 120.565L149.987 134.71Z" fill="#4E4E4E"/>
<path d="M87.9871 81.0145C88.1253 80.7959 88.3483 80.6448 88.6026 80.5973C88.8568 80.5499 89.1193 80.6105 89.3271 80.7645C90.3671 81.4945 92.2671 83.0445 94.9671 83.5845C98.6471 84.3145 101.837 82.8445 102.602 83.7895C103.032 84.3245 102.507 84.9795 101.502 85.7895C99.3757 87.3817 96.6962 88.0471 94.0721 87.6345C90.5321 86.9695 87.8721 82.8695 87.8721 81.4195C87.8763 81.2771 87.9158 81.1379 87.9871 81.0145Z" fill="white"/>
</svg>
