<svg width="170" height="170" viewBox="0 0 170 170" fill="none" xmlns="http://www.w3.org/2000/svg">
<path fill-rule="evenodd" clip-rule="evenodd" d="M104.57 23.4337C119.56 33.2137 122.52 51.4137 122.725 68.0087C122.811 75.0245 122.745 82.0097 122.679 88.9858C122.55 102.558 122.422 116.095 123.42 129.754C123.35 128.779 107.545 126.434 105.74 126.354C101.945 126.19 98.0197 126.546 94.1389 126.898C92.2265 127.072 90.3247 127.245 88.4546 127.354C85.1929 127.558 81.8584 127.639 78.5055 127.722C72.0775 127.879 65.5824 128.038 59.4046 129.064C58.2067 129.263 57.0245 129.465 55.852 129.665C49.6447 130.725 43.7088 131.738 37.1396 132.104C36.6204 132.194 36.0861 132.089 35.6396 131.809C35.1396 131.399 35.1396 130.659 35.1396 130.014C35.1396 122.285 35.4858 114.56 35.8318 106.841C36.3204 95.9379 36.8085 85.0464 36.3196 74.1737C35.8847 64.9236 37.4185 55.6867 40.8196 47.0737C43.7255 39.6462 48.284 32.9778 54.1496 27.5737C55.7421 26.1345 57.4513 24.83 59.2596 23.6737C72.6946 15.0337 91.0346 14.6037 104.57 23.4337ZM60.4896 60.9187L67.5346 65.9187L90.2346 43.2237L87.3796 41.4187C84.6586 46.0303 80.9244 49.9628 76.4596 52.9187C71.5288 56.3058 66.155 58.9978 60.4896 60.9187Z" fill="#680036"/>
<path d="M141.74 133.359C108.316 159.094 61.6955 158.888 28.5 132.859L52.83 121.454C53.5747 121.102 54.3007 120.711 55.005 120.284L55.565 119.934C55.765 119.809 55.96 119.679 56.155 119.544C59.2245 117.426 61.7402 114.602 63.49 111.309C65.49 107.534 66.15 103.364 66.18 99.1137C66.18 96.7787 66.085 94.4437 66.025 92.1137C66.025 91.5904 66.015 91.0654 65.995 90.5387C65.975 88.9554 65.9583 87.3704 65.945 85.7837H65.98L66.935 86.2837L69.535 87.6287L84.68 90.2037L100.24 92.8537L100.595 104.854L100.695 108.294V108.829L100.93 116.764L106.665 119.099L111.165 120.919L141.74 133.359Z" fill="#F2A196"/>
<path d="M100.595 104.859C99.5172 105.597 98.2299 105.967 96.9249 105.914C89.5349 105.119 75.1049 99.3236 66.0349 88.5986C66.0349 88.0752 66.0249 87.5502 66.0049 87.0236V85.7886L66.9599 86.2886L69.5599 87.6336L84.7049 90.2086L100.265 92.8586L100.595 104.859Z" fill="#E88870"/>
<circle cx="53.4453" cy="69.7686" r="8.5" fill="#F2A196"/>
<circle cx="56.4453" cy="68.7686" r="8.5" fill="#E88870"/>
<path d="M111.215 56.8987C117.085 77.2387 104.615 101.834 96.9447 101.834C86.4447 101.834 60.9447 93.4437 55.0797 73.1037C49.2147 52.7637 57.0347 32.6437 72.5347 28.1737C88.0347 23.7037 105.345 36.5537 111.215 56.8987Z" fill="#F2A196"/>
<path d="M82.1904 81.6089C84.5917 84.2932 87.8856 86.0148 91.4604 86.4539" stroke="#680036"/>
<path d="M92.5 59.0386C92.475 59.1386 94.895 63.3186 96.155 67.8336C96.74 70.2487 97.0123 72.729 96.965 75.2136H90.21" stroke="#680036"/>
<path d="M98.7051 54.7837C102.238 52.9841 106.323 52.5979 110.13 53.7037" stroke="#680036"/>
<path d="M69.1299 56.7736C74.0013 54.2923 79.7247 54.109 84.7449 56.2736" stroke="#680036"/>
<path d="M77.9 61.2036C80.95 61.2286 80.95 65.8936 77.9 65.9136H77.765C74.715 65.9136 74.715 61.2286 77.765 61.2036H77.9Z" fill="#680036"/>
<path d="M102.965 60.5088C105.795 60.5088 105.795 64.8588 102.965 64.8788H102.84C100.005 64.8788 100.005 60.5288 102.84 60.5088H102.965Z" fill="#680036"/>
<path d="M93.0001 22.8336C92.7676 25.1882 92.3885 27.5261 91.8651 29.8336C90.9706 33.9055 89.4527 37.8149 87.3651 41.4236C84.644 46.0352 80.9099 49.9677 76.4451 52.9236C71.5143 56.3107 66.1405 59.0027 60.4751 60.9236C55.9885 62.4477 51.4006 63.6556 46.7451 64.5386C46.9001 60.7236 46.7451 56.0036 47.2151 51.5736C47.5651 48.3936 48.2651 45.3586 49.6751 42.9136C53.5008 36.4442 59.0813 31.1913 65.7701 27.7636L65.8301 27.7336C73.2251 23.9286 84.6801 20.1736 93.0001 22.8336Z" fill="#680036"/>
<path d="M141.74 133.359C108.316 159.094 61.6955 158.889 28.5 132.859L52.83 121.454C53.9887 120.909 55.1007 120.27 56.155 119.544C56.475 119.324 56.795 119.094 57.1 118.854C59.7479 116.828 61.9275 114.254 63.49 111.309C64.6712 109.046 65.4559 106.597 65.81 104.069C66.1631 104.411 66.5336 104.735 66.92 105.039C69.9855 107.308 73.3127 109.2 76.83 110.674C78.5375 111.386 80.2836 112.002 82.06 112.519C87.412 114.079 93 114.67 98.56 114.264C99.33 114.204 100.105 114.129 100.875 114.074L100.95 116.614V116.779L107 119.239L141.74 133.359Z" fill="#00214E"/>
<path d="M87.3553 41.4438C84.6342 46.0555 80.9001 49.9879 76.4353 52.9438C71.5045 56.331 66.1307 59.0229 60.4653 60.9438L47.2053 51.5938L40.8203 47.0938C43.7261 39.6664 48.2846 32.9979 54.1503 27.5938C55.742 26.1477 57.4512 24.8365 59.2603 23.6738L65.7603 27.7838L87.3553 41.4438Z" fill="url(#paint0_linear_159_1003)"/>
<defs>
<linearGradient id="paint0_linear_159_1003" x1="72.0312" y1="74.9736" x2="92.1357" y2="33.2574" gradientUnits="userSpaceOnUse">
<stop offset="0.29" stop-color="#680036"/>
<stop offset="0.51" stop-color="#981F5E"/>
<stop offset="0.79" stop-color="#680036"/>
</linearGradient>
</defs>
</svg>
