<svg width="514" height="249" viewBox="0 0 514 249" fill="none" xmlns="http://www.w3.org/2000/svg">
<rect x="10" y="12" width="494" height="110" rx="20" fill="#6AAFD1"/>
<rect x="10" y="127" width="200" height="110" rx="20" fill="#E186C2"/>
<path d="M423.02 74H413.3V71.58H417.06V62.22H416.88L414.04 65.94L412.12 64.44L415.46 60.04H420.06V71.58H423.02V74ZM426.512 70.62C427.112 70.62 427.552 70.7733 427.832 71.08C428.125 71.3733 428.272 71.7533 428.272 72.22V72.62C428.272 73.4333 428.072 74.2333 427.672 75.02C427.285 75.8067 426.772 76.4467 426.132 76.94H424.132C424.599 76.5 424.999 76.06 425.332 75.62C425.665 75.1933 425.919 74.7133 426.092 74.18C425.639 74.1 425.299 73.92 425.072 73.64C424.859 73.3467 424.752 73.0067 424.752 72.62V72.22C424.752 71.7533 424.892 71.3733 425.172 71.08C425.465 70.7733 425.912 70.62 426.512 70.62ZM440.044 60.04V62.66H433.704L433.404 67.08H433.564C433.75 66.64 433.964 66.2533 434.204 65.92C434.444 65.5867 434.75 65.3267 435.124 65.14C435.497 64.9533 435.977 64.86 436.564 64.86C437.364 64.86 438.084 65.04 438.724 65.4C439.377 65.7467 439.897 66.2533 440.284 66.92C440.67 67.5733 440.864 68.3667 440.864 69.3C440.864 70.2467 440.657 71.0933 440.244 71.84C439.83 72.5867 439.224 73.1733 438.424 73.6C437.624 74.0267 436.65 74.24 435.504 74.24C434.61 74.24 433.844 74.12 433.204 73.88C432.564 73.6267 432.024 73.2933 431.584 72.88C431.157 72.4667 430.804 72.0267 430.524 71.56L432.704 69.84C433.01 70.3733 433.377 70.8333 433.804 71.22C434.23 71.6067 434.804 71.8 435.524 71.8C436.244 71.8 436.784 71.5933 437.144 71.18C437.517 70.7667 437.704 70.22 437.704 69.54V69.38C437.704 68.74 437.517 68.2333 437.144 67.86C436.77 67.4867 436.257 67.3 435.604 67.3C435.07 67.3 434.624 67.4133 434.264 67.64C433.904 67.8533 433.63 68.0667 433.444 68.28L430.984 67.94L431.504 60.04H440.044ZM445.536 65.56H446.836C447.582 65.56 448.122 65.42 448.456 65.14C448.802 64.8467 448.976 64.4867 448.976 64.06V63.92C448.976 63.4133 448.809 63.0067 448.476 62.7C448.142 62.3933 447.682 62.24 447.096 62.24C446.536 62.24 446.009 62.3867 445.516 62.68C445.022 62.96 444.602 63.3667 444.256 63.9L442.376 62.14C442.736 61.6733 443.136 61.2667 443.576 60.92C444.016 60.5733 444.529 60.3 445.116 60.1C445.702 59.9 446.396 59.8 447.196 59.8C448.196 59.8 449.062 59.9533 449.796 60.26C450.542 60.5667 451.116 61 451.516 61.56C451.929 62.1067 452.136 62.7533 452.136 63.5C452.136 64.3933 451.869 65.1067 451.336 65.64C450.816 66.1733 450.196 66.5067 449.476 66.64V66.76C450.036 66.8533 450.529 67.0467 450.956 67.34C451.396 67.62 451.742 67.9933 451.996 68.46C452.249 68.9267 452.376 69.48 452.376 70.12C452.376 70.9467 452.149 71.6733 451.696 72.3C451.256 72.9133 450.636 73.3933 449.836 73.74C449.049 74.0733 448.129 74.24 447.076 74.24C446.129 74.24 445.329 74.12 444.676 73.88C444.022 73.6267 443.476 73.2933 443.036 72.88C442.596 72.4667 442.222 72.0267 441.916 71.56L444.136 69.84C444.442 70.4133 444.822 70.8867 445.276 71.26C445.729 71.62 446.329 71.8 447.076 71.8C447.756 71.8 448.282 71.6267 448.656 71.28C449.042 70.9333 449.236 70.4733 449.236 69.9V69.78C449.236 69.2067 449.016 68.78 448.576 68.5C448.149 68.2067 447.556 68.06 446.796 68.06H445.536V65.56ZM457.528 65.56H458.828C459.575 65.56 460.115 65.42 460.448 65.14C460.795 64.8467 460.968 64.4867 460.968 64.06V63.92C460.968 63.4133 460.801 63.0067 460.468 62.7C460.135 62.3933 459.675 62.24 459.088 62.24C458.528 62.24 458.001 62.3867 457.508 62.68C457.015 62.96 456.595 63.3667 456.248 63.9L454.368 62.14C454.728 61.6733 455.128 61.2667 455.568 60.92C456.008 60.5733 456.521 60.3 457.108 60.1C457.695 59.9 458.388 59.8 459.188 59.8C460.188 59.8 461.055 59.9533 461.788 60.26C462.535 60.5667 463.108 61 463.508 61.56C463.921 62.1067 464.128 62.7533 464.128 63.5C464.128 64.3933 463.861 65.1067 463.328 65.64C462.808 66.1733 462.188 66.5067 461.468 66.64V66.76C462.028 66.8533 462.521 67.0467 462.948 67.34C463.388 67.62 463.735 67.9933 463.988 68.46C464.241 68.9267 464.368 69.48 464.368 70.12C464.368 70.9467 464.141 71.6733 463.688 72.3C463.248 72.9133 462.628 73.3933 461.828 73.74C461.041 74.0733 460.121 74.24 459.068 74.24C458.121 74.24 457.321 74.12 456.668 73.88C456.015 73.6267 455.468 73.2933 455.028 72.88C454.588 72.4667 454.215 72.0267 453.908 71.56L456.128 69.84C456.435 70.4133 456.815 70.8867 457.268 71.26C457.721 71.62 458.321 71.8 459.068 71.8C459.748 71.8 460.275 71.6267 460.648 71.28C461.035 70.9333 461.228 70.4733 461.228 69.9V69.78C461.228 69.2067 461.008 68.78 460.568 68.5C460.141 68.2067 459.548 68.06 458.788 68.06H457.528V65.56Z" fill="#000A55"/>
<path d="M137.492 189H134.332L139.012 177.48H134.652V180.02H132.112V175.04H141.992V177.64L137.492 189ZM149.484 189H146.324L151.004 177.48H146.644V180.02H144.104V175.04H153.984V177.64L149.484 189ZM160.996 189.24C159.783 189.24 158.776 188.953 157.976 188.38C157.176 187.807 156.583 186.987 156.196 185.92C155.809 184.84 155.616 183.54 155.616 182.02C155.616 180.5 155.809 179.2 156.196 178.12C156.583 177.04 157.176 176.22 157.976 175.66C158.776 175.087 159.783 174.8 160.996 174.8C162.223 174.8 163.229 175.087 164.016 175.66C164.816 176.22 165.409 177.04 165.796 178.12C166.183 179.2 166.376 180.5 166.376 182.02C166.376 183.54 166.183 184.84 165.796 185.92C165.409 186.987 164.816 187.807 164.016 188.38C163.229 188.953 162.223 189.24 160.996 189.24ZM160.996 186.7C161.529 186.7 161.949 186.567 162.256 186.3C162.563 186.033 162.783 185.653 162.916 185.16C163.049 184.653 163.116 184.047 163.116 183.34V180.7C163.116 179.993 163.049 179.393 162.916 178.9C162.783 178.393 162.563 178.007 162.256 177.74C161.949 177.473 161.529 177.34 160.996 177.34C160.463 177.34 160.043 177.473 159.736 177.74C159.429 178.007 159.209 178.393 159.076 178.9C158.943 179.393 158.876 179.993 158.876 180.7V183.34C158.876 184.047 158.943 184.653 159.076 185.16C159.209 185.653 159.429 186.033 159.736 186.3C160.043 186.567 160.463 186.7 160.996 186.7Z" fill="#000A55"/>
</svg>
