<svg width="649" height="643" viewBox="0 0 649 643" fill="none" xmlns="http://www.w3.org/2000/svg">
<path d="M578 321C578 461.833 463.833 576 323 576C182.167 576 68 461.833 68 321C68 180.168 182.167 66.0005 323 66.0005C463.833 66.0005 578 180.168 578 321ZM221.039 321C221.039 377.312 266.689 422.961 323 422.961C379.311 422.961 424.961 377.312 424.961 321C424.961 264.689 379.311 219.04 323 219.04C266.689 219.04 221.039 264.689 221.039 321Z" fill="#E5E4E2"/>
<path d="M284.047 327.566C279.652 327.566 276.176 325.418 274.223 321.297C273.188 319.129 272.66 316.434 272.66 313.23C272.66 303.836 276.957 298.23 284.125 298.23C288.422 298.23 291.703 300.105 293.109 302.781C293.422 303.348 293.559 303.836 293.559 304.383C293.559 305.535 292.738 306.414 291.41 306.414C290.414 306.414 289.789 305.945 289.008 304.949C287.699 303.152 286.195 302.332 284.105 302.332C279.848 302.332 277.582 306.258 277.484 312.742V313.035H277.582C278.695 310.438 281.508 308.484 285.336 308.484C290.766 308.484 294.574 312.391 294.574 317.723C294.574 323.445 290.141 327.566 284.047 327.566ZM283.969 323.465C287.113 323.465 289.613 321.004 289.613 317.918C289.633 314.676 287.27 312.371 284.027 312.371C280.785 312.371 278.344 314.676 278.344 317.82C278.344 320.984 280.824 323.465 283.969 323.465ZM301.215 322.039C302.523 322.039 303.402 322.801 303.402 324.031C303.402 324.402 303.363 324.754 303.246 325.164L301.586 331.785C301.312 332.938 300.727 333.465 299.574 333.465C298.422 333.465 297.699 332.723 297.758 331.668C297.758 331.473 297.777 331.336 297.797 331.258L298.93 324.07C299.145 322.645 299.945 322.039 301.215 322.039ZM318.969 327.566C312.016 327.566 307.875 321.922 307.875 312.879C307.875 303.875 312.055 298.25 318.969 298.25C325.863 298.25 330.023 303.836 330.023 312.859C330.023 321.883 325.902 327.566 318.969 327.566ZM318.969 323.445C322.777 323.445 324.945 319.559 324.945 312.879C324.945 306.277 322.738 302.371 318.969 302.371C315.18 302.371 312.953 306.297 312.953 312.859C312.953 319.539 315.141 323.445 318.969 323.445ZM337.875 327.391C336.469 327.391 335.57 326.531 335.57 325.34C335.57 324.754 335.707 324.324 336 323.738L346.957 303.035V302.938H334.242C332.992 302.938 332.094 302.117 332.094 300.867C332.094 299.617 332.992 298.816 334.242 298.816H349.047C350.844 298.816 352.074 299.871 352.074 301.648C352.074 302.566 351.781 303.348 351.098 304.676L340.141 325.926C339.594 327 338.969 327.391 337.875 327.391ZM366 327.566C361.664 327.566 357.914 325.496 356.527 322.43C356.254 321.824 356.078 321.238 356.078 320.516C356.078 319.207 356.918 318.387 358.246 318.387C359.301 318.387 359.945 318.797 360.473 319.832C361.43 322.117 363.305 323.465 366.02 323.465C369.359 323.465 371.723 321.102 371.723 317.762C371.723 314.52 369.359 312.215 366.039 312.215C364.262 312.215 362.719 312.938 361.645 313.992C360.473 315.164 359.984 315.418 358.832 315.418C357.211 315.418 356.41 314.266 356.449 312.898C356.449 312.781 356.449 312.703 356.469 312.586L357.367 301.941C357.543 299.715 358.676 298.816 360.883 298.816H373.031C374.32 298.816 375.16 299.637 375.16 300.867C375.16 302.117 374.32 302.938 373.031 302.938H361.645L360.902 311.277H361C362.191 309.52 364.516 308.426 367.348 308.426C372.738 308.426 376.586 312.234 376.586 317.625C376.586 323.523 372.25 327.566 366 327.566Z" fill="#000A55" fill-opacity="0.55"/>
<path d="M251.541 356H249.701C248.821 356 248.148 355.773 247.681 355.32C247.228 354.853 247.001 354.193 247.001 353.34V347.58H245.461V345.56H246.261C246.648 345.56 246.908 345.473 247.041 345.3C247.188 345.113 247.261 344.84 247.261 344.48V342.7H249.561V345.56H251.701V347.58H249.561V353.96H251.541V356ZM257.983 356.24C256.997 356.24 256.137 356.02 255.403 355.58C254.683 355.127 254.123 354.493 253.723 353.68C253.337 352.853 253.143 351.88 253.143 350.76C253.143 349.64 253.337 348.68 253.723 347.88C254.123 347.067 254.683 346.44 255.403 346C256.137 345.547 256.997 345.32 257.983 345.32C258.983 345.32 259.843 345.547 260.563 346C261.297 346.44 261.857 347.067 262.243 347.88C262.643 348.68 262.843 349.64 262.843 350.76C262.843 351.88 262.643 352.853 262.243 353.68C261.857 354.493 261.297 355.127 260.563 355.58C259.843 356.02 258.983 356.24 257.983 356.24ZM257.983 354.18C258.663 354.18 259.197 353.973 259.583 353.56C259.97 353.133 260.163 352.527 260.163 351.74V349.8C260.163 349.013 259.97 348.413 259.583 348C259.197 347.587 258.663 347.38 257.983 347.38C257.33 347.38 256.803 347.587 256.403 348C256.017 348.413 255.823 349.013 255.823 349.8V351.74C255.823 352.527 256.017 353.133 256.403 353.56C256.803 353.973 257.33 354.18 257.983 354.18ZM270.135 356H268.295C267.415 356 266.741 355.773 266.275 355.32C265.821 354.853 265.595 354.193 265.595 353.34V347.58H264.055V345.56H264.855C265.241 345.56 265.501 345.473 265.635 345.3C265.781 345.113 265.855 344.84 265.855 344.48V342.7H268.155V345.56H270.295V347.58H268.155V353.96H270.135V356ZM281.615 356H280.195C279.808 356 279.462 355.913 279.155 355.74C278.862 355.553 278.628 355.287 278.455 354.94C278.295 354.593 278.215 354.187 278.215 353.72V353.5L278.855 354.2H278.135C277.962 354.867 277.602 355.373 277.055 355.72C276.522 356.067 275.868 356.24 275.095 356.24C274.028 356.24 273.208 355.96 272.635 355.4C272.062 354.827 271.775 354.08 271.775 353.16C271.775 352.44 271.948 351.847 272.295 351.38C272.655 350.913 273.168 350.56 273.835 350.32C274.502 350.08 275.302 349.96 276.235 349.96H278.015V349.2C278.015 348.627 277.862 348.18 277.555 347.86C277.248 347.527 276.755 347.36 276.075 347.36C275.475 347.36 274.988 347.493 274.615 347.76C274.255 348.013 273.948 348.32 273.695 348.68L272.175 347.32C272.562 346.72 273.075 346.24 273.715 345.88C274.355 345.507 275.202 345.32 276.255 345.32C277.655 345.32 278.722 345.647 279.455 346.3C280.202 346.94 280.575 347.853 280.575 349.04V353.96H281.615V356ZM278.015 351.5H276.375C275.708 351.5 275.208 351.613 274.875 351.84C274.542 352.053 274.375 352.367 274.375 352.78V353.12C274.375 353.533 274.515 353.847 274.795 354.06C275.075 354.273 275.462 354.38 275.955 354.38C276.342 354.38 276.688 354.327 276.995 354.22C277.302 354.1 277.548 353.927 277.735 353.7C277.922 353.473 278.015 353.2 278.015 352.88V351.5ZM287.627 356H286.247C285.38 356 284.734 355.78 284.307 355.34C283.894 354.9 283.687 354.28 283.687 353.48V341.2H286.247V353.96H287.627V356ZM294.293 360V345.56H296.853V347.28H296.933C297.119 346.68 297.473 346.207 297.993 345.86C298.526 345.5 299.133 345.32 299.813 345.32C300.706 345.32 301.453 345.533 302.053 345.96C302.653 346.387 303.113 347.007 303.433 347.82C303.753 348.62 303.913 349.6 303.913 350.76C303.913 351.92 303.753 352.913 303.433 353.74C303.113 354.553 302.653 355.173 302.053 355.6C301.453 356.027 300.706 356.24 299.813 356.24C299.133 356.24 298.533 356.06 298.013 355.7C297.493 355.34 297.133 354.86 296.933 354.26H296.853V360H294.293ZM298.993 354.12C299.659 354.12 300.199 353.9 300.613 353.46C301.026 353.007 301.233 352.413 301.233 351.68V349.88C301.233 349.133 301.026 348.54 300.613 348.1C300.199 347.647 299.659 347.42 298.993 347.42C298.593 347.42 298.226 347.493 297.893 347.64C297.573 347.773 297.319 347.967 297.133 348.22C296.946 348.473 296.853 348.767 296.853 349.1V352.42C296.853 352.78 296.946 353.087 297.133 353.34C297.319 353.593 297.573 353.787 297.893 353.92C298.226 354.053 298.593 354.12 298.993 354.12ZM315.385 356H313.965C313.578 356 313.231 355.913 312.925 355.74C312.631 355.553 312.398 355.287 312.225 354.94C312.065 354.593 311.985 354.187 311.985 353.72V353.5L312.625 354.2H311.905C311.731 354.867 311.371 355.373 310.825 355.72C310.291 356.067 309.638 356.24 308.865 356.24C307.798 356.24 306.978 355.96 306.405 355.4C305.831 354.827 305.545 354.08 305.545 353.16C305.545 352.44 305.718 351.847 306.065 351.38C306.425 350.913 306.938 350.56 307.605 350.32C308.271 350.08 309.071 349.96 310.005 349.96H311.785V349.2C311.785 348.627 311.631 348.18 311.325 347.86C311.018 347.527 310.525 347.36 309.845 347.36C309.245 347.36 308.758 347.493 308.385 347.76C308.025 348.013 307.718 348.32 307.465 348.68L305.945 347.32C306.331 346.72 306.845 346.24 307.485 345.88C308.125 345.507 308.971 345.32 310.025 345.32C311.425 345.32 312.491 345.647 313.225 346.3C313.971 346.94 314.345 347.853 314.345 349.04V353.96H315.385V356ZM311.785 351.5H310.145C309.478 351.5 308.978 351.613 308.645 351.84C308.311 352.053 308.145 352.367 308.145 352.78V353.12C308.145 353.533 308.285 353.847 308.565 354.06C308.845 354.273 309.231 354.38 309.725 354.38C310.111 354.38 310.458 354.327 310.765 354.22C311.071 354.1 311.318 353.927 311.505 353.7C311.691 353.473 311.785 353.2 311.785 352.88V351.5ZM320.017 356H317.457V345.56H320.017V347.72H320.117C320.21 347.347 320.363 347 320.577 346.68C320.803 346.347 321.103 346.08 321.477 345.88C321.863 345.667 322.33 345.56 322.877 345.56H323.437V347.98H322.637C322.063 347.98 321.577 348.04 321.177 348.16C320.79 348.267 320.497 348.44 320.297 348.68C320.11 348.907 320.017 349.213 320.017 349.6V356ZM330.486 356H328.646C327.766 356 327.093 355.773 326.626 355.32C326.173 354.853 325.946 354.193 325.946 353.34V347.58H324.406V345.56H325.206C325.593 345.56 325.853 345.473 325.986 345.3C326.133 345.113 326.206 344.84 326.206 344.48V342.7H328.506V345.56H330.646V347.58H328.506V353.96H330.486V356ZM334.147 344.04C333.627 344.04 333.247 343.92 333.007 343.68C332.767 343.427 332.647 343.12 332.647 342.76V342.36C332.647 341.987 332.767 341.68 333.007 341.44C333.247 341.2 333.627 341.08 334.147 341.08C334.667 341.08 335.047 341.2 335.287 341.44C335.527 341.68 335.647 341.987 335.647 342.36V342.76C335.647 343.12 335.527 343.427 335.287 343.68C335.047 343.92 334.667 344.04 334.147 344.04ZM332.867 356V345.56H335.427V356H332.867ZM342.495 356.24C340.948 356.24 339.755 355.747 338.915 354.76C338.088 353.773 337.675 352.44 337.675 350.76C337.675 349.093 338.088 347.773 338.915 346.8C339.755 345.813 340.948 345.32 342.495 345.32C343.548 345.32 344.415 345.553 345.095 346.02C345.788 346.487 346.288 347.133 346.595 347.96L344.495 348.9C344.375 348.46 344.148 348.1 343.815 347.82C343.481 347.527 343.041 347.38 342.495 347.38C341.788 347.38 341.255 347.607 340.895 348.06C340.535 348.5 340.355 349.093 340.355 349.84V351.74C340.355 352.46 340.535 353.047 340.895 353.5C341.255 353.953 341.788 354.18 342.495 354.18C343.095 354.18 343.561 354.027 343.895 353.72C344.241 353.4 344.508 353.007 344.695 352.54L346.655 353.48C346.321 354.4 345.795 355.093 345.075 355.56C344.368 356.013 343.508 356.24 342.495 356.24ZM349.908 344.04C349.388 344.04 349.008 343.92 348.768 343.68C348.528 343.427 348.408 343.12 348.408 342.76V342.36C348.408 341.987 348.528 341.68 348.768 341.44C349.008 341.2 349.388 341.08 349.908 341.08C350.428 341.08 350.808 341.2 351.048 341.44C351.288 341.68 351.408 341.987 351.408 342.36V342.76C351.408 343.12 351.288 343.427 351.048 343.68C350.808 343.92 350.428 344.04 349.908 344.04ZM348.628 356V345.56H351.188V356H348.628ZM354.136 360V345.56H356.696V347.28H356.776C356.963 346.68 357.316 346.207 357.836 345.86C358.37 345.5 358.976 345.32 359.656 345.32C360.55 345.32 361.296 345.533 361.896 345.96C362.496 346.387 362.956 347.007 363.276 347.82C363.596 348.62 363.756 349.6 363.756 350.76C363.756 351.92 363.596 352.913 363.276 353.74C362.956 354.553 362.496 355.173 361.896 355.6C361.296 356.027 360.55 356.24 359.656 356.24C358.976 356.24 358.376 356.06 357.856 355.7C357.336 355.34 356.976 354.86 356.776 354.26H356.696V360H354.136ZM358.836 354.12C359.503 354.12 360.043 353.9 360.456 353.46C360.87 353.007 361.076 352.413 361.076 351.68V349.88C361.076 349.133 360.87 348.54 360.456 348.1C360.043 347.647 359.503 347.42 358.836 347.42C358.436 347.42 358.07 347.493 357.736 347.64C357.416 347.773 357.163 347.967 356.976 348.22C356.79 348.473 356.696 348.767 356.696 349.1V352.42C356.696 352.78 356.79 353.087 356.976 353.34C357.163 353.593 357.416 353.787 357.736 353.92C358.07 354.053 358.436 354.12 358.836 354.12ZM375.228 356H373.808C373.422 356 373.075 355.913 372.768 355.74C372.475 355.553 372.242 355.287 372.068 354.94C371.908 354.593 371.828 354.187 371.828 353.72V353.5L372.468 354.2H371.748C371.575 354.867 371.215 355.373 370.668 355.72C370.135 356.067 369.482 356.24 368.708 356.24C367.642 356.24 366.822 355.96 366.248 355.4C365.675 354.827 365.388 354.08 365.388 353.16C365.388 352.44 365.562 351.847 365.908 351.38C366.268 350.913 366.782 350.56 367.448 350.32C368.115 350.08 368.915 349.96 369.848 349.96H371.628V349.2C371.628 348.627 371.475 348.18 371.168 347.86C370.862 347.527 370.368 347.36 369.688 347.36C369.088 347.36 368.602 347.493 368.228 347.76C367.868 348.013 367.562 348.32 367.308 348.68L365.788 347.32C366.175 346.72 366.688 346.24 367.328 345.88C367.968 345.507 368.815 345.32 369.868 345.32C371.268 345.32 372.335 345.647 373.068 346.3C373.815 346.94 374.188 347.853 374.188 349.04V353.96H375.228V356ZM371.628 351.5H369.988C369.322 351.5 368.822 351.613 368.488 351.84C368.155 352.053 367.988 352.367 367.988 352.78V353.12C367.988 353.533 368.128 353.847 368.408 354.06C368.688 354.273 369.075 354.38 369.568 354.38C369.955 354.38 370.302 354.327 370.608 354.22C370.915 354.1 371.162 353.927 371.348 353.7C371.535 353.473 371.628 353.2 371.628 352.88V351.5ZM379.86 356H377.3V345.56H379.86V347.3H379.96C380.174 346.74 380.507 346.273 380.96 345.9C381.427 345.513 382.067 345.32 382.88 345.32C383.947 345.32 384.767 345.68 385.34 346.4C385.927 347.107 386.22 348.107 386.22 349.4V356H383.66V349.66C383.66 348.927 383.527 348.373 383.26 348C382.994 347.613 382.554 347.42 381.94 347.42C381.594 347.42 381.26 347.487 380.94 347.62C380.62 347.74 380.36 347.927 380.16 348.18C379.96 348.42 379.86 348.727 379.86 349.1V356ZM394.158 356H392.318C391.438 356 390.765 355.773 390.298 355.32C389.845 354.853 389.618 354.193 389.618 353.34V347.58H388.078V345.56H388.878C389.265 345.56 389.525 345.473 389.658 345.3C389.805 345.113 389.878 344.84 389.878 344.48V342.7H392.178V345.56H394.318V347.58H392.178V353.96H394.158V356ZM399.959 356.24C398.959 356.24 398.119 356.073 397.439 355.74C396.759 355.393 396.159 354.92 395.639 354.32L397.199 352.8C397.585 353.24 398.005 353.587 398.459 353.84C398.925 354.093 399.459 354.22 400.059 354.22C400.672 354.22 401.112 354.113 401.379 353.9C401.659 353.687 401.799 353.393 401.799 353.02C401.799 352.713 401.699 352.473 401.499 352.3C401.312 352.113 400.985 351.987 400.519 351.92L399.479 351.78C398.732 351.687 398.099 351.513 397.579 351.26C397.059 351.007 396.665 350.66 396.399 350.22C396.132 349.78 395.999 349.247 395.999 348.62C395.999 347.607 396.359 346.807 397.079 346.22C397.812 345.62 398.772 345.32 399.959 345.32C400.639 345.32 401.219 345.387 401.699 345.52C402.192 345.64 402.625 345.827 402.999 346.08C403.372 346.32 403.719 346.613 404.039 346.96L402.539 348.46C402.232 348.14 401.865 347.873 401.439 347.66C401.012 347.447 400.545 347.34 400.039 347.34C399.505 347.34 399.105 347.44 398.839 347.64C398.585 347.827 398.459 348.087 398.459 348.42C398.459 348.767 398.559 349.033 398.759 349.22C398.972 349.393 399.325 349.52 399.819 349.6L400.879 349.74C402.025 349.9 402.872 350.24 403.419 350.76C403.979 351.267 404.259 351.953 404.259 352.82C404.259 353.487 404.079 354.08 403.719 354.6C403.372 355.12 402.872 355.527 402.219 355.82C401.579 356.1 400.825 356.24 399.959 356.24Z" fill="#000A55" fill-opacity="0.55"/>
<path d="M324.564 99C324.564 87.9543 333.534 78.9141 344.542 79.826C373.14 82.1949 401.145 89.6366 427.227 101.856C459.359 116.908 487.787 138.843 510.499 166.105C533.21 193.367 549.648 225.29 558.649 259.612C567.65 293.934 568.993 329.816 562.583 364.715C556.174 399.614 542.168 432.676 521.559 461.56C500.95 490.444 474.241 514.443 443.324 531.856C412.408 549.268 378.041 559.67 342.658 562.323C313.936 564.476 285.114 561.481 257.54 553.533C246.927 550.474 241.755 538.837 245.68 528.512L273.991 454.037C277.916 443.712 289.463 438.7 300.289 440.892C311.25 443.112 322.495 443.824 333.71 442.983C351.596 441.642 368.967 436.384 384.595 427.583C400.222 418.781 413.723 406.65 424.141 392.05C434.558 377.45 441.638 360.737 444.877 343.097C448.117 325.456 447.438 307.319 442.889 289.97C438.339 272.621 430.03 256.485 418.55 242.704C407.07 228.924 392.7 217.836 376.458 210.228C366.274 205.457 355.51 202.126 344.476 200.306C333.577 198.508 324.564 189.72 324.564 178.675L324.564 99Z" fill="#6AAFD1"/>
<path d="M240.429 526.635C236.254 536.861 224.532 541.839 214.686 536.833C171.534 514.894 135.81 480.42 112.352 437.725C85.6725 389.168 76.4766 332.922 86.3026 278.396C96.1286 223.87 124.381 174.372 166.332 138.183C203.219 106.363 248.729 86.5285 296.825 81.0326C307.799 79.7785 317.046 88.5357 317.389 99.5761L319.862 179.12C320.205 190.16 311.47 199.224 300.633 201.361C279.958 205.438 260.569 214.818 244.442 228.73C223.237 247.023 208.956 272.043 203.989 299.604C199.022 327.166 203.671 355.597 217.156 380.141C227.413 398.808 242.307 414.366 260.258 425.404C269.667 431.189 274.69 442.732 270.514 452.958L240.429 526.635Z" fill="#E186C2"/>
<path d="M472.995 301.966V305.728H462.633L462.105 313.45H462.336C462.666 312.79 463.029 312.218 463.425 311.734C463.843 311.228 464.349 310.832 464.943 310.546C465.559 310.26 466.318 310.117 467.22 310.117C468.54 310.117 469.728 310.414 470.784 311.008C471.84 311.58 472.676 312.405 473.292 313.483C473.93 314.561 474.249 315.87 474.249 317.41C474.249 318.95 473.919 320.325 473.259 321.535C472.599 322.723 471.631 323.669 470.355 324.373C469.079 325.055 467.539 325.396 465.735 325.396C464.327 325.396 463.117 325.198 462.105 324.802C461.093 324.406 460.235 323.878 459.531 323.218C458.849 322.558 458.277 321.854 457.815 321.106L460.983 318.664C461.511 319.544 462.127 320.292 462.831 320.908C463.535 321.524 464.514 321.832 465.768 321.832C467.066 321.832 468.045 321.469 468.705 320.743C469.387 320.017 469.728 319.027 469.728 317.773V317.509C469.728 316.321 469.387 315.386 468.705 314.704C468.023 314.022 467.077 313.681 465.867 313.681C464.921 313.681 464.151 313.868 463.557 314.242C462.963 314.594 462.49 314.979 462.138 315.397L458.574 314.902L459.432 301.966H472.995ZM485.918 325H481.364L489.383 305.497H481.43V309.721H477.734V301.966H493.706V305.695L485.918 325ZM500.491 325.363C499.611 325.363 498.951 325.132 498.511 324.67C498.071 324.208 497.851 323.636 497.851 322.954V322.36C497.851 321.656 498.071 321.073 498.511 320.611C498.951 320.149 499.611 319.918 500.491 319.918C501.415 319.918 502.086 320.149 502.504 320.611C502.922 321.073 503.131 321.656 503.131 322.36V322.954C503.131 323.636 502.922 324.208 502.504 324.67C502.086 325.132 501.415 325.363 500.491 325.363ZM515.567 325H511.013L519.032 305.497H511.079V309.721H507.383V301.966H523.355V305.695L515.567 325ZM534.991 325H531.163L547.135 301.966H550.963L534.991 325ZM532.747 314.638C531.515 314.638 530.47 314.396 529.612 313.912C528.776 313.406 528.127 312.669 527.665 311.701C527.225 310.733 527.005 309.534 527.005 308.104C527.005 306.674 527.225 305.475 527.665 304.507C528.127 303.539 528.776 302.813 529.612 302.329C530.47 301.823 531.515 301.57 532.747 301.57C533.979 301.57 535.013 301.823 535.849 302.329C536.707 302.813 537.356 303.539 537.796 304.507C538.236 305.475 538.456 306.674 538.456 308.104C538.456 309.534 538.236 310.733 537.796 311.701C537.356 312.669 536.707 313.406 535.849 313.912C535.013 314.396 533.979 314.638 532.747 314.638ZM532.747 312.13C533.187 312.13 533.561 312.02 533.869 311.8C534.177 311.58 534.408 311.239 534.562 310.777C534.716 310.315 534.793 309.721 534.793 308.995V307.213C534.793 306.487 534.716 305.893 534.562 305.431C534.408 304.969 534.177 304.628 533.869 304.408C533.561 304.188 533.187 304.078 532.747 304.078C532.285 304.078 531.9 304.188 531.592 304.408C531.306 304.628 531.086 304.969 530.932 305.431C530.778 305.893 530.701 306.487 530.701 307.213V308.995C530.701 309.721 530.778 310.315 530.932 310.777C531.086 311.239 531.306 311.58 531.592 311.8C531.9 312.02 532.285 312.13 532.747 312.13ZM549.379 325.396C548.169 325.396 547.135 325.154 546.277 324.67C545.419 324.164 544.77 323.427 544.33 322.459C543.89 321.491 543.67 320.292 543.67 318.862C543.67 317.432 543.89 316.233 544.33 315.265C544.77 314.297 545.419 313.571 546.277 313.087C547.135 312.581 548.169 312.328 549.379 312.328C550.611 312.328 551.645 312.581 552.481 313.087C553.339 313.571 553.988 314.297 554.428 315.265C554.89 316.233 555.121 317.432 555.121 318.862C555.121 320.292 554.89 321.491 554.428 322.459C553.988 323.427 553.339 324.164 552.481 324.67C551.645 325.154 550.611 325.396 549.379 325.396ZM549.379 322.888C549.841 322.888 550.215 322.778 550.501 322.558C550.809 322.338 551.04 321.997 551.194 321.535C551.348 321.073 551.425 320.479 551.425 319.753V317.971C551.425 317.245 551.348 316.651 551.194 316.189C551.04 315.727 550.809 315.386 550.501 315.166C550.215 314.946 549.841 314.836 549.379 314.836C548.939 314.836 548.565 314.946 548.257 315.166C547.949 315.386 547.718 315.727 547.564 316.189C547.41 316.651 547.333 317.245 547.333 317.971V319.753C547.333 320.479 547.41 321.073 547.564 321.535C547.718 321.997 547.949 322.338 548.257 322.558C548.565 322.778 548.939 322.888 549.379 322.888Z" fill="#000A55"/>
<path d="M110.609 325H106.484V320.545H96.056V316.849L105.23 301.966H110.609V317.179H113.612V320.545H110.609V325ZM106.22 306.19L99.62 317.179H106.484V306.19H106.22ZM132.805 321.337V325H116.833V320.974L124.06 314.638C125.292 313.582 126.194 312.614 126.766 311.734C127.338 310.854 127.624 309.908 127.624 308.896V308.467C127.624 307.455 127.294 306.685 126.634 306.157C125.974 305.607 125.171 305.332 124.225 305.332C123.059 305.332 122.157 305.673 121.519 306.355C120.903 307.015 120.463 307.818 120.199 308.764L116.437 307.312C116.767 306.278 117.273 305.332 117.955 304.474C118.637 303.616 119.528 302.923 120.628 302.395C121.728 301.845 123.048 301.57 124.588 301.57C126.216 301.57 127.591 301.867 128.713 302.461C129.857 303.055 130.726 303.869 131.32 304.903C131.914 305.915 132.211 307.092 132.211 308.434C132.211 309.71 131.947 310.854 131.419 311.866C130.913 312.878 130.209 313.824 129.307 314.704C128.427 315.584 127.459 316.464 126.403 317.344L121.552 321.337H132.805ZM139.491 325.363C138.611 325.363 137.951 325.132 137.511 324.67C137.071 324.208 136.851 323.636 136.851 322.954V322.36C136.851 321.656 137.071 321.073 137.511 320.611C137.951 320.149 138.611 319.918 139.491 319.918C140.415 319.918 141.086 320.149 141.504 320.611C141.922 321.073 142.131 321.656 142.131 322.36V322.954C142.131 323.636 141.922 324.208 141.504 324.67C141.086 325.132 140.415 325.363 139.491 325.363ZM150.805 311.272H153.082C154.402 311.272 155.37 310.997 155.986 310.447C156.624 309.897 156.943 309.215 156.943 308.401V308.17C156.943 307.224 156.635 306.487 156.019 305.959C155.403 305.409 154.578 305.134 153.544 305.134C152.532 305.134 151.63 305.376 150.838 305.86C150.046 306.344 149.375 307.026 148.825 307.906L146.053 305.398C146.581 304.672 147.186 304.023 147.868 303.451C148.572 302.879 149.386 302.428 150.31 302.098C151.256 301.746 152.378 301.57 153.676 301.57C155.216 301.57 156.569 301.823 157.735 302.329C158.923 302.813 159.847 303.506 160.507 304.408C161.167 305.288 161.497 306.344 161.497 307.576C161.497 309.05 161.057 310.238 160.177 311.14C159.319 312.02 158.285 312.581 157.075 312.823V313.021C157.977 313.175 158.791 313.494 159.517 313.978C160.243 314.44 160.815 315.056 161.233 315.826C161.673 316.596 161.893 317.531 161.893 318.631C161.893 319.973 161.53 321.161 160.804 322.195C160.1 323.207 159.11 323.999 157.834 324.571C156.58 325.121 155.106 325.396 153.412 325.396C151.916 325.396 150.651 325.198 149.617 324.802C148.583 324.406 147.714 323.878 147.01 323.218C146.306 322.558 145.712 321.854 145.228 321.106L148.429 318.664C148.957 319.588 149.595 320.347 150.343 320.941C151.113 321.535 152.136 321.832 153.412 321.832C154.688 321.832 155.667 321.524 156.349 320.908C157.031 320.27 157.372 319.423 157.372 318.367V318.136C157.372 317.08 156.998 316.277 156.25 315.727C155.502 315.177 154.446 314.902 153.082 314.902H150.805V311.272ZM173.991 325H170.163L186.135 301.966H189.963L173.991 325ZM171.747 314.638C170.515 314.638 169.47 314.396 168.612 313.912C167.776 313.406 167.127 312.669 166.665 311.701C166.225 310.733 166.005 309.534 166.005 308.104C166.005 306.674 166.225 305.475 166.665 304.507C167.127 303.539 167.776 302.813 168.612 302.329C169.47 301.823 170.515 301.57 171.747 301.57C172.979 301.57 174.013 301.823 174.849 302.329C175.707 302.813 176.356 303.539 176.796 304.507C177.236 305.475 177.456 306.674 177.456 308.104C177.456 309.534 177.236 310.733 176.796 311.701C176.356 312.669 175.707 313.406 174.849 313.912C174.013 314.396 172.979 314.638 171.747 314.638ZM171.747 312.13C172.187 312.13 172.561 312.02 172.869 311.8C173.177 311.58 173.408 311.239 173.562 310.777C173.716 310.315 173.793 309.721 173.793 308.995V307.213C173.793 306.487 173.716 305.893 173.562 305.431C173.408 304.969 173.177 304.628 172.869 304.408C172.561 304.188 172.187 304.078 171.747 304.078C171.285 304.078 170.9 304.188 170.592 304.408C170.306 304.628 170.086 304.969 169.932 305.431C169.778 305.893 169.701 306.487 169.701 307.213V308.995C169.701 309.721 169.778 310.315 169.932 310.777C170.086 311.239 170.306 311.58 170.592 311.8C170.9 312.02 171.285 312.13 171.747 312.13ZM188.379 325.396C187.169 325.396 186.135 325.154 185.277 324.67C184.419 324.164 183.77 323.427 183.33 322.459C182.89 321.491 182.67 320.292 182.67 318.862C182.67 317.432 182.89 316.233 183.33 315.265C183.77 314.297 184.419 313.571 185.277 313.087C186.135 312.581 187.169 312.328 188.379 312.328C189.611 312.328 190.645 312.581 191.481 313.087C192.339 313.571 192.988 314.297 193.428 315.265C193.89 316.233 194.121 317.432 194.121 318.862C194.121 320.292 193.89 321.491 193.428 322.459C192.988 323.427 192.339 324.164 191.481 324.67C190.645 325.154 189.611 325.396 188.379 325.396ZM188.379 322.888C188.841 322.888 189.215 322.778 189.501 322.558C189.809 322.338 190.04 321.997 190.194 321.535C190.348 321.073 190.425 320.479 190.425 319.753V317.971C190.425 317.245 190.348 316.651 190.194 316.189C190.04 315.727 189.809 315.386 189.501 315.166C189.215 314.946 188.841 314.836 188.379 314.836C187.939 314.836 187.565 314.946 187.257 315.166C186.949 315.386 186.718 315.727 186.564 316.189C186.41 316.651 186.333 317.245 186.333 317.971V319.753C186.333 320.479 186.41 321.073 186.564 321.535C186.718 321.997 186.949 322.338 187.257 322.558C187.565 322.778 187.939 322.888 188.379 322.888Z" fill="#680036"/>
<path d="M115.488 356V347.58H113.948V345.56H115.488V344.06C115.488 343.14 115.735 342.433 116.228 341.94C116.722 341.447 117.435 341.2 118.368 341.2H120.188V343.24H118.048V345.56H120.188V347.58H118.048V356H115.488ZM126.102 356.24C125.076 356.24 124.196 356.02 123.462 355.58C122.729 355.127 122.162 354.493 121.762 353.68C121.376 352.853 121.182 351.88 121.182 350.76C121.182 349.667 121.376 348.713 121.762 347.9C122.149 347.073 122.702 346.44 123.422 346C124.142 345.547 125.009 345.32 126.022 345.32C127.116 345.32 128.009 345.56 128.702 346.04C129.409 346.52 129.929 347.16 130.262 347.96C130.609 348.747 130.782 349.62 130.782 350.58V351.42H123.842V351.68C123.842 352.427 124.056 353.033 124.482 353.5C124.909 353.967 125.542 354.2 126.382 354.2C127.009 354.2 127.529 354.067 127.942 353.8C128.356 353.52 128.722 353.18 129.042 352.78L130.422 354.32C129.996 354.893 129.409 355.36 128.662 355.72C127.929 356.067 127.076 356.24 126.102 356.24ZM126.062 347.24C125.609 347.24 125.216 347.347 124.882 347.56C124.549 347.76 124.289 348.047 124.102 348.42C123.929 348.78 123.842 349.2 123.842 349.68V349.84H128.122V349.66C128.122 349.167 128.042 348.747 127.882 348.4C127.722 348.04 127.489 347.76 127.182 347.56C126.876 347.347 126.502 347.24 126.062 347.24ZM135.595 356H133.035V345.56H135.595V347.3H135.695C135.895 346.753 136.215 346.287 136.655 345.9C137.108 345.513 137.721 345.32 138.495 345.32C139.215 345.32 139.835 345.493 140.355 345.84C140.888 346.187 141.275 346.713 141.515 347.42H141.555C141.741 346.847 142.115 346.353 142.675 345.94C143.235 345.527 143.928 345.32 144.755 345.32C145.768 345.32 146.555 345.68 147.115 346.4C147.675 347.107 147.955 348.107 147.955 349.4V356H145.395V349.66C145.395 348.913 145.255 348.353 144.975 347.98C144.708 347.607 144.288 347.42 143.715 347.42C143.381 347.42 143.061 347.487 142.755 347.62C142.461 347.74 142.221 347.927 142.035 348.18C141.861 348.42 141.775 348.727 141.775 349.1V356H139.215V349.66C139.215 348.913 139.075 348.353 138.795 347.98C138.515 347.607 138.095 347.42 137.535 347.42C137.215 347.42 136.901 347.487 136.595 347.62C136.301 347.74 136.061 347.927 135.875 348.18C135.688 348.42 135.595 348.727 135.595 349.1V356ZM159.889 356H158.469C158.082 356 157.735 355.913 157.429 355.74C157.135 355.553 156.902 355.287 156.729 354.94C156.569 354.593 156.489 354.187 156.489 353.72V353.5L157.129 354.2H156.409C156.235 354.867 155.875 355.373 155.329 355.72C154.795 356.067 154.142 356.24 153.369 356.24C152.302 356.24 151.482 355.96 150.909 355.4C150.335 354.827 150.049 354.08 150.049 353.16C150.049 352.44 150.222 351.847 150.569 351.38C150.929 350.913 151.442 350.56 152.109 350.32C152.775 350.08 153.575 349.96 154.509 349.96H156.289V349.2C156.289 348.627 156.135 348.18 155.829 347.86C155.522 347.527 155.029 347.36 154.349 347.36C153.749 347.36 153.262 347.493 152.889 347.76C152.529 348.013 152.222 348.32 151.969 348.68L150.449 347.32C150.835 346.72 151.349 346.24 151.989 345.88C152.629 345.507 153.475 345.32 154.529 345.32C155.929 345.32 156.995 345.647 157.729 346.3C158.475 346.94 158.849 347.853 158.849 349.04V353.96H159.889V356ZM156.289 351.5H154.649C153.982 351.5 153.482 351.613 153.149 351.84C152.815 352.053 152.649 352.367 152.649 352.78V353.12C152.649 353.533 152.789 353.847 153.069 354.06C153.349 354.273 153.735 354.38 154.229 354.38C154.615 354.38 154.962 354.327 155.269 354.22C155.575 354.1 155.822 353.927 156.009 353.7C156.195 353.473 156.289 353.2 156.289 352.88V351.5ZM165.9 356H164.52C163.654 356 163.007 355.78 162.58 355.34C162.167 354.9 161.96 354.28 161.96 353.48V341.2H164.52V353.96H165.9V356ZM172.059 356.24C171.033 356.24 170.153 356.02 169.419 355.58C168.686 355.127 168.119 354.493 167.719 353.68C167.333 352.853 167.139 351.88 167.139 350.76C167.139 349.667 167.333 348.713 167.719 347.9C168.106 347.073 168.659 346.44 169.379 346C170.099 345.547 170.966 345.32 171.979 345.32C173.073 345.32 173.966 345.56 174.659 346.04C175.366 346.52 175.886 347.16 176.219 347.96C176.566 348.747 176.739 349.62 176.739 350.58V351.42H169.799V351.68C169.799 352.427 170.013 353.033 170.439 353.5C170.866 353.967 171.499 354.2 172.339 354.2C172.966 354.2 173.486 354.067 173.899 353.8C174.313 353.52 174.679 353.18 174.999 352.78L176.379 354.32C175.953 354.893 175.366 355.36 174.619 355.72C173.886 356.067 173.033 356.24 172.059 356.24ZM172.019 347.24C171.566 347.24 171.173 347.347 170.839 347.56C170.506 347.76 170.246 348.047 170.059 348.42C169.886 348.78 169.799 349.2 169.799 349.68V349.84H174.079V349.66C174.079 349.167 173.999 348.747 173.839 348.4C173.679 348.04 173.446 347.76 173.139 347.56C172.833 347.347 172.459 347.24 172.019 347.24Z" fill="#680036"/>
<path d="M487.061 356H484.501V345.56H487.061V347.3H487.161C487.361 346.753 487.681 346.287 488.121 345.9C488.575 345.513 489.188 345.32 489.961 345.32C490.681 345.32 491.301 345.493 491.821 345.84C492.355 346.187 492.741 346.713 492.981 347.42H493.021C493.208 346.847 493.581 346.353 494.141 345.94C494.701 345.527 495.395 345.32 496.221 345.32C497.235 345.32 498.021 345.68 498.581 346.4C499.141 347.107 499.421 348.107 499.421 349.4V356H496.861V349.66C496.861 348.913 496.721 348.353 496.441 347.98C496.175 347.607 495.755 347.42 495.181 347.42C494.848 347.42 494.528 347.487 494.221 347.62C493.928 347.74 493.688 347.927 493.501 348.18C493.328 348.42 493.241 348.727 493.241 349.1V356H490.681V349.66C490.681 348.913 490.541 348.353 490.261 347.98C489.981 347.607 489.561 347.42 489.001 347.42C488.681 347.42 488.368 347.487 488.061 347.62C487.768 347.74 487.528 347.927 487.341 348.18C487.155 348.42 487.061 348.727 487.061 349.1V356ZM511.355 356H509.935C509.549 356 509.202 355.913 508.895 355.74C508.602 355.553 508.369 355.287 508.195 354.94C508.035 354.593 507.955 354.187 507.955 353.72V353.5L508.595 354.2H507.875C507.702 354.867 507.342 355.373 506.795 355.72C506.262 356.067 505.609 356.24 504.835 356.24C503.769 356.24 502.949 355.96 502.375 355.4C501.802 354.827 501.515 354.08 501.515 353.16C501.515 352.44 501.689 351.847 502.035 351.38C502.395 350.913 502.909 350.56 503.575 350.32C504.242 350.08 505.042 349.96 505.975 349.96H507.755V349.2C507.755 348.627 507.602 348.18 507.295 347.86C506.989 347.527 506.495 347.36 505.815 347.36C505.215 347.36 504.729 347.493 504.355 347.76C503.995 348.013 503.689 348.32 503.435 348.68L501.915 347.32C502.302 346.72 502.815 346.24 503.455 345.88C504.095 345.507 504.942 345.32 505.995 345.32C507.395 345.32 508.462 345.647 509.195 346.3C509.942 346.94 510.315 347.853 510.315 349.04V353.96H511.355V356ZM507.755 351.5H506.115C505.449 351.5 504.949 351.613 504.615 351.84C504.282 352.053 504.115 352.367 504.115 352.78V353.12C504.115 353.533 504.255 353.847 504.535 354.06C504.815 354.273 505.202 354.38 505.695 354.38C506.082 354.38 506.429 354.327 506.735 354.22C507.042 354.1 507.289 353.927 507.475 353.7C507.662 353.473 507.755 353.2 507.755 352.88V351.5ZM517.367 356H515.987C515.121 356 514.474 355.78 514.047 355.34C513.634 354.9 513.427 354.28 513.427 353.48V341.2H515.987V353.96H517.367V356ZM523.526 356.24C522.5 356.24 521.62 356.02 520.886 355.58C520.153 355.127 519.586 354.493 519.186 353.68C518.8 352.853 518.606 351.88 518.606 350.76C518.606 349.667 518.8 348.713 519.186 347.9C519.573 347.073 520.126 346.44 520.846 346C521.566 345.547 522.433 345.32 523.446 345.32C524.54 345.32 525.433 345.56 526.126 346.04C526.833 346.52 527.353 347.16 527.686 347.96C528.033 348.747 528.206 349.62 528.206 350.58V351.42H521.266V351.68C521.266 352.427 521.48 353.033 521.906 353.5C522.333 353.967 522.966 354.2 523.806 354.2C524.433 354.2 524.953 354.067 525.366 353.8C525.78 353.52 526.146 353.18 526.466 352.78L527.846 354.32C527.42 354.893 526.833 355.36 526.086 355.72C525.353 356.067 524.5 356.24 523.526 356.24ZM523.486 347.24C523.033 347.24 522.64 347.347 522.306 347.56C521.973 347.76 521.713 348.047 521.526 348.42C521.353 348.78 521.266 349.2 521.266 349.68V349.84H525.546V349.66C525.546 349.167 525.466 348.747 525.306 348.4C525.146 348.04 524.913 347.76 524.606 347.56C524.3 347.347 523.926 347.24 523.486 347.24Z" fill="#000A55"/>
</svg>
