<svg width="649" height="643" viewBox="0 0 649 643" fill="none" xmlns="http://www.w3.org/2000/svg">
<g clip-path="url(#clip0_190_198)">
<circle cx="325" cy="322" r="102" fill="#E5E4E2"/>
<path d="M285.047 326.566C280.652 326.566 277.176 324.418 275.223 320.297C274.188 318.129 273.66 315.434 273.66 312.23C273.66 302.836 277.957 297.23 285.125 297.23C289.422 297.23 292.703 299.105 294.109 301.781C294.422 302.348 294.559 302.836 294.559 303.383C294.559 304.535 293.738 305.414 292.41 305.414C291.414 305.414 290.789 304.945 290.008 303.949C288.699 302.152 287.195 301.332 285.105 301.332C280.848 301.332 278.582 305.258 278.484 311.742V312.035H278.582C279.695 309.438 282.508 307.484 286.336 307.484C291.766 307.484 295.574 311.391 295.574 316.723C295.574 322.445 291.141 326.566 285.047 326.566ZM284.969 322.465C288.113 322.465 290.613 320.004 290.613 316.918C290.633 313.676 288.27 311.371 285.027 311.371C281.785 311.371 279.344 313.676 279.344 316.82C279.344 319.984 281.824 322.465 284.969 322.465ZM302.215 321.039C303.523 321.039 304.402 321.801 304.402 323.031C304.402 323.402 304.363 323.754 304.246 324.164L302.586 330.785C302.312 331.938 301.727 332.465 300.574 332.465C299.422 332.465 298.699 331.723 298.758 330.668C298.758 330.473 298.777 330.336 298.797 330.258L299.93 323.07C300.145 321.645 300.945 321.039 302.215 321.039ZM319.969 326.566C313.016 326.566 308.875 320.922 308.875 311.879C308.875 302.875 313.055 297.25 319.969 297.25C326.863 297.25 331.023 302.836 331.023 311.859C331.023 320.883 326.902 326.566 319.969 326.566ZM319.969 322.445C323.777 322.445 325.945 318.559 325.945 311.879C325.945 305.277 323.738 301.371 319.969 301.371C316.18 301.371 313.953 305.297 313.953 311.859C313.953 318.539 316.141 322.445 319.969 322.445ZM338.875 326.391C337.469 326.391 336.57 325.531 336.57 324.34C336.57 323.754 336.707 323.324 337 322.738L347.957 302.035V301.938H335.242C333.992 301.938 333.094 301.117 333.094 299.867C333.094 298.617 333.992 297.816 335.242 297.816H350.047C351.844 297.816 353.074 298.871 353.074 300.648C353.074 301.566 352.781 302.348 352.098 303.676L341.141 324.926C340.594 326 339.969 326.391 338.875 326.391ZM367 326.566C362.664 326.566 358.914 324.496 357.527 321.43C357.254 320.824 357.078 320.238 357.078 319.516C357.078 318.207 357.918 317.387 359.246 317.387C360.301 317.387 360.945 317.797 361.473 318.832C362.43 321.117 364.305 322.465 367.02 322.465C370.359 322.465 372.723 320.102 372.723 316.762C372.723 313.52 370.359 311.215 367.039 311.215C365.262 311.215 363.719 311.938 362.645 312.992C361.473 314.164 360.984 314.418 359.832 314.418C358.211 314.418 357.41 313.266 357.449 311.898C357.449 311.781 357.449 311.703 357.469 311.586L358.367 300.941C358.543 298.715 359.676 297.816 361.883 297.816H374.031C375.32 297.816 376.16 298.637 376.16 299.867C376.16 301.117 375.32 301.938 374.031 301.938H362.645L361.902 310.277H362C363.191 308.52 365.516 307.426 368.348 307.426C373.738 307.426 377.586 311.234 377.586 316.625C377.586 322.523 373.25 326.566 367 326.566Z" fill="#000A55"/>
<path d="M252.041 357H250.201C249.321 357 248.648 356.773 248.181 356.32C247.728 355.853 247.501 355.193 247.501 354.34V348.58H245.961V346.56H246.761C247.148 346.56 247.408 346.473 247.541 346.3C247.688 346.113 247.761 345.84 247.761 345.48V343.7H250.061V346.56H252.201V348.58H250.061V354.96H252.041V357ZM258.483 357.24C257.497 357.24 256.637 357.02 255.903 356.58C255.183 356.127 254.623 355.493 254.223 354.68C253.837 353.853 253.643 352.88 253.643 351.76C253.643 350.64 253.837 349.68 254.223 348.88C254.623 348.067 255.183 347.44 255.903 347C256.637 346.547 257.497 346.32 258.483 346.32C259.483 346.32 260.343 346.547 261.063 347C261.797 347.44 262.357 348.067 262.743 348.88C263.143 349.68 263.343 350.64 263.343 351.76C263.343 352.88 263.143 353.853 262.743 354.68C262.357 355.493 261.797 356.127 261.063 356.58C260.343 357.02 259.483 357.24 258.483 357.24ZM258.483 355.18C259.163 355.18 259.697 354.973 260.083 354.56C260.47 354.133 260.663 353.527 260.663 352.74V350.8C260.663 350.013 260.47 349.413 260.083 349C259.697 348.587 259.163 348.38 258.483 348.38C257.83 348.38 257.303 348.587 256.903 349C256.517 349.413 256.323 350.013 256.323 350.8V352.74C256.323 353.527 256.517 354.133 256.903 354.56C257.303 354.973 257.83 355.18 258.483 355.18ZM270.635 357H268.795C267.915 357 267.241 356.773 266.775 356.32C266.321 355.853 266.095 355.193 266.095 354.34V348.58H264.555V346.56H265.355C265.741 346.56 266.001 346.473 266.135 346.3C266.281 346.113 266.355 345.84 266.355 345.48V343.7H268.655V346.56H270.795V348.58H268.655V354.96H270.635V357ZM282.115 357H280.695C280.308 357 279.962 356.913 279.655 356.74C279.362 356.553 279.128 356.287 278.955 355.94C278.795 355.593 278.715 355.187 278.715 354.72V354.5L279.355 355.2H278.635C278.462 355.867 278.102 356.373 277.555 356.72C277.022 357.067 276.368 357.24 275.595 357.24C274.528 357.24 273.708 356.96 273.135 356.4C272.562 355.827 272.275 355.08 272.275 354.16C272.275 353.44 272.448 352.847 272.795 352.38C273.155 351.913 273.668 351.56 274.335 351.32C275.002 351.08 275.802 350.96 276.735 350.96H278.515V350.2C278.515 349.627 278.362 349.18 278.055 348.86C277.748 348.527 277.255 348.36 276.575 348.36C275.975 348.36 275.488 348.493 275.115 348.76C274.755 349.013 274.448 349.32 274.195 349.68L272.675 348.32C273.062 347.72 273.575 347.24 274.215 346.88C274.855 346.507 275.702 346.32 276.755 346.32C278.155 346.32 279.222 346.647 279.955 347.3C280.702 347.94 281.075 348.853 281.075 350.04V354.96H282.115V357ZM278.515 352.5H276.875C276.208 352.5 275.708 352.613 275.375 352.84C275.042 353.053 274.875 353.367 274.875 353.78V354.12C274.875 354.533 275.015 354.847 275.295 355.06C275.575 355.273 275.962 355.38 276.455 355.38C276.842 355.38 277.188 355.327 277.495 355.22C277.802 355.1 278.048 354.927 278.235 354.7C278.422 354.473 278.515 354.2 278.515 353.88V352.5ZM288.127 357H286.747C285.88 357 285.234 356.78 284.807 356.34C284.394 355.9 284.187 355.28 284.187 354.48V342.2H286.747V354.96H288.127V357ZM294.793 361V346.56H297.353V348.28H297.433C297.619 347.68 297.973 347.207 298.493 346.86C299.026 346.5 299.633 346.32 300.313 346.32C301.206 346.32 301.953 346.533 302.553 346.96C303.153 347.387 303.613 348.007 303.933 348.82C304.253 349.62 304.413 350.6 304.413 351.76C304.413 352.92 304.253 353.913 303.933 354.74C303.613 355.553 303.153 356.173 302.553 356.6C301.953 357.027 301.206 357.24 300.313 357.24C299.633 357.24 299.033 357.06 298.513 356.7C297.993 356.34 297.633 355.86 297.433 355.26H297.353V361H294.793ZM299.493 355.12C300.159 355.12 300.699 354.9 301.113 354.46C301.526 354.007 301.733 353.413 301.733 352.68V350.88C301.733 350.133 301.526 349.54 301.113 349.1C300.699 348.647 300.159 348.42 299.493 348.42C299.093 348.42 298.726 348.493 298.393 348.64C298.073 348.773 297.819 348.967 297.633 349.22C297.446 349.473 297.353 349.767 297.353 350.1V353.42C297.353 353.78 297.446 354.087 297.633 354.34C297.819 354.593 298.073 354.787 298.393 354.92C298.726 355.053 299.093 355.12 299.493 355.12ZM315.885 357H314.465C314.078 357 313.731 356.913 313.425 356.74C313.131 356.553 312.898 356.287 312.725 355.94C312.565 355.593 312.485 355.187 312.485 354.72V354.5L313.125 355.2H312.405C312.231 355.867 311.871 356.373 311.325 356.72C310.791 357.067 310.138 357.24 309.365 357.24C308.298 357.24 307.478 356.96 306.905 356.4C306.331 355.827 306.045 355.08 306.045 354.16C306.045 353.44 306.218 352.847 306.565 352.38C306.925 351.913 307.438 351.56 308.105 351.32C308.771 351.08 309.571 350.96 310.505 350.96H312.285V350.2C312.285 349.627 312.131 349.18 311.825 348.86C311.518 348.527 311.025 348.36 310.345 348.36C309.745 348.36 309.258 348.493 308.885 348.76C308.525 349.013 308.218 349.32 307.965 349.68L306.445 348.32C306.831 347.72 307.345 347.24 307.985 346.88C308.625 346.507 309.471 346.32 310.525 346.32C311.925 346.32 312.991 346.647 313.725 347.3C314.471 347.94 314.845 348.853 314.845 350.04V354.96H315.885V357ZM312.285 352.5H310.645C309.978 352.5 309.478 352.613 309.145 352.84C308.811 353.053 308.645 353.367 308.645 353.78V354.12C308.645 354.533 308.785 354.847 309.065 355.06C309.345 355.273 309.731 355.38 310.225 355.38C310.611 355.38 310.958 355.327 311.265 355.22C311.571 355.1 311.818 354.927 312.005 354.7C312.191 354.473 312.285 354.2 312.285 353.88V352.5ZM320.517 357H317.957V346.56H320.517V348.72H320.617C320.71 348.347 320.863 348 321.077 347.68C321.303 347.347 321.603 347.08 321.977 346.88C322.363 346.667 322.83 346.56 323.377 346.56H323.937V348.98H323.137C322.563 348.98 322.077 349.04 321.677 349.16C321.29 349.267 320.997 349.44 320.797 349.68C320.61 349.907 320.517 350.213 320.517 350.6V357ZM330.986 357H329.146C328.266 357 327.593 356.773 327.126 356.32C326.673 355.853 326.446 355.193 326.446 354.34V348.58H324.906V346.56H325.706C326.093 346.56 326.353 346.473 326.486 346.3C326.633 346.113 326.706 345.84 326.706 345.48V343.7H329.006V346.56H331.146V348.58H329.006V354.96H330.986V357ZM334.647 345.04C334.127 345.04 333.747 344.92 333.507 344.68C333.267 344.427 333.147 344.12 333.147 343.76V343.36C333.147 342.987 333.267 342.68 333.507 342.44C333.747 342.2 334.127 342.08 334.647 342.08C335.167 342.08 335.547 342.2 335.787 342.44C336.027 342.68 336.147 342.987 336.147 343.36V343.76C336.147 344.12 336.027 344.427 335.787 344.68C335.547 344.92 335.167 345.04 334.647 345.04ZM333.367 357V346.56H335.927V357H333.367ZM342.995 357.24C341.448 357.24 340.255 356.747 339.415 355.76C338.588 354.773 338.175 353.44 338.175 351.76C338.175 350.093 338.588 348.773 339.415 347.8C340.255 346.813 341.448 346.32 342.995 346.32C344.048 346.32 344.915 346.553 345.595 347.02C346.288 347.487 346.788 348.133 347.095 348.96L344.995 349.9C344.875 349.46 344.648 349.1 344.315 348.82C343.981 348.527 343.541 348.38 342.995 348.38C342.288 348.38 341.755 348.607 341.395 349.06C341.035 349.5 340.855 350.093 340.855 350.84V352.74C340.855 353.46 341.035 354.047 341.395 354.5C341.755 354.953 342.288 355.18 342.995 355.18C343.595 355.18 344.061 355.027 344.395 354.72C344.741 354.4 345.008 354.007 345.195 353.54L347.155 354.48C346.821 355.4 346.295 356.093 345.575 356.56C344.868 357.013 344.008 357.24 342.995 357.24ZM350.408 345.04C349.888 345.04 349.508 344.92 349.268 344.68C349.028 344.427 348.908 344.12 348.908 343.76V343.36C348.908 342.987 349.028 342.68 349.268 342.44C349.508 342.2 349.888 342.08 350.408 342.08C350.928 342.08 351.308 342.2 351.548 342.44C351.788 342.68 351.908 342.987 351.908 343.36V343.76C351.908 344.12 351.788 344.427 351.548 344.68C351.308 344.92 350.928 345.04 350.408 345.04ZM349.128 357V346.56H351.688V357H349.128ZM354.636 361V346.56H357.196V348.28H357.276C357.463 347.68 357.816 347.207 358.336 346.86C358.87 346.5 359.476 346.32 360.156 346.32C361.05 346.32 361.796 346.533 362.396 346.96C362.996 347.387 363.456 348.007 363.776 348.82C364.096 349.62 364.256 350.6 364.256 351.76C364.256 352.92 364.096 353.913 363.776 354.74C363.456 355.553 362.996 356.173 362.396 356.6C361.796 357.027 361.05 357.24 360.156 357.24C359.476 357.24 358.876 357.06 358.356 356.7C357.836 356.34 357.476 355.86 357.276 355.26H357.196V361H354.636ZM359.336 355.12C360.003 355.12 360.543 354.9 360.956 354.46C361.37 354.007 361.576 353.413 361.576 352.68V350.88C361.576 350.133 361.37 349.54 360.956 349.1C360.543 348.647 360.003 348.42 359.336 348.42C358.936 348.42 358.57 348.493 358.236 348.64C357.916 348.773 357.663 348.967 357.476 349.22C357.29 349.473 357.196 349.767 357.196 350.1V353.42C357.196 353.78 357.29 354.087 357.476 354.34C357.663 354.593 357.916 354.787 358.236 354.92C358.57 355.053 358.936 355.12 359.336 355.12ZM375.728 357H374.308C373.922 357 373.575 356.913 373.268 356.74C372.975 356.553 372.742 356.287 372.568 355.94C372.408 355.593 372.328 355.187 372.328 354.72V354.5L372.968 355.2H372.248C372.075 355.867 371.715 356.373 371.168 356.72C370.635 357.067 369.982 357.24 369.208 357.24C368.142 357.24 367.322 356.96 366.748 356.4C366.175 355.827 365.888 355.08 365.888 354.16C365.888 353.44 366.062 352.847 366.408 352.38C366.768 351.913 367.282 351.56 367.948 351.32C368.615 351.08 369.415 350.96 370.348 350.96H372.128V350.2C372.128 349.627 371.975 349.18 371.668 348.86C371.362 348.527 370.868 348.36 370.188 348.36C369.588 348.36 369.102 348.493 368.728 348.76C368.368 349.013 368.062 349.32 367.808 349.68L366.288 348.32C366.675 347.72 367.188 347.24 367.828 346.88C368.468 346.507 369.315 346.32 370.368 346.32C371.768 346.32 372.835 346.647 373.568 347.3C374.315 347.94 374.688 348.853 374.688 350.04V354.96H375.728V357ZM372.128 352.5H370.488C369.822 352.5 369.322 352.613 368.988 352.84C368.655 353.053 368.488 353.367 368.488 353.78V354.12C368.488 354.533 368.628 354.847 368.908 355.06C369.188 355.273 369.575 355.38 370.068 355.38C370.455 355.38 370.802 355.327 371.108 355.22C371.415 355.1 371.662 354.927 371.848 354.7C372.035 354.473 372.128 354.2 372.128 353.88V352.5ZM380.36 357H377.8V346.56H380.36V348.3H380.46C380.674 347.74 381.007 347.273 381.46 346.9C381.927 346.513 382.567 346.32 383.38 346.32C384.447 346.32 385.267 346.68 385.84 347.4C386.427 348.107 386.72 349.107 386.72 350.4V357H384.16V350.66C384.16 349.927 384.027 349.373 383.76 349C383.494 348.613 383.054 348.42 382.44 348.42C382.094 348.42 381.76 348.487 381.44 348.62C381.12 348.74 380.86 348.927 380.66 349.18C380.46 349.42 380.36 349.727 380.36 350.1V357ZM394.658 357H392.818C391.938 357 391.265 356.773 390.798 356.32C390.345 355.853 390.118 355.193 390.118 354.34V348.58H388.578V346.56H389.378C389.765 346.56 390.025 346.473 390.158 346.3C390.305 346.113 390.378 345.84 390.378 345.48V343.7H392.678V346.56H394.818V348.58H392.678V354.96H394.658V357ZM400.459 357.24C399.459 357.24 398.619 357.073 397.939 356.74C397.259 356.393 396.659 355.92 396.139 355.32L397.699 353.8C398.085 354.24 398.505 354.587 398.959 354.84C399.425 355.093 399.959 355.22 400.559 355.22C401.172 355.22 401.612 355.113 401.879 354.9C402.159 354.687 402.299 354.393 402.299 354.02C402.299 353.713 402.199 353.473 401.999 353.3C401.812 353.113 401.485 352.987 401.019 352.92L399.979 352.78C399.232 352.687 398.599 352.513 398.079 352.26C397.559 352.007 397.165 351.66 396.899 351.22C396.632 350.78 396.499 350.247 396.499 349.62C396.499 348.607 396.859 347.807 397.579 347.22C398.312 346.62 399.272 346.32 400.459 346.32C401.139 346.32 401.719 346.387 402.199 346.52C402.692 346.64 403.125 346.827 403.499 347.08C403.872 347.32 404.219 347.613 404.539 347.96L403.039 349.46C402.732 349.14 402.365 348.873 401.939 348.66C401.512 348.447 401.045 348.34 400.539 348.34C400.005 348.34 399.605 348.44 399.339 348.64C399.085 348.827 398.959 349.087 398.959 349.42C398.959 349.767 399.059 350.033 399.259 350.22C399.472 350.393 399.825 350.52 400.319 350.6L401.379 350.74C402.525 350.9 403.372 351.24 403.919 351.76C404.479 352.267 404.759 352.953 404.759 353.82C404.759 354.487 404.579 355.08 404.219 355.6C403.872 356.12 403.372 356.527 402.719 356.82C402.079 357.1 401.325 357.24 400.459 357.24Z" fill="#000A55"/>
</g>
<defs>
<clipPath id="clip0_190_198">
<rect width="204" height="204" fill="white" transform="translate(223 220)"/>
</clipPath>
</defs>
</svg>
