<svg width="649" height="643" viewBox="0 0 649 643" fill="none" xmlns="http://www.w3.org/2000/svg">
<g clip-path="url(#clip0_183_183)">
<path d="M646 321C646 498.836 501.836 643 324 643C146.164 643 2 498.836 2 321C2 143.164 146.164 -1 324 -1C501.836 -1 646 143.164 646 321ZM221.947 321C221.947 377.362 267.638 423.053 324 423.053C380.362 423.053 426.053 377.362 426.053 321C426.053 264.638 380.362 218.947 324 218.947C267.638 218.947 221.947 264.638 221.947 321Z" fill="#E5E4E2"/>
<path d="M117.765 115.68C110.016 107.808 110.076 95.0909 118.421 87.8537C169.452 43.5936 233.325 16.8035 300.661 11.4182C311.671 10.5376 320.786 19.4069 320.97 30.4511L322.222 105.5C322.407 116.545 313.579 125.545 302.607 126.821C264.808 131.22 229.008 146.235 199.38 170.117C190.781 177.049 178.174 177.039 170.425 169.168L117.765 115.68Z" fill="#E186C2"/>
<path d="M51.2272 217.7C40.8687 213.865 35.5221 202.328 40.0035 192.232C51.5655 166.185 66.5909 141.816 84.6717 119.789C91.6798 111.251 104.39 110.847 112.468 118.38L168.725 170.836C176.803 178.369 177.155 190.97 170.467 199.761C162.573 210.138 155.713 221.262 149.987 232.976C145.135 242.899 133.719 248.244 123.36 244.408L51.2272 217.7Z" fill="#E186C2"/>
<path d="M43.7319 383.003C33.0113 385.333 22.3494 378.597 20.5789 367.77C13.3577 323.611 15.4426 278.557 26.6916 235.598C29.5328 224.748 41.1953 219.108 51.7583 222.879L121.455 247.763C131.698 251.42 137.035 262.579 134.626 273.185C129.417 296.119 128.261 319.876 131.211 343.356C132.598 354.39 125.847 365.162 114.979 367.523L43.7319 383.003Z" fill="#E186C2"/>
<path d="M611.566 360.691C622.505 362.223 630.196 372.351 627.961 383.169C622.687 408.706 614.209 433.476 602.731 456.89C597.869 466.808 585.585 470.1 576.001 464.608L512.931 428.468C503.347 422.976 500.132 410.787 504.625 400.697C509.396 389.981 513.202 378.86 515.997 367.467C518.629 356.74 528.638 349.077 539.577 350.609L611.566 360.691Z" fill="#6AAFD1"/>
<path d="M428.996 589.874C432.978 600.177 427.869 611.823 417.331 615.133C381.088 626.514 343.004 631.152 304.978 628.754C266.952 626.355 229.753 616.968 195.228 601.123C185.189 596.515 181.584 584.319 186.829 574.599L221.231 510.843C226.476 501.123 238.579 497.598 248.78 501.833C268.874 510.175 290.252 515.157 312.057 516.532C333.862 517.908 355.697 515.652 376.679 509.9C387.332 506.981 398.896 511.998 402.878 522.301L428.996 589.874Z" fill="#6AAFD1"/>
<path d="M573.152 468.478C582.627 474.155 585.758 486.481 579.481 495.571C549.039 539.657 507.675 575.104 459.447 598.436C449.504 603.247 437.802 598.265 433.643 588.032L406.703 521.753C402.544 511.52 407.528 499.941 417.29 494.773C443.292 481.007 465.911 461.623 483.497 438.035C490.099 429.18 502.305 426.028 511.78 431.705L573.152 468.478Z" fill="#6AAFD1"/>
<path d="M183.796 570.131C178.204 579.656 165.909 582.897 156.747 576.727C127.179 556.817 101.084 532.144 79.6009 503.72C58.2484 475.469 41.8148 443.994 30.9445 410.632C27.4698 399.968 34.2341 388.919 45.1596 386.383L114.875 370.201C125.469 367.742 135.992 374.245 139.686 384.475C146.635 403.714 156.489 421.89 168.94 438.364C181.344 454.775 196.135 469.245 212.785 481.303C221.731 487.782 224.988 499.962 219.396 509.487L183.796 570.131Z" fill="#E186C2"/>
<path d="M287.047 326.566C282.652 326.566 279.176 324.418 277.223 320.297C276.188 318.129 275.66 315.434 275.66 312.23C275.66 302.836 279.957 297.23 287.125 297.23C291.422 297.23 294.703 299.105 296.109 301.781C296.422 302.348 296.559 302.836 296.559 303.383C296.559 304.535 295.738 305.414 294.41 305.414C293.414 305.414 292.789 304.945 292.008 303.949C290.699 302.152 289.195 301.332 287.105 301.332C282.848 301.332 280.582 305.258 280.484 311.742V312.035H280.582C281.695 309.438 284.508 307.484 288.336 307.484C293.766 307.484 297.574 311.391 297.574 316.723C297.574 322.445 293.141 326.566 287.047 326.566ZM286.969 322.465C290.113 322.465 292.613 320.004 292.613 316.918C292.633 313.676 290.27 311.371 287.027 311.371C283.785 311.371 281.344 313.676 281.344 316.82C281.344 319.984 283.824 322.465 286.969 322.465ZM304.215 321.039C305.523 321.039 306.402 321.801 306.402 323.031C306.402 323.402 306.363 323.754 306.246 324.164L304.586 330.785C304.312 331.938 303.727 332.465 302.574 332.465C301.422 332.465 300.699 331.723 300.758 330.668C300.758 330.473 300.777 330.336 300.797 330.258L301.93 323.07C302.145 321.645 302.945 321.039 304.215 321.039ZM321.969 326.566C315.016 326.566 310.875 320.922 310.875 311.879C310.875 302.875 315.055 297.25 321.969 297.25C328.863 297.25 333.023 302.836 333.023 311.859C333.023 320.883 328.902 326.566 321.969 326.566ZM321.969 322.445C325.777 322.445 327.945 318.559 327.945 311.879C327.945 305.277 325.738 301.371 321.969 301.371C318.18 301.371 315.953 305.297 315.953 311.859C315.953 318.539 318.141 322.445 321.969 322.445ZM340.875 326.391C339.469 326.391 338.57 325.531 338.57 324.34C338.57 323.754 338.707 323.324 339 322.738L349.957 302.035V301.938H337.242C335.992 301.938 335.094 301.117 335.094 299.867C335.094 298.617 335.992 297.816 337.242 297.816H352.047C353.844 297.816 355.074 298.871 355.074 300.648C355.074 301.566 354.781 302.348 354.098 303.676L343.141 324.926C342.594 326 341.969 326.391 340.875 326.391ZM369 326.566C364.664 326.566 360.914 324.496 359.527 321.43C359.254 320.824 359.078 320.238 359.078 319.516C359.078 318.207 359.918 317.387 361.246 317.387C362.301 317.387 362.945 317.797 363.473 318.832C364.43 321.117 366.305 322.465 369.02 322.465C372.359 322.465 374.723 320.102 374.723 316.762C374.723 313.52 372.359 311.215 369.039 311.215C367.262 311.215 365.719 311.938 364.645 312.992C363.473 314.164 362.984 314.418 361.832 314.418C360.211 314.418 359.41 313.266 359.449 311.898C359.449 311.781 359.449 311.703 359.469 311.586L360.367 300.941C360.543 298.715 361.676 297.816 363.883 297.816H376.031C377.32 297.816 378.16 298.637 378.16 299.867C378.16 301.117 377.32 301.938 376.031 301.938H364.645L363.902 310.277H364C365.191 308.52 367.516 307.426 370.348 307.426C375.738 307.426 379.586 311.234 379.586 316.625C379.586 322.523 375.25 326.566 369 326.566Z" fill="#000A55" fill-opacity="0.55"/>
<path d="M254.541 355H252.701C251.821 355 251.148 354.773 250.681 354.32C250.228 353.853 250.001 353.193 250.001 352.34V346.58H248.461V344.56H249.261C249.648 344.56 249.908 344.473 250.041 344.3C250.188 344.113 250.261 343.84 250.261 343.48V341.7H252.561V344.56H254.701V346.58H252.561V352.96H254.541V355ZM260.983 355.24C259.997 355.24 259.137 355.02 258.403 354.58C257.683 354.127 257.123 353.493 256.723 352.68C256.337 351.853 256.143 350.88 256.143 349.76C256.143 348.64 256.337 347.68 256.723 346.88C257.123 346.067 257.683 345.44 258.403 345C259.137 344.547 259.997 344.32 260.983 344.32C261.983 344.32 262.843 344.547 263.563 345C264.297 345.44 264.857 346.067 265.243 346.88C265.643 347.68 265.843 348.64 265.843 349.76C265.843 350.88 265.643 351.853 265.243 352.68C264.857 353.493 264.297 354.127 263.563 354.58C262.843 355.02 261.983 355.24 260.983 355.24ZM260.983 353.18C261.663 353.18 262.197 352.973 262.583 352.56C262.97 352.133 263.163 351.527 263.163 350.74V348.8C263.163 348.013 262.97 347.413 262.583 347C262.197 346.587 261.663 346.38 260.983 346.38C260.33 346.38 259.803 346.587 259.403 347C259.017 347.413 258.823 348.013 258.823 348.8V350.74C258.823 351.527 259.017 352.133 259.403 352.56C259.803 352.973 260.33 353.18 260.983 353.18ZM273.135 355H271.295C270.415 355 269.741 354.773 269.275 354.32C268.821 353.853 268.595 353.193 268.595 352.34V346.58H267.055V344.56H267.855C268.241 344.56 268.501 344.473 268.635 344.3C268.781 344.113 268.855 343.84 268.855 343.48V341.7H271.155V344.56H273.295V346.58H271.155V352.96H273.135V355ZM284.615 355H283.195C282.808 355 282.462 354.913 282.155 354.74C281.862 354.553 281.628 354.287 281.455 353.94C281.295 353.593 281.215 353.187 281.215 352.72V352.5L281.855 353.2H281.135C280.962 353.867 280.602 354.373 280.055 354.72C279.522 355.067 278.868 355.24 278.095 355.24C277.028 355.24 276.208 354.96 275.635 354.4C275.062 353.827 274.775 353.08 274.775 352.16C274.775 351.44 274.948 350.847 275.295 350.38C275.655 349.913 276.168 349.56 276.835 349.32C277.502 349.08 278.302 348.96 279.235 348.96H281.015V348.2C281.015 347.627 280.862 347.18 280.555 346.86C280.248 346.527 279.755 346.36 279.075 346.36C278.475 346.36 277.988 346.493 277.615 346.76C277.255 347.013 276.948 347.32 276.695 347.68L275.175 346.32C275.562 345.72 276.075 345.24 276.715 344.88C277.355 344.507 278.202 344.32 279.255 344.32C280.655 344.32 281.722 344.647 282.455 345.3C283.202 345.94 283.575 346.853 283.575 348.04V352.96H284.615V355ZM281.015 350.5H279.375C278.708 350.5 278.208 350.613 277.875 350.84C277.542 351.053 277.375 351.367 277.375 351.78V352.12C277.375 352.533 277.515 352.847 277.795 353.06C278.075 353.273 278.462 353.38 278.955 353.38C279.342 353.38 279.688 353.327 279.995 353.22C280.302 353.1 280.548 352.927 280.735 352.7C280.922 352.473 281.015 352.2 281.015 351.88V350.5ZM290.627 355H289.247C288.38 355 287.734 354.78 287.307 354.34C286.894 353.9 286.687 353.28 286.687 352.48V340.2H289.247V352.96H290.627V355ZM297.293 359V344.56H299.853V346.28H299.933C300.119 345.68 300.473 345.207 300.993 344.86C301.526 344.5 302.133 344.32 302.813 344.32C303.706 344.32 304.453 344.533 305.053 344.96C305.653 345.387 306.113 346.007 306.433 346.82C306.753 347.62 306.913 348.6 306.913 349.76C306.913 350.92 306.753 351.913 306.433 352.74C306.113 353.553 305.653 354.173 305.053 354.6C304.453 355.027 303.706 355.24 302.813 355.24C302.133 355.24 301.533 355.06 301.013 354.7C300.493 354.34 300.133 353.86 299.933 353.26H299.853V359H297.293ZM301.993 353.12C302.659 353.12 303.199 352.9 303.613 352.46C304.026 352.007 304.233 351.413 304.233 350.68V348.88C304.233 348.133 304.026 347.54 303.613 347.1C303.199 346.647 302.659 346.42 301.993 346.42C301.593 346.42 301.226 346.493 300.893 346.64C300.573 346.773 300.319 346.967 300.133 347.22C299.946 347.473 299.853 347.767 299.853 348.1V351.42C299.853 351.78 299.946 352.087 300.133 352.34C300.319 352.593 300.573 352.787 300.893 352.92C301.226 353.053 301.593 353.12 301.993 353.12ZM318.385 355H316.965C316.578 355 316.231 354.913 315.925 354.74C315.631 354.553 315.398 354.287 315.225 353.94C315.065 353.593 314.985 353.187 314.985 352.72V352.5L315.625 353.2H314.905C314.731 353.867 314.371 354.373 313.825 354.72C313.291 355.067 312.638 355.24 311.865 355.24C310.798 355.24 309.978 354.96 309.405 354.4C308.831 353.827 308.545 353.08 308.545 352.16C308.545 351.44 308.718 350.847 309.065 350.38C309.425 349.913 309.938 349.56 310.605 349.32C311.271 349.08 312.071 348.96 313.005 348.96H314.785V348.2C314.785 347.627 314.631 347.18 314.325 346.86C314.018 346.527 313.525 346.36 312.845 346.36C312.245 346.36 311.758 346.493 311.385 346.76C311.025 347.013 310.718 347.32 310.465 347.68L308.945 346.32C309.331 345.72 309.845 345.24 310.485 344.88C311.125 344.507 311.971 344.32 313.025 344.32C314.425 344.32 315.491 344.647 316.225 345.3C316.971 345.94 317.345 346.853 317.345 348.04V352.96H318.385V355ZM314.785 350.5H313.145C312.478 350.5 311.978 350.613 311.645 350.84C311.311 351.053 311.145 351.367 311.145 351.78V352.12C311.145 352.533 311.285 352.847 311.565 353.06C311.845 353.273 312.231 353.38 312.725 353.38C313.111 353.38 313.458 353.327 313.765 353.22C314.071 353.1 314.318 352.927 314.505 352.7C314.691 352.473 314.785 352.2 314.785 351.88V350.5ZM323.017 355H320.457V344.56H323.017V346.72H323.117C323.21 346.347 323.363 346 323.577 345.68C323.803 345.347 324.103 345.08 324.477 344.88C324.863 344.667 325.33 344.56 325.877 344.56H326.437V346.98H325.637C325.063 346.98 324.577 347.04 324.177 347.16C323.79 347.267 323.497 347.44 323.297 347.68C323.11 347.907 323.017 348.213 323.017 348.6V355ZM333.486 355H331.646C330.766 355 330.093 354.773 329.626 354.32C329.173 353.853 328.946 353.193 328.946 352.34V346.58H327.406V344.56H328.206C328.593 344.56 328.853 344.473 328.986 344.3C329.133 344.113 329.206 343.84 329.206 343.48V341.7H331.506V344.56H333.646V346.58H331.506V352.96H333.486V355ZM337.147 343.04C336.627 343.04 336.247 342.92 336.007 342.68C335.767 342.427 335.647 342.12 335.647 341.76V341.36C335.647 340.987 335.767 340.68 336.007 340.44C336.247 340.2 336.627 340.08 337.147 340.08C337.667 340.08 338.047 340.2 338.287 340.44C338.527 340.68 338.647 340.987 338.647 341.36V341.76C338.647 342.12 338.527 342.427 338.287 342.68C338.047 342.92 337.667 343.04 337.147 343.04ZM335.867 355V344.56H338.427V355H335.867ZM345.495 355.24C343.948 355.24 342.755 354.747 341.915 353.76C341.088 352.773 340.675 351.44 340.675 349.76C340.675 348.093 341.088 346.773 341.915 345.8C342.755 344.813 343.948 344.32 345.495 344.32C346.548 344.32 347.415 344.553 348.095 345.02C348.788 345.487 349.288 346.133 349.595 346.96L347.495 347.9C347.375 347.46 347.148 347.1 346.815 346.82C346.481 346.527 346.041 346.38 345.495 346.38C344.788 346.38 344.255 346.607 343.895 347.06C343.535 347.5 343.355 348.093 343.355 348.84V350.74C343.355 351.46 343.535 352.047 343.895 352.5C344.255 352.953 344.788 353.18 345.495 353.18C346.095 353.18 346.561 353.027 346.895 352.72C347.241 352.4 347.508 352.007 347.695 351.54L349.655 352.48C349.321 353.4 348.795 354.093 348.075 354.56C347.368 355.013 346.508 355.24 345.495 355.24ZM352.908 343.04C352.388 343.04 352.008 342.92 351.768 342.68C351.528 342.427 351.408 342.12 351.408 341.76V341.36C351.408 340.987 351.528 340.68 351.768 340.44C352.008 340.2 352.388 340.08 352.908 340.08C353.428 340.08 353.808 340.2 354.048 340.44C354.288 340.68 354.408 340.987 354.408 341.36V341.76C354.408 342.12 354.288 342.427 354.048 342.68C353.808 342.92 353.428 343.04 352.908 343.04ZM351.628 355V344.56H354.188V355H351.628ZM357.136 359V344.56H359.696V346.28H359.776C359.963 345.68 360.316 345.207 360.836 344.86C361.37 344.5 361.976 344.32 362.656 344.32C363.55 344.32 364.296 344.533 364.896 344.96C365.496 345.387 365.956 346.007 366.276 346.82C366.596 347.62 366.756 348.6 366.756 349.76C366.756 350.92 366.596 351.913 366.276 352.74C365.956 353.553 365.496 354.173 364.896 354.6C364.296 355.027 363.55 355.24 362.656 355.24C361.976 355.24 361.376 355.06 360.856 354.7C360.336 354.34 359.976 353.86 359.776 353.26H359.696V359H357.136ZM361.836 353.12C362.503 353.12 363.043 352.9 363.456 352.46C363.87 352.007 364.076 351.413 364.076 350.68V348.88C364.076 348.133 363.87 347.54 363.456 347.1C363.043 346.647 362.503 346.42 361.836 346.42C361.436 346.42 361.07 346.493 360.736 346.64C360.416 346.773 360.163 346.967 359.976 347.22C359.79 347.473 359.696 347.767 359.696 348.1V351.42C359.696 351.78 359.79 352.087 359.976 352.34C360.163 352.593 360.416 352.787 360.736 352.92C361.07 353.053 361.436 353.12 361.836 353.12ZM378.228 355H376.808C376.422 355 376.075 354.913 375.768 354.74C375.475 354.553 375.242 354.287 375.068 353.94C374.908 353.593 374.828 353.187 374.828 352.72V352.5L375.468 353.2H374.748C374.575 353.867 374.215 354.373 373.668 354.72C373.135 355.067 372.482 355.24 371.708 355.24C370.642 355.24 369.822 354.96 369.248 354.4C368.675 353.827 368.388 353.08 368.388 352.16C368.388 351.44 368.562 350.847 368.908 350.38C369.268 349.913 369.782 349.56 370.448 349.32C371.115 349.08 371.915 348.96 372.848 348.96H374.628V348.2C374.628 347.627 374.475 347.18 374.168 346.86C373.862 346.527 373.368 346.36 372.688 346.36C372.088 346.36 371.602 346.493 371.228 346.76C370.868 347.013 370.562 347.32 370.308 347.68L368.788 346.32C369.175 345.72 369.688 345.24 370.328 344.88C370.968 344.507 371.815 344.32 372.868 344.32C374.268 344.32 375.335 344.647 376.068 345.3C376.815 345.94 377.188 346.853 377.188 348.04V352.96H378.228V355ZM374.628 350.5H372.988C372.322 350.5 371.822 350.613 371.488 350.84C371.155 351.053 370.988 351.367 370.988 351.78V352.12C370.988 352.533 371.128 352.847 371.408 353.06C371.688 353.273 372.075 353.38 372.568 353.38C372.955 353.38 373.302 353.327 373.608 353.22C373.915 353.1 374.162 352.927 374.348 352.7C374.535 352.473 374.628 352.2 374.628 351.88V350.5ZM382.86 355H380.3V344.56H382.86V346.3H382.96C383.174 345.74 383.507 345.273 383.96 344.9C384.427 344.513 385.067 344.32 385.88 344.32C386.947 344.32 387.767 344.68 388.34 345.4C388.927 346.107 389.22 347.107 389.22 348.4V355H386.66V348.66C386.66 347.927 386.527 347.373 386.26 347C385.994 346.613 385.554 346.42 384.94 346.42C384.594 346.42 384.26 346.487 383.94 346.62C383.62 346.74 383.36 346.927 383.16 347.18C382.96 347.42 382.86 347.727 382.86 348.1V355ZM397.158 355H395.318C394.438 355 393.765 354.773 393.298 354.32C392.845 353.853 392.618 353.193 392.618 352.34V346.58H391.078V344.56H391.878C392.265 344.56 392.525 344.473 392.658 344.3C392.805 344.113 392.878 343.84 392.878 343.48V341.7H395.178V344.56H397.318V346.58H395.178V352.96H397.158V355ZM402.959 355.24C401.959 355.24 401.119 355.073 400.439 354.74C399.759 354.393 399.159 353.92 398.639 353.32L400.199 351.8C400.585 352.24 401.005 352.587 401.459 352.84C401.925 353.093 402.459 353.22 403.059 353.22C403.672 353.22 404.112 353.113 404.379 352.9C404.659 352.687 404.799 352.393 404.799 352.02C404.799 351.713 404.699 351.473 404.499 351.3C404.312 351.113 403.985 350.987 403.519 350.92L402.479 350.78C401.732 350.687 401.099 350.513 400.579 350.26C400.059 350.007 399.665 349.66 399.399 349.22C399.132 348.78 398.999 348.247 398.999 347.62C398.999 346.607 399.359 345.807 400.079 345.22C400.812 344.62 401.772 344.32 402.959 344.32C403.639 344.32 404.219 344.387 404.699 344.52C405.192 344.64 405.625 344.827 405.999 345.08C406.372 345.32 406.719 345.613 407.039 345.96L405.539 347.46C405.232 347.14 404.865 346.873 404.439 346.66C404.012 346.447 403.545 346.34 403.039 346.34C402.505 346.34 402.105 346.44 401.839 346.64C401.585 346.827 401.459 347.087 401.459 347.42C401.459 347.767 401.559 348.033 401.759 348.22C401.972 348.393 402.325 348.52 402.819 348.6L403.879 348.74C405.025 348.9 405.872 349.24 406.419 349.76C406.979 350.267 407.259 350.953 407.259 351.82C407.259 352.487 407.079 353.08 406.719 353.6C406.372 354.12 405.872 354.527 405.219 354.82C404.579 355.1 403.825 355.24 402.959 355.24Z" fill="#000A55" fill-opacity="0.55"/>
<path d="M326 149C326 137.954 334.979 128.892 345.964 130.046C368.284 132.392 390.07 138.659 410.302 148.611C436.532 161.513 459.451 180.263 477.293 203.418C495.135 226.572 507.425 253.513 513.215 282.165C519.006 310.817 518.142 340.416 510.692 368.681C503.242 396.947 489.403 423.126 470.242 445.201C451.081 467.276 427.108 484.659 400.171 496.01C373.234 507.362 344.051 512.379 314.869 510.675C292.36 509.361 270.315 504.076 249.739 495.115C239.611 490.705 236.267 478.394 241.711 468.783L254.93 445.45C260.374 435.839 272.548 432.633 282.907 436.466C294.388 440.714 306.469 443.254 318.763 443.972C337.736 445.079 356.71 441.817 374.224 434.437C391.738 427.057 407.324 415.755 419.782 401.402C432.24 387.05 441.237 370.029 446.082 351.651C450.925 333.274 451.487 314.029 447.722 295.401C443.957 276.772 435.967 259.256 424.366 244.202C412.766 229.147 397.865 216.956 380.811 208.568C369.761 203.132 357.997 199.387 345.914 197.424C335.011 195.653 326 186.863 326 175.817L326 149Z" fill="#AAD0E3"/>
<path d="M326.299 31.6077C326.368 20.5622 335.388 11.597 346.406 12.3783C383.122 14.9821 419.137 24.111 452.742 39.3895C492.425 57.4316 527.855 83.6431 556.717 116.312C585.579 148.98 607.224 187.37 620.238 228.975C631.258 264.206 635.879 301.071 633.938 337.828C633.355 348.859 623.346 356.705 612.377 355.412L540.341 346.923C529.372 345.63 521.634 335.679 521.81 324.635C522.145 303.643 519.129 282.688 512.836 262.57C504.548 236.074 490.763 211.625 472.382 190.82C454.001 170.015 431.438 153.322 406.166 141.832C386.976 133.108 366.553 127.532 345.68 125.277C334.698 124.091 325.776 115.186 325.845 104.14L326.299 31.6077Z" fill="#6AAFD1"/>
<path d="M238.229 466.756C232.559 476.236 220.202 479.405 211.366 472.776C183.888 452.158 162.372 424.425 149.255 392.407C133.602 354.197 130.752 311.942 141.135 271.976C151.517 232.01 174.572 196.485 206.844 170.725C233.886 149.139 266.179 135.384 300.219 130.748C311.163 129.257 320.416 138.04 320.755 149.081L321.577 175.885C321.916 186.926 313.178 195.988 302.335 198.093C282.752 201.894 264.271 210.379 248.528 222.945C227.545 239.694 212.556 262.791 205.805 288.776C199.055 314.761 200.908 342.234 211.085 367.077C218.722 385.718 230.737 402.125 245.993 414.976C254.441 422.093 257.663 434.262 251.993 443.741L238.229 466.756Z" fill="#EAB2D7"/>
<path d="M503.007 195.24C501.553 195.24 500.42 194.753 499.607 193.78C498.807 192.807 498.407 191.493 498.407 189.84C498.407 188.187 498.807 186.873 499.607 185.9C500.42 184.927 501.553 184.44 503.007 184.44C504.033 184.44 504.86 184.667 505.487 185.12C506.113 185.573 506.573 186.153 506.867 186.86L505.527 187.54C505.34 187.007 505.027 186.593 504.587 186.3C504.16 186.007 503.633 185.86 503.007 185.86C502.06 185.86 501.34 186.153 500.847 186.74C500.367 187.313 500.127 188.053 500.127 188.96V190.72C500.127 191.613 500.367 192.353 500.847 192.94C501.34 193.527 502.06 193.82 503.007 193.82C503.66 193.82 504.22 193.667 504.687 193.36C505.153 193.053 505.527 192.607 505.807 192.02L506.967 192.8C506.633 193.533 506.133 194.127 505.467 194.58C504.813 195.02 503.993 195.24 503.007 195.24ZM509.225 195V180.2H510.825V186.36H510.905C511.159 185.773 511.512 185.307 511.965 184.96C512.432 184.613 513.052 184.44 513.825 184.44C514.892 184.44 515.732 184.787 516.345 185.48C516.972 186.16 517.285 187.127 517.285 188.38V195H515.685V188.66C515.685 187.74 515.485 187.047 515.085 186.58C514.699 186.113 514.119 185.88 513.345 185.88C512.919 185.88 512.512 185.953 512.125 186.1C511.739 186.233 511.425 186.447 511.185 186.74C510.945 187.033 510.825 187.4 510.825 187.84V195H509.225ZM521.393 182.26C521.059 182.26 520.813 182.18 520.653 182.02C520.493 181.847 520.413 181.627 520.413 181.36V181.1C520.413 180.833 520.493 180.62 520.653 180.46C520.813 180.287 521.059 180.2 521.393 180.2C521.739 180.2 521.986 180.287 522.133 180.46C522.293 180.62 522.373 180.833 522.373 181.1V181.36C522.373 181.627 522.293 181.847 522.133 182.02C521.986 182.18 521.739 182.26 521.393 182.26ZM520.593 195V184.68H522.193V195H520.593ZM528.713 195H527.293C526.746 195 526.326 194.847 526.033 194.54C525.739 194.22 525.593 193.82 525.593 193.34V180.2H527.193V193.6H528.713V195ZM537.642 195V193.32H537.562C537.255 193.96 536.848 194.44 536.342 194.76C535.848 195.08 535.248 195.24 534.542 195.24C533.688 195.24 532.942 195.02 532.302 194.58C531.675 194.14 531.188 193.513 530.842 192.7C530.508 191.887 530.342 190.933 530.342 189.84C530.342 188.733 530.508 187.78 530.842 186.98C531.188 186.167 531.675 185.54 532.302 185.1C532.942 184.66 533.688 184.44 534.542 184.44C535.248 184.44 535.862 184.6 536.382 184.92C536.902 185.227 537.295 185.707 537.562 186.36H537.642V180.2H539.242V195H537.642ZM534.982 193.8C535.475 193.8 535.922 193.72 536.322 193.56C536.722 193.387 537.042 193.147 537.282 192.84C537.522 192.52 537.642 192.14 537.642 191.7V187.86C537.642 187.473 537.522 187.133 537.282 186.84C537.042 186.547 536.722 186.313 536.322 186.14C535.922 185.967 535.475 185.88 534.982 185.88C534.088 185.88 533.375 186.167 532.842 186.74C532.322 187.3 532.062 188.04 532.062 188.96V190.72C532.062 191.64 532.322 192.387 532.842 192.96C533.375 193.52 534.088 193.8 534.982 193.8ZM544.243 195H542.643V184.68H544.243V186.58H544.343C544.463 186.247 544.65 185.94 544.903 185.66C545.157 185.367 545.483 185.133 545.883 184.96C546.283 184.773 546.763 184.68 547.323 184.68H547.943V186.28H547.003C546.43 186.28 545.937 186.36 545.523 186.52C545.11 186.667 544.79 186.867 544.563 187.12C544.35 187.373 544.243 187.667 544.243 188V195ZM553.769 195.24C552.836 195.24 552.023 195.02 551.329 194.58C550.636 194.127 550.096 193.5 549.709 192.7C549.323 191.887 549.129 190.933 549.129 189.84C549.129 188.747 549.323 187.8 549.709 187C550.096 186.187 550.636 185.56 551.329 185.12C552.023 184.667 552.836 184.44 553.769 184.44C554.689 184.44 555.483 184.66 556.149 185.1C556.816 185.527 557.329 186.12 557.689 186.88C558.049 187.64 558.229 188.507 558.229 189.48V190.24H550.809V190.72C550.809 191.613 551.076 192.36 551.609 192.96C552.156 193.547 552.909 193.84 553.869 193.84C554.523 193.84 555.089 193.687 555.569 193.38C556.063 193.073 556.443 192.633 556.709 192.06L557.849 192.88C557.516 193.573 556.996 194.14 556.289 194.58C555.583 195.02 554.743 195.24 553.769 195.24ZM553.769 185.78C553.196 185.78 552.683 185.913 552.229 186.18C551.789 186.447 551.443 186.82 551.189 187.3C550.936 187.767 550.809 188.3 550.809 188.9V189.04H556.509V188.82C556.509 188.207 556.396 187.673 556.169 187.22C555.943 186.767 555.623 186.413 555.209 186.16C554.796 185.907 554.316 185.78 553.769 185.78ZM562.466 195H560.866V184.68H562.466V186.36H562.546C562.799 185.773 563.153 185.307 563.606 184.96C564.073 184.613 564.693 184.44 565.466 184.44C566.533 184.44 567.373 184.787 567.986 185.48C568.613 186.16 568.926 187.127 568.926 188.38V195H567.326V188.66C567.326 187.74 567.126 187.047 566.726 186.58C566.339 186.113 565.759 185.88 564.986 185.88C564.559 185.88 564.153 185.953 563.766 186.1C563.379 186.233 563.066 186.447 562.826 186.74C562.586 187.033 562.466 187.4 562.466 187.84V195Z" fill="#000A55"/>
<path d="M194.007 107.24C192.553 107.24 191.42 106.753 190.607 105.78C189.807 104.807 189.407 103.493 189.407 101.84C189.407 100.187 189.807 98.8733 190.607 97.9C191.42 96.9267 192.553 96.44 194.007 96.44C195.033 96.44 195.86 96.6667 196.487 97.12C197.113 97.5733 197.573 98.1533 197.867 98.86L196.527 99.54C196.34 99.0067 196.027 98.5933 195.587 98.3C195.16 98.0067 194.633 97.86 194.007 97.86C193.06 97.86 192.34 98.1533 191.847 98.74C191.367 99.3133 191.127 100.053 191.127 100.96V102.72C191.127 103.613 191.367 104.353 191.847 104.94C192.34 105.527 193.06 105.82 194.007 105.82C194.66 105.82 195.22 105.667 195.687 105.36C196.153 105.053 196.527 104.607 196.807 104.02L197.967 104.8C197.633 105.533 197.133 106.127 196.467 106.58C195.813 107.02 194.993 107.24 194.007 107.24ZM200.225 107V92.2H201.825V98.36H201.905C202.159 97.7733 202.512 97.3067 202.965 96.96C203.432 96.6133 204.052 96.44 204.825 96.44C205.892 96.44 206.732 96.7867 207.345 97.48C207.972 98.16 208.285 99.1267 208.285 100.38V107H206.685V100.66C206.685 99.74 206.485 99.0467 206.085 98.58C205.699 98.1133 205.119 97.88 204.345 97.88C203.919 97.88 203.512 97.9533 203.125 98.1C202.739 98.2333 202.425 98.4467 202.185 98.74C201.945 99.0333 201.825 99.4 201.825 99.84V107H200.225ZM212.393 94.26C212.059 94.26 211.813 94.18 211.653 94.02C211.493 93.8467 211.413 93.6267 211.413 93.36V93.1C211.413 92.8333 211.493 92.62 211.653 92.46C211.813 92.2867 212.059 92.2 212.393 92.2C212.739 92.2 212.986 92.2867 213.133 92.46C213.293 92.62 213.373 92.8333 213.373 93.1V93.36C213.373 93.6267 213.293 93.8467 213.133 94.02C212.986 94.18 212.739 94.26 212.393 94.26ZM211.593 107V96.68H213.193V107H211.593ZM219.713 107H218.293C217.746 107 217.326 106.847 217.033 106.54C216.739 106.22 216.593 105.82 216.593 105.34V92.2H218.193V105.6H219.713V107ZM228.642 107V105.32H228.562C228.255 105.96 227.848 106.44 227.342 106.76C226.848 107.08 226.248 107.24 225.542 107.24C224.688 107.24 223.942 107.02 223.302 106.58C222.675 106.14 222.188 105.513 221.842 104.7C221.508 103.887 221.342 102.933 221.342 101.84C221.342 100.733 221.508 99.78 221.842 98.98C222.188 98.1667 222.675 97.54 223.302 97.1C223.942 96.66 224.688 96.44 225.542 96.44C226.248 96.44 226.862 96.6 227.382 96.92C227.902 97.2267 228.295 97.7067 228.562 98.36H228.642V92.2H230.242V107H228.642ZM225.982 105.8C226.475 105.8 226.922 105.72 227.322 105.56C227.722 105.387 228.042 105.147 228.282 104.84C228.522 104.52 228.642 104.14 228.642 103.7V99.86C228.642 99.4733 228.522 99.1333 228.282 98.84C228.042 98.5467 227.722 98.3133 227.322 98.14C226.922 97.9667 226.475 97.88 225.982 97.88C225.088 97.88 224.375 98.1667 223.842 98.74C223.322 99.3 223.062 100.04 223.062 100.96V102.72C223.062 103.64 223.322 104.387 223.842 104.96C224.375 105.52 225.088 105.8 225.982 105.8ZM235.243 107H233.643V96.68H235.243V98.58H235.343C235.463 98.2467 235.65 97.94 235.903 97.66C236.157 97.3667 236.483 97.1333 236.883 96.96C237.283 96.7733 237.763 96.68 238.323 96.68H238.943V98.28H238.003C237.43 98.28 236.937 98.36 236.523 98.52C236.11 98.6667 235.79 98.8667 235.563 99.12C235.35 99.3733 235.243 99.6667 235.243 100V107ZM244.769 107.24C243.836 107.24 243.023 107.02 242.329 106.58C241.636 106.127 241.096 105.5 240.709 104.7C240.323 103.887 240.129 102.933 240.129 101.84C240.129 100.747 240.323 99.8 240.709 99C241.096 98.1867 241.636 97.56 242.329 97.12C243.023 96.6667 243.836 96.44 244.769 96.44C245.689 96.44 246.483 96.66 247.149 97.1C247.816 97.5267 248.329 98.12 248.689 98.88C249.049 99.64 249.229 100.507 249.229 101.48V102.24H241.809V102.72C241.809 103.613 242.076 104.36 242.609 104.96C243.156 105.547 243.909 105.84 244.869 105.84C245.523 105.84 246.089 105.687 246.569 105.38C247.063 105.073 247.443 104.633 247.709 104.06L248.849 104.88C248.516 105.573 247.996 106.14 247.289 106.58C246.583 107.02 245.743 107.24 244.769 107.24ZM244.769 97.78C244.196 97.78 243.683 97.9133 243.229 98.18C242.789 98.4467 242.443 98.82 242.189 99.3C241.936 99.7667 241.809 100.3 241.809 100.9V101.04H247.509V100.82C247.509 100.207 247.396 99.6733 247.169 99.22C246.943 98.7667 246.623 98.4133 246.209 98.16C245.796 97.9067 245.316 97.78 244.769 97.78ZM253.466 107H251.866V96.68H253.466V98.36H253.546C253.799 97.7733 254.153 97.3067 254.606 96.96C255.073 96.6133 255.693 96.44 256.466 96.44C257.533 96.44 258.373 96.7867 258.986 97.48C259.613 98.16 259.926 99.1267 259.926 100.38V107H258.326V100.66C258.326 99.74 258.126 99.0467 257.726 98.58C257.339 98.1133 256.759 97.88 255.986 97.88C255.559 97.88 255.153 97.9533 254.766 98.1C254.379 98.2333 254.066 98.4467 253.826 98.74C253.586 99.0333 253.466 99.4 253.466 99.84V107Z" fill="#680036"/>
<path d="M205.28 83H195.56V80.58H199.32V71.22H199.14L196.3 74.94L194.38 73.44L197.72 69.04H202.32V80.58H205.28V83ZM216.692 80.48V83H206.812V80.26L211.112 76.58C211.899 75.9133 212.445 75.3467 212.752 74.88C213.059 74.4 213.212 73.8667 213.212 73.28V73C213.212 72.4667 213.019 72.0667 212.632 71.8C212.245 71.5333 211.825 71.4 211.372 71.4C210.719 71.4 210.219 71.5933 209.872 71.98C209.525 72.3667 209.279 72.8267 209.132 73.36L206.512 72.36C206.725 71.7067 207.045 71.1133 207.472 70.58C207.912 70.0467 208.479 69.62 209.172 69.3C209.865 68.9667 210.692 68.8 211.652 68.8C212.665 68.8 213.525 68.9867 214.232 69.36C214.939 69.72 215.479 70.2133 215.852 70.84C216.225 71.4667 216.412 72.1867 216.412 73C216.412 73.8 216.239 74.5133 215.892 75.14C215.559 75.7533 215.105 76.3267 214.532 76.86C213.972 77.38 213.359 77.9067 212.692 78.44L210.092 80.48H216.692ZM220.764 83.22C220.164 83.22 219.717 83.0667 219.424 82.76C219.144 82.4533 219.004 82.0733 219.004 81.62V81.22C219.004 80.7533 219.144 80.3733 219.424 80.08C219.717 79.7733 220.164 79.62 220.764 79.62C221.364 79.62 221.804 79.7733 222.084 80.08C222.377 80.3733 222.524 80.7533 222.524 81.22V81.62C222.524 82.0733 222.377 82.4533 222.084 82.76C221.804 83.0667 221.364 83.22 220.764 83.22ZM230.335 83H227.175L231.855 71.48H227.495V74.02H224.955V69.04H234.835V71.64L230.335 83ZM242.068 83H239.428L249.108 69.04H251.748L242.068 83ZM240.448 76.72C239.674 76.72 239.021 76.5733 238.488 76.28C237.954 75.9733 237.548 75.5267 237.268 74.94C236.988 74.3533 236.848 73.6267 236.848 72.76C236.848 71.8933 236.988 71.1667 237.268 70.58C237.548 69.9933 237.954 69.5533 238.488 69.26C239.021 68.9533 239.674 68.8 240.448 68.8C241.221 68.8 241.874 68.9533 242.408 69.26C242.941 69.5533 243.348 69.9933 243.628 70.58C243.908 71.1667 244.048 71.8933 244.048 72.76C244.048 73.6267 243.908 74.3533 243.628 74.94C243.348 75.5267 242.941 75.9733 242.408 76.28C241.874 76.5733 241.221 76.72 240.448 76.72ZM240.448 75C240.674 75 240.861 74.94 241.008 74.82C241.168 74.7 241.288 74.5133 241.368 74.26C241.448 74.0067 241.488 73.68 241.488 73.28V72.24C241.488 71.84 241.448 71.5133 241.368 71.26C241.288 71.0067 241.168 70.82 241.008 70.7C240.861 70.58 240.674 70.52 240.448 70.52C240.221 70.52 240.028 70.58 239.868 70.7C239.721 70.82 239.608 71.0067 239.528 71.26C239.448 71.5133 239.408 71.84 239.408 72.24V73.28C239.408 73.68 239.448 74.0067 239.528 74.26C239.608 74.5133 239.721 74.7 239.868 74.82C240.028 74.94 240.221 75 240.448 75ZM250.728 83.24C249.954 83.24 249.301 83.0933 248.768 82.8C248.234 82.4933 247.828 82.0467 247.548 81.46C247.268 80.8733 247.128 80.1467 247.128 79.28C247.128 78.4133 247.268 77.6867 247.548 77.1C247.828 76.5133 248.234 76.0733 248.768 75.78C249.301 75.4733 249.954 75.32 250.728 75.32C251.501 75.32 252.154 75.4733 252.688 75.78C253.221 76.0733 253.628 76.5133 253.908 77.1C254.188 77.6867 254.328 78.4133 254.328 79.28C254.328 80.1467 254.188 80.8733 253.908 81.46C253.628 82.0467 253.221 82.4933 252.688 82.8C252.154 83.0933 251.501 83.24 250.728 83.24ZM250.728 81.52C250.954 81.52 251.141 81.46 251.288 81.34C251.448 81.22 251.568 81.0333 251.648 80.78C251.728 80.5267 251.768 80.2 251.768 79.8V78.76C251.768 78.36 251.728 78.0333 251.648 77.78C251.568 77.5267 251.448 77.34 251.288 77.22C251.141 77.1 250.954 77.04 250.728 77.04C250.501 77.04 250.308 77.1 250.148 77.22C250.001 77.34 249.888 77.5267 249.808 77.78C249.728 78.0333 249.688 78.36 249.688 78.76V79.8C249.688 80.2 249.728 80.5267 249.808 80.78C249.888 81.0333 250.001 81.22 250.148 81.34C250.308 81.46 250.501 81.52 250.728 81.52Z" fill="#680036"/>
<path d="M105.78 466H96.0597V463.58H99.8197V454.22H99.6397L96.7997 457.94L94.8797 456.44L98.2197 452.04H102.82V463.58H105.78V466ZM116.612 452.04V454.66H110.272L109.972 459.08H110.132C110.319 458.64 110.532 458.253 110.772 457.92C111.012 457.587 111.319 457.327 111.692 457.14C112.065 456.953 112.545 456.86 113.132 456.86C113.932 456.86 114.652 457.04 115.292 457.4C115.945 457.747 116.465 458.253 116.852 458.92C117.239 459.573 117.432 460.367 117.432 461.3C117.432 462.247 117.225 463.093 116.812 463.84C116.399 464.587 115.792 465.173 114.992 465.6C114.192 466.027 113.219 466.24 112.072 466.24C111.179 466.24 110.412 466.12 109.772 465.88C109.132 465.627 108.592 465.293 108.152 464.88C107.725 464.467 107.372 464.027 107.092 463.56L109.272 461.84C109.579 462.373 109.945 462.833 110.372 463.22C110.799 463.607 111.372 463.8 112.092 463.8C112.812 463.8 113.352 463.593 113.712 463.18C114.085 462.767 114.272 462.22 114.272 461.54V461.38C114.272 460.74 114.085 460.233 113.712 459.86C113.339 459.487 112.825 459.3 112.172 459.3C111.639 459.3 111.192 459.413 110.832 459.64C110.472 459.853 110.199 460.067 110.012 460.28L107.552 459.94L108.072 452.04H116.612ZM121.264 466.22C120.664 466.22 120.217 466.067 119.924 465.76C119.644 465.453 119.504 465.073 119.504 464.62V464.22C119.504 463.753 119.644 463.373 119.924 463.08C120.217 462.773 120.664 462.62 121.264 462.62C121.864 462.62 122.304 462.773 122.584 463.08C122.877 463.373 123.024 463.753 123.024 464.22V464.62C123.024 465.073 122.877 465.453 122.584 465.76C122.304 466.067 121.864 466.22 121.264 466.22ZM135.955 466H126.235V463.58H129.995V454.22H129.815L126.975 457.94L125.055 456.44L128.395 452.04H132.995V463.58H135.955V466ZM142.568 466H139.928L149.608 452.04H152.248L142.568 466ZM140.948 459.72C140.174 459.72 139.521 459.573 138.988 459.28C138.454 458.973 138.048 458.527 137.768 457.94C137.488 457.353 137.348 456.627 137.348 455.76C137.348 454.893 137.488 454.167 137.768 453.58C138.048 452.993 138.454 452.553 138.988 452.26C139.521 451.953 140.174 451.8 140.948 451.8C141.721 451.8 142.374 451.953 142.908 452.26C143.441 452.553 143.848 452.993 144.128 453.58C144.408 454.167 144.548 454.893 144.548 455.76C144.548 456.627 144.408 457.353 144.128 457.94C143.848 458.527 143.441 458.973 142.908 459.28C142.374 459.573 141.721 459.72 140.948 459.72ZM140.948 458C141.174 458 141.361 457.94 141.508 457.82C141.668 457.7 141.788 457.513 141.868 457.26C141.948 457.007 141.988 456.68 141.988 456.28V455.24C141.988 454.84 141.948 454.513 141.868 454.26C141.788 454.007 141.668 453.82 141.508 453.7C141.361 453.58 141.174 453.52 140.948 453.52C140.721 453.52 140.528 453.58 140.368 453.7C140.221 453.82 140.108 454.007 140.028 454.26C139.948 454.513 139.908 454.84 139.908 455.24V456.28C139.908 456.68 139.948 457.007 140.028 457.26C140.108 457.513 140.221 457.7 140.368 457.82C140.528 457.94 140.721 458 140.948 458ZM151.228 466.24C150.454 466.24 149.801 466.093 149.268 465.8C148.734 465.493 148.328 465.047 148.048 464.46C147.768 463.873 147.628 463.147 147.628 462.28C147.628 461.413 147.768 460.687 148.048 460.1C148.328 459.513 148.734 459.073 149.268 458.78C149.801 458.473 150.454 458.32 151.228 458.32C152.001 458.32 152.654 458.473 153.188 458.78C153.721 459.073 154.128 459.513 154.408 460.1C154.688 460.687 154.828 461.413 154.828 462.28C154.828 463.147 154.688 463.873 154.408 464.46C154.128 465.047 153.721 465.493 153.188 465.8C152.654 466.093 152.001 466.24 151.228 466.24ZM151.228 464.52C151.454 464.52 151.641 464.46 151.788 464.34C151.948 464.22 152.068 464.033 152.148 463.78C152.228 463.527 152.268 463.2 152.268 462.8V461.76C152.268 461.36 152.228 461.033 152.148 460.78C152.068 460.527 151.948 460.34 151.788 460.22C151.641 460.1 151.454 460.04 151.228 460.04C151.001 460.04 150.808 460.1 150.648 460.22C150.501 460.34 150.388 460.527 150.308 460.78C150.228 461.033 150.188 461.36 150.188 461.76V462.8C150.188 463.2 150.228 463.527 150.308 463.78C150.388 464.033 150.501 464.22 150.648 464.34C150.808 464.46 151.001 464.52 151.228 464.52Z" fill="#680036"/>
<path d="M513.7 169.48V172H503.82V169.26L508.12 165.58C508.906 164.913 509.453 164.347 509.76 163.88C510.066 163.4 510.22 162.867 510.22 162.28V162C510.22 161.467 510.026 161.067 509.64 160.8C509.253 160.533 508.833 160.4 508.38 160.4C507.726 160.4 507.226 160.593 506.88 160.98C506.533 161.367 506.286 161.827 506.14 162.36L503.52 161.36C503.733 160.707 504.053 160.113 504.48 159.58C504.92 159.047 505.486 158.62 506.18 158.3C506.873 157.967 507.7 157.8 508.66 157.8C509.673 157.8 510.533 157.987 511.24 158.36C511.946 158.72 512.486 159.213 512.86 159.84C513.233 160.467 513.42 161.187 513.42 162C513.42 162.8 513.246 163.513 512.9 164.14C512.566 164.753 512.113 165.327 511.54 165.86C510.98 166.38 510.366 166.907 509.7 167.44L507.1 169.48H513.7ZM525.112 158.04V160.66H518.772L518.472 165.08H518.632C518.819 164.64 519.032 164.253 519.272 163.92C519.512 163.587 519.819 163.327 520.192 163.14C520.565 162.953 521.045 162.86 521.632 162.86C522.432 162.86 523.152 163.04 523.792 163.4C524.445 163.747 524.965 164.253 525.352 164.92C525.739 165.573 525.932 166.367 525.932 167.3C525.932 168.247 525.725 169.093 525.312 169.84C524.899 170.587 524.292 171.173 523.492 171.6C522.692 172.027 521.719 172.24 520.572 172.24C519.679 172.24 518.912 172.12 518.272 171.88C517.632 171.627 517.092 171.293 516.652 170.88C516.225 170.467 515.872 170.027 515.592 169.56L517.772 167.84C518.079 168.373 518.445 168.833 518.872 169.22C519.299 169.607 519.872 169.8 520.592 169.8C521.312 169.8 521.852 169.593 522.212 169.18C522.585 168.767 522.772 168.22 522.772 167.54V167.38C522.772 166.74 522.585 166.233 522.212 165.86C521.839 165.487 521.325 165.3 520.672 165.3C520.139 165.3 519.692 165.413 519.332 165.64C518.972 165.853 518.699 166.067 518.512 166.28L516.052 165.94L516.572 158.04H525.112ZM529.764 172.22C529.164 172.22 528.717 172.067 528.424 171.76C528.144 171.453 528.004 171.073 528.004 170.62V170.22C528.004 169.753 528.144 169.373 528.424 169.08C528.717 168.773 529.164 168.62 529.764 168.62C530.364 168.62 530.804 168.773 531.084 169.08C531.377 169.373 531.524 169.753 531.524 170.22V170.62C531.524 171.073 531.377 171.453 531.084 171.76C530.804 172.067 530.364 172.22 529.764 172.22ZM543.875 169.48V172H533.995V169.26L538.295 165.58C539.082 164.913 539.629 164.347 539.935 163.88C540.242 163.4 540.395 162.867 540.395 162.28V162C540.395 161.467 540.202 161.067 539.815 160.8C539.429 160.533 539.009 160.4 538.555 160.4C537.902 160.4 537.402 160.593 537.055 160.98C536.709 161.367 536.462 161.827 536.315 162.36L533.695 161.36C533.909 160.707 534.229 160.113 534.655 159.58C535.095 159.047 535.662 158.62 536.355 158.3C537.049 157.967 537.875 157.8 538.835 157.8C539.849 157.8 540.709 157.987 541.415 158.36C542.122 158.72 542.662 159.213 543.035 159.84C543.409 160.467 543.595 161.187 543.595 162C543.595 162.8 543.422 163.513 543.075 164.14C542.742 164.753 542.289 165.327 541.715 165.86C541.155 166.38 540.542 166.907 539.875 167.44L537.275 169.48H543.875ZM551.068 172H548.428L558.108 158.04H560.748L551.068 172ZM549.448 165.72C548.674 165.72 548.021 165.573 547.488 165.28C546.954 164.973 546.548 164.527 546.268 163.94C545.988 163.353 545.848 162.627 545.848 161.76C545.848 160.893 545.988 160.167 546.268 159.58C546.548 158.993 546.954 158.553 547.488 158.26C548.021 157.953 548.674 157.8 549.448 157.8C550.221 157.8 550.874 157.953 551.408 158.26C551.941 158.553 552.348 158.993 552.628 159.58C552.908 160.167 553.048 160.893 553.048 161.76C553.048 162.627 552.908 163.353 552.628 163.94C552.348 164.527 551.941 164.973 551.408 165.28C550.874 165.573 550.221 165.72 549.448 165.72ZM549.448 164C549.674 164 549.861 163.94 550.008 163.82C550.168 163.7 550.288 163.513 550.368 163.26C550.448 163.007 550.488 162.68 550.488 162.28V161.24C550.488 160.84 550.448 160.513 550.368 160.26C550.288 160.007 550.168 159.82 550.008 159.7C549.861 159.58 549.674 159.52 549.448 159.52C549.221 159.52 549.028 159.58 548.868 159.7C548.721 159.82 548.608 160.007 548.528 160.26C548.448 160.513 548.408 160.84 548.408 161.24V162.28C548.408 162.68 548.448 163.007 548.528 163.26C548.608 163.513 548.721 163.7 548.868 163.82C549.028 163.94 549.221 164 549.448 164ZM559.728 172.24C558.954 172.24 558.301 172.093 557.768 171.8C557.234 171.493 556.828 171.047 556.548 170.46C556.268 169.873 556.128 169.147 556.128 168.28C556.128 167.413 556.268 166.687 556.548 166.1C556.828 165.513 557.234 165.073 557.768 164.78C558.301 164.473 558.954 164.32 559.728 164.32C560.501 164.32 561.154 164.473 561.688 164.78C562.221 165.073 562.628 165.513 562.908 166.1C563.188 166.687 563.328 167.413 563.328 168.28C563.328 169.147 563.188 169.873 562.908 170.46C562.628 171.047 562.221 171.493 561.688 171.8C561.154 172.093 560.501 172.24 559.728 172.24ZM559.728 170.52C559.954 170.52 560.141 170.46 560.288 170.34C560.448 170.22 560.568 170.033 560.648 169.78C560.728 169.527 560.768 169.2 560.768 168.8V167.76C560.768 167.36 560.728 167.033 560.648 166.78C560.568 166.527 560.448 166.34 560.288 166.22C560.141 166.1 559.954 166.04 559.728 166.04C559.501 166.04 559.308 166.1 559.148 166.22C559.001 166.34 558.888 166.527 558.808 166.78C558.728 167.033 558.688 167.36 558.688 167.76V168.8C558.688 169.2 558.728 169.527 558.808 169.78C558.888 170.033 559.001 170.22 559.148 170.34C559.308 170.46 559.501 170.52 559.728 170.52Z" fill="#000A55"/>
<path d="M474.28 496H464.56V493.58H468.32V484.22H468.14L465.3 487.94L463.38 486.44L466.72 482.04H471.32V493.58H474.28V496ZM486.272 496H476.552V493.58H480.312V484.22H480.132L477.292 487.94L475.372 486.44L478.712 482.04H483.312V493.58H486.272V496ZM489.764 496.22C489.164 496.22 488.717 496.067 488.424 495.76C488.144 495.453 488.004 495.073 488.004 494.62V494.22C488.004 493.753 488.144 493.373 488.424 493.08C488.717 492.773 489.164 492.62 489.764 492.62C490.364 492.62 490.804 492.773 491.084 493.08C491.377 493.373 491.524 493.753 491.524 494.22V494.62C491.524 495.073 491.377 495.453 491.084 495.76C490.804 496.067 490.364 496.22 489.764 496.22ZM499.335 496H496.175L500.855 484.48H496.495V487.02H493.955V482.04H503.835V484.64L499.335 496ZM511.068 496H508.428L518.108 482.04H520.748L511.068 496ZM509.448 489.72C508.674 489.72 508.021 489.573 507.488 489.28C506.954 488.973 506.548 488.527 506.268 487.94C505.988 487.353 505.848 486.627 505.848 485.76C505.848 484.893 505.988 484.167 506.268 483.58C506.548 482.993 506.954 482.553 507.488 482.26C508.021 481.953 508.674 481.8 509.448 481.8C510.221 481.8 510.874 481.953 511.408 482.26C511.941 482.553 512.348 482.993 512.628 483.58C512.908 484.167 513.048 484.893 513.048 485.76C513.048 486.627 512.908 487.353 512.628 487.94C512.348 488.527 511.941 488.973 511.408 489.28C510.874 489.573 510.221 489.72 509.448 489.72ZM509.448 488C509.674 488 509.861 487.94 510.008 487.82C510.168 487.7 510.288 487.513 510.368 487.26C510.448 487.007 510.488 486.68 510.488 486.28V485.24C510.488 484.84 510.448 484.513 510.368 484.26C510.288 484.007 510.168 483.82 510.008 483.7C509.861 483.58 509.674 483.52 509.448 483.52C509.221 483.52 509.028 483.58 508.868 483.7C508.721 483.82 508.608 484.007 508.528 484.26C508.448 484.513 508.408 484.84 508.408 485.24V486.28C508.408 486.68 508.448 487.007 508.528 487.26C508.608 487.513 508.721 487.7 508.868 487.82C509.028 487.94 509.221 488 509.448 488ZM519.728 496.24C518.954 496.24 518.301 496.093 517.768 495.8C517.234 495.493 516.828 495.047 516.548 494.46C516.268 493.873 516.128 493.147 516.128 492.28C516.128 491.413 516.268 490.687 516.548 490.1C516.828 489.513 517.234 489.073 517.768 488.78C518.301 488.473 518.954 488.32 519.728 488.32C520.501 488.32 521.154 488.473 521.688 488.78C522.221 489.073 522.628 489.513 522.908 490.1C523.188 490.687 523.328 491.413 523.328 492.28C523.328 493.147 523.188 493.873 522.908 494.46C522.628 495.047 522.221 495.493 521.688 495.8C521.154 496.093 520.501 496.24 519.728 496.24ZM519.728 494.52C519.954 494.52 520.141 494.46 520.288 494.34C520.448 494.22 520.568 494.033 520.648 493.78C520.728 493.527 520.768 493.2 520.768 492.8V491.76C520.768 491.36 520.728 491.033 520.648 490.78C520.568 490.527 520.448 490.34 520.288 490.22C520.141 490.1 519.954 490.04 519.728 490.04C519.501 490.04 519.308 490.1 519.148 490.22C519.001 490.34 518.888 490.527 518.808 490.78C518.728 491.033 518.688 491.36 518.688 491.76V492.8C518.688 493.2 518.728 493.527 518.808 493.78C518.888 494.033 519.001 494.22 519.148 494.34C519.308 494.46 519.501 494.52 519.728 494.52Z" fill="#000A55"/>
<path d="M59.8358 283.34C59.8358 284.313 59.6891 285.24 59.3958 286.12C59.1024 286.987 58.7091 287.793 58.2158 288.54C57.7358 289.273 57.2024 289.933 56.6158 290.52C56.0291 291.107 55.4358 291.6 54.8358 292H50.6958C51.8291 291.187 52.8091 290.42 53.6358 289.7C54.4624 288.967 55.1291 288.22 55.6358 287.46C56.1558 286.7 56.5091 285.88 56.6958 285L56.5158 284.94C56.3558 285.287 56.1491 285.627 55.8958 285.96C55.6424 286.28 55.3158 286.54 54.9158 286.74C54.5291 286.94 54.0358 287.04 53.4358 287.04C52.6758 287.04 51.9824 286.86 51.3558 286.5C50.7424 286.14 50.2558 285.64 49.8958 285C49.5358 284.347 49.3558 283.58 49.3558 282.7C49.3558 281.74 49.5691 280.893 49.9958 280.16C50.4358 279.427 51.0491 278.853 51.8358 278.44C52.6224 278.013 53.5424 277.8 54.5958 277.8C55.7024 277.8 56.6424 278.027 57.4158 278.48C58.2024 278.933 58.8024 279.58 59.2158 280.42C59.6291 281.247 59.8358 282.22 59.8358 283.34ZM54.5958 284.74C55.0358 284.74 55.4091 284.66 55.7158 284.5C56.0358 284.327 56.2824 284.087 56.4558 283.78C56.6291 283.46 56.7158 283.073 56.7158 282.62V282.26C56.7158 281.807 56.6291 281.427 56.4558 281.12C56.2824 280.8 56.0358 280.56 55.7158 280.4C55.4091 280.227 55.0358 280.14 54.5958 280.14C54.1558 280.14 53.7758 280.227 53.4558 280.4C53.1491 280.56 52.9091 280.8 52.7358 281.12C52.5624 281.427 52.4758 281.807 52.4758 282.26V282.62C52.4758 283.073 52.5624 283.46 52.7358 283.78C52.9091 284.087 53.1491 284.327 53.4558 284.5C53.7758 284.66 54.1558 284.74 54.5958 284.74ZM63.768 292.22C63.168 292.22 62.7213 292.067 62.428 291.76C62.148 291.453 62.008 291.073 62.008 290.62V290.22C62.008 289.753 62.148 289.373 62.428 289.08C62.7213 288.773 63.168 288.62 63.768 288.62C64.368 288.62 64.808 288.773 65.088 289.08C65.3813 289.373 65.528 289.753 65.528 290.22V290.62C65.528 291.073 65.3813 291.453 65.088 291.76C64.808 292.067 64.368 292.22 63.768 292.22ZM76.4594 292H73.5994V289.32H67.4594V286.76L72.8994 278.04H76.4594V287H78.2194V289.32H76.4594V292ZM73.3994 281.14L69.8594 287H73.5994V281.14H73.3994ZM85.0716 292H82.4316L92.1116 278.04H94.7516L85.0716 292ZM83.4516 285.72C82.6782 285.72 82.0249 285.573 81.4916 285.28C80.9582 284.973 80.5516 284.527 80.2716 283.94C79.9916 283.353 79.8516 282.627 79.8516 281.76C79.8516 280.893 79.9916 280.167 80.2716 279.58C80.5516 278.993 80.9582 278.553 81.4916 278.26C82.0249 277.953 82.6782 277.8 83.4516 277.8C84.2249 277.8 84.8782 277.953 85.4116 278.26C85.9449 278.553 86.3516 278.993 86.6316 279.58C86.9116 280.167 87.0516 280.893 87.0516 281.76C87.0516 282.627 86.9116 283.353 86.6316 283.94C86.3516 284.527 85.9449 284.973 85.4116 285.28C84.8782 285.573 84.2249 285.72 83.4516 285.72ZM83.4516 284C83.6782 284 83.8649 283.94 84.0116 283.82C84.1716 283.7 84.2916 283.513 84.3716 283.26C84.4516 283.007 84.4916 282.68 84.4916 282.28V281.24C84.4916 280.84 84.4516 280.513 84.3716 280.26C84.2916 280.007 84.1716 279.82 84.0116 279.7C83.8649 279.58 83.6782 279.52 83.4516 279.52C83.2249 279.52 83.0316 279.58 82.8716 279.7C82.7249 279.82 82.6116 280.007 82.5316 280.26C82.4516 280.513 82.4116 280.84 82.4116 281.24V282.28C82.4116 282.68 82.4516 283.007 82.5316 283.26C82.6116 283.513 82.7249 283.7 82.8716 283.82C83.0316 283.94 83.2249 284 83.4516 284ZM93.7316 292.24C92.9582 292.24 92.3049 292.093 91.7716 291.8C91.2382 291.493 90.8316 291.047 90.5516 290.46C90.2716 289.873 90.1316 289.147 90.1316 288.28C90.1316 287.413 90.2716 286.687 90.5516 286.1C90.8316 285.513 91.2382 285.073 91.7716 284.78C92.3049 284.473 92.9582 284.32 93.7316 284.32C94.5049 284.32 95.1582 284.473 95.6916 284.78C96.2249 285.073 96.6316 285.513 96.9116 286.1C97.1916 286.687 97.3316 287.413 97.3316 288.28C97.3316 289.147 97.1916 289.873 96.9116 290.46C96.6316 291.047 96.2249 291.493 95.6916 291.8C95.1582 292.093 94.5049 292.24 93.7316 292.24ZM93.7316 290.52C93.9582 290.52 94.1449 290.46 94.2916 290.34C94.4516 290.22 94.5716 290.033 94.6516 289.78C94.7316 289.527 94.7716 289.2 94.7716 288.8V287.76C94.7716 287.36 94.7316 287.033 94.6516 286.78C94.5716 286.527 94.4516 286.34 94.2916 286.22C94.1449 286.1 93.9582 286.04 93.7316 286.04C93.5049 286.04 93.3116 286.1 93.1516 286.22C93.0049 286.34 92.8916 286.527 92.8116 286.78C92.7316 287.033 92.6916 287.36 92.6916 287.76V288.8C92.6916 289.2 92.7316 289.527 92.8116 289.78C92.8916 290.033 93.0049 290.22 93.1516 290.34C93.3116 290.46 93.5049 290.52 93.7316 290.52Z" fill="#680036"/>
<path d="M95.1158 171.04V173.66H88.7758L88.4758 178.08H88.6358C88.8224 177.64 89.0358 177.253 89.2758 176.92C89.5158 176.587 89.8224 176.327 90.1958 176.14C90.5691 175.953 91.0491 175.86 91.6358 175.86C92.4358 175.86 93.1558 176.04 93.7958 176.4C94.4491 176.747 94.9691 177.253 95.3558 177.92C95.7424 178.573 95.9358 179.367 95.9358 180.3C95.9358 181.247 95.7291 182.093 95.3158 182.84C94.9024 183.587 94.2958 184.173 93.4958 184.6C92.6958 185.027 91.7224 185.24 90.5758 185.24C89.6824 185.24 88.9158 185.12 88.2758 184.88C87.6358 184.627 87.0958 184.293 86.6558 183.88C86.2291 183.467 85.8758 183.027 85.5958 182.56L87.7758 180.84C88.0824 181.373 88.4491 181.833 88.8758 182.22C89.3024 182.607 89.8758 182.8 90.5958 182.8C91.3158 182.8 91.8558 182.593 92.2158 182.18C92.5891 181.767 92.7758 181.22 92.7758 180.54V180.38C92.7758 179.74 92.5891 179.233 92.2158 178.86C91.8424 178.487 91.3291 178.3 90.6758 178.3C90.1424 178.3 89.6958 178.413 89.3358 178.64C88.9758 178.853 88.7024 179.067 88.5158 179.28L86.0558 178.94L86.5758 171.04H95.1158ZM99.768 185.22C99.168 185.22 98.7213 185.067 98.428 184.76C98.148 184.453 98.008 184.073 98.008 183.62V183.22C98.008 182.753 98.148 182.373 98.428 182.08C98.7213 181.773 99.168 181.62 99.768 181.62C100.368 181.62 100.808 181.773 101.088 182.08C101.381 182.373 101.528 182.753 101.528 183.22V183.62C101.528 184.073 101.381 184.453 101.088 184.76C100.808 185.067 100.368 185.22 99.768 185.22ZM114.459 185H104.739V182.58H108.499V173.22H108.319L105.479 176.94L103.559 175.44L106.899 171.04H111.499V182.58H114.459V185ZM121.072 185H118.432L128.112 171.04H130.752L121.072 185ZM119.452 178.72C118.678 178.72 118.025 178.573 117.492 178.28C116.958 177.973 116.552 177.527 116.272 176.94C115.992 176.353 115.852 175.627 115.852 174.76C115.852 173.893 115.992 173.167 116.272 172.58C116.552 171.993 116.958 171.553 117.492 171.26C118.025 170.953 118.678 170.8 119.452 170.8C120.225 170.8 120.878 170.953 121.412 171.26C121.945 171.553 122.352 171.993 122.632 172.58C122.912 173.167 123.052 173.893 123.052 174.76C123.052 175.627 122.912 176.353 122.632 176.94C122.352 177.527 121.945 177.973 121.412 178.28C120.878 178.573 120.225 178.72 119.452 178.72ZM119.452 177C119.678 177 119.865 176.94 120.012 176.82C120.172 176.7 120.292 176.513 120.372 176.26C120.452 176.007 120.492 175.68 120.492 175.28V174.24C120.492 173.84 120.452 173.513 120.372 173.26C120.292 173.007 120.172 172.82 120.012 172.7C119.865 172.58 119.678 172.52 119.452 172.52C119.225 172.52 119.032 172.58 118.872 172.7C118.725 172.82 118.612 173.007 118.532 173.26C118.452 173.513 118.412 173.84 118.412 174.24V175.28C118.412 175.68 118.452 176.007 118.532 176.26C118.612 176.513 118.725 176.7 118.872 176.82C119.032 176.94 119.225 177 119.452 177ZM129.732 185.24C128.958 185.24 128.305 185.093 127.772 184.8C127.238 184.493 126.832 184.047 126.552 183.46C126.272 182.873 126.132 182.147 126.132 181.28C126.132 180.413 126.272 179.687 126.552 179.1C126.832 178.513 127.238 178.073 127.772 177.78C128.305 177.473 128.958 177.32 129.732 177.32C130.505 177.32 131.158 177.473 131.692 177.78C132.225 178.073 132.632 178.513 132.912 179.1C133.192 179.687 133.332 180.413 133.332 181.28C133.332 182.147 133.192 182.873 132.912 183.46C132.632 184.047 132.225 184.493 131.692 184.8C131.158 185.093 130.505 185.24 129.732 185.24ZM129.732 183.52C129.958 183.52 130.145 183.46 130.292 183.34C130.452 183.22 130.572 183.033 130.652 182.78C130.732 182.527 130.772 182.2 130.772 181.8V180.76C130.772 180.36 130.732 180.033 130.652 179.78C130.572 179.527 130.452 179.34 130.292 179.22C130.145 179.1 129.958 179.04 129.732 179.04C129.505 179.04 129.312 179.1 129.152 179.22C129.005 179.34 128.892 179.527 128.812 179.78C128.732 180.033 128.692 180.36 128.692 180.76V181.8C128.692 182.2 128.732 182.527 128.812 182.78C128.892 183.033 129.005 183.22 129.152 183.34C129.312 183.46 129.505 183.52 129.732 183.52Z" fill="#680036"/>
<path d="M550.276 403H547.416V400.32H541.276V397.76L546.716 389.04H550.276V398H552.036V400.32H550.276V403ZM547.216 392.14L543.676 398H547.416V392.14H547.216ZM555.768 403.22C555.168 403.22 554.721 403.067 554.428 402.76C554.148 402.453 554.008 402.073 554.008 401.62V401.22C554.008 400.753 554.148 400.373 554.428 400.08C554.721 399.773 555.168 399.62 555.768 399.62C556.368 399.62 556.808 399.773 557.088 400.08C557.381 400.373 557.528 400.753 557.528 401.22V401.62C557.528 402.073 557.381 402.453 557.088 402.76C556.808 403.067 556.368 403.22 555.768 403.22ZM569.879 400.48V403H559.999V400.26L564.299 396.58C565.086 395.913 565.633 395.347 565.939 394.88C566.246 394.4 566.399 393.867 566.399 393.28V393C566.399 392.467 566.206 392.067 565.819 391.8C565.433 391.533 565.013 391.4 564.559 391.4C563.906 391.4 563.406 391.593 563.059 391.98C562.713 392.367 562.466 392.827 562.319 393.36L559.699 392.36C559.913 391.707 560.233 391.113 560.659 390.58C561.099 390.047 561.666 389.62 562.359 389.3C563.053 388.967 563.879 388.8 564.839 388.8C565.853 388.8 566.713 388.987 567.419 389.36C568.126 389.72 568.666 390.213 569.039 390.84C569.413 391.467 569.599 392.187 569.599 393C569.599 393.8 569.426 394.513 569.079 395.14C568.746 395.753 568.293 396.327 567.719 396.86C567.159 397.38 566.546 397.907 565.879 398.44L563.279 400.48H569.879ZM577.072 403H574.432L584.112 389.04H586.752L577.072 403ZM575.452 396.72C574.678 396.72 574.025 396.573 573.492 396.28C572.958 395.973 572.552 395.527 572.272 394.94C571.992 394.353 571.852 393.627 571.852 392.76C571.852 391.893 571.992 391.167 572.272 390.58C572.552 389.993 572.958 389.553 573.492 389.26C574.025 388.953 574.678 388.8 575.452 388.8C576.225 388.8 576.878 388.953 577.412 389.26C577.945 389.553 578.352 389.993 578.632 390.58C578.912 391.167 579.052 391.893 579.052 392.76C579.052 393.627 578.912 394.353 578.632 394.94C578.352 395.527 577.945 395.973 577.412 396.28C576.878 396.573 576.225 396.72 575.452 396.72ZM575.452 395C575.678 395 575.865 394.94 576.012 394.82C576.172 394.7 576.292 394.513 576.372 394.26C576.452 394.007 576.492 393.68 576.492 393.28V392.24C576.492 391.84 576.452 391.513 576.372 391.26C576.292 391.007 576.172 390.82 576.012 390.7C575.865 390.58 575.678 390.52 575.452 390.52C575.225 390.52 575.032 390.58 574.872 390.7C574.725 390.82 574.612 391.007 574.532 391.26C574.452 391.513 574.412 391.84 574.412 392.24V393.28C574.412 393.68 574.452 394.007 574.532 394.26C574.612 394.513 574.725 394.7 574.872 394.82C575.032 394.94 575.225 395 575.452 395ZM585.732 403.24C584.958 403.24 584.305 403.093 583.772 402.8C583.238 402.493 582.832 402.047 582.552 401.46C582.272 400.873 582.132 400.147 582.132 399.28C582.132 398.413 582.272 397.687 582.552 397.1C582.832 396.513 583.238 396.073 583.772 395.78C584.305 395.473 584.958 395.32 585.732 395.32C586.505 395.32 587.158 395.473 587.692 395.78C588.225 396.073 588.632 396.513 588.912 397.1C589.192 397.687 589.332 398.413 589.332 399.28C589.332 400.147 589.192 400.873 588.912 401.46C588.632 402.047 588.225 402.493 587.692 402.8C587.158 403.093 586.505 403.24 585.732 403.24ZM585.732 401.52C585.958 401.52 586.145 401.46 586.292 401.34C586.452 401.22 586.572 401.033 586.652 400.78C586.732 400.527 586.772 400.2 586.772 399.8V398.76C586.772 398.36 586.732 398.033 586.652 397.78C586.572 397.527 586.452 397.34 586.292 397.22C586.145 397.1 585.958 397.04 585.732 397.04C585.505 397.04 585.312 397.1 585.152 397.22C585.005 397.34 584.892 397.527 584.812 397.78C584.732 398.033 584.692 398.36 584.692 398.76V399.8C584.692 400.2 584.732 400.527 584.812 400.78C584.892 401.033 585.005 401.22 585.152 401.34C585.312 401.46 585.505 401.52 585.732 401.52Z" fill="#000A55"/>
<path d="M292.28 568H282.56V565.58H286.32V556.22H286.14L283.3 559.94L281.38 558.44L284.72 554.04H289.32V565.58H292.28V568ZM298.752 568.24C297.645 568.24 296.699 568.013 295.912 567.56C295.139 567.107 294.545 566.467 294.132 565.64C293.719 564.8 293.512 563.82 293.512 562.7C293.512 561.713 293.659 560.787 293.952 559.92C294.245 559.053 294.632 558.253 295.112 557.52C295.605 556.773 296.145 556.107 296.732 555.52C297.319 554.933 297.912 554.44 298.512 554.04H302.652C301.519 554.853 300.539 555.627 299.712 556.36C298.885 557.08 298.212 557.82 297.692 558.58C297.185 559.327 296.839 560.147 296.652 561.04L296.832 561.1C296.992 560.74 297.199 560.4 297.452 560.08C297.705 559.76 298.032 559.5 298.432 559.3C298.832 559.1 299.325 559 299.912 559C300.685 559 301.379 559.18 301.992 559.54C302.605 559.887 303.092 560.387 303.452 561.04C303.812 561.693 303.992 562.46 303.992 563.34C303.992 564.287 303.772 565.133 303.332 565.88C302.905 566.613 302.299 567.193 301.512 567.62C300.739 568.033 299.819 568.24 298.752 568.24ZM298.752 565.9C299.192 565.9 299.565 565.82 299.872 565.66C300.192 565.487 300.439 565.247 300.612 564.94C300.785 564.62 300.872 564.233 300.872 563.78V563.42C300.872 562.967 300.785 562.587 300.612 562.28C300.439 561.96 300.192 561.72 299.872 561.56C299.565 561.387 299.192 561.3 298.752 561.3C298.312 561.3 297.932 561.387 297.612 561.56C297.305 561.72 297.065 561.96 296.892 562.28C296.719 562.587 296.632 562.967 296.632 563.42V563.78C296.632 564.233 296.719 564.62 296.892 564.94C297.065 565.247 297.305 565.487 297.612 565.66C297.932 565.82 298.312 565.9 298.752 565.9ZM307.764 568.22C307.164 568.22 306.717 568.067 306.424 567.76C306.144 567.453 306.004 567.073 306.004 566.62V566.22C306.004 565.753 306.144 565.373 306.424 565.08C306.717 564.773 307.164 564.62 307.764 564.62C308.364 564.62 308.804 564.773 309.084 565.08C309.377 565.373 309.524 565.753 309.524 566.22V566.62C309.524 567.073 309.377 567.453 309.084 567.76C308.804 568.067 308.364 568.22 307.764 568.22ZM316.935 568.24C315.829 568.24 314.882 568.013 314.095 567.56C313.322 567.107 312.729 566.467 312.315 565.64C311.902 564.8 311.695 563.82 311.695 562.7C311.695 561.713 311.842 560.787 312.135 559.92C312.429 559.053 312.815 558.253 313.295 557.52C313.789 556.773 314.329 556.107 314.915 555.52C315.502 554.933 316.095 554.44 316.695 554.04H320.835C319.702 554.853 318.722 555.627 317.895 556.36C317.069 557.08 316.395 557.82 315.875 558.58C315.369 559.327 315.022 560.147 314.835 561.04L315.015 561.1C315.175 560.74 315.382 560.4 315.635 560.08C315.889 559.76 316.215 559.5 316.615 559.3C317.015 559.1 317.509 559 318.095 559C318.869 559 319.562 559.18 320.175 559.54C320.789 559.887 321.275 560.387 321.635 561.04C321.995 561.693 322.175 562.46 322.175 563.34C322.175 564.287 321.955 565.133 321.515 565.88C321.089 566.613 320.482 567.193 319.695 567.62C318.922 568.033 318.002 568.24 316.935 568.24ZM316.935 565.9C317.375 565.9 317.749 565.82 318.055 565.66C318.375 565.487 318.622 565.247 318.795 564.94C318.969 564.62 319.055 564.233 319.055 563.78V563.42C319.055 562.967 318.969 562.587 318.795 562.28C318.622 561.96 318.375 561.72 318.055 561.56C317.749 561.387 317.375 561.3 316.935 561.3C316.495 561.3 316.115 561.387 315.795 561.56C315.489 561.72 315.249 561.96 315.075 562.28C314.902 562.587 314.815 562.967 314.815 563.42V563.78C314.815 564.233 314.902 564.62 315.075 564.94C315.249 565.247 315.489 565.487 315.795 565.66C316.115 565.82 316.495 565.9 316.935 565.9ZM329.068 568H326.428L336.108 554.04H338.748L329.068 568ZM327.448 561.72C326.674 561.72 326.021 561.573 325.488 561.28C324.954 560.973 324.548 560.527 324.268 559.94C323.988 559.353 323.848 558.627 323.848 557.76C323.848 556.893 323.988 556.167 324.268 555.58C324.548 554.993 324.954 554.553 325.488 554.26C326.021 553.953 326.674 553.8 327.448 553.8C328.221 553.8 328.874 553.953 329.408 554.26C329.941 554.553 330.348 554.993 330.628 555.58C330.908 556.167 331.048 556.893 331.048 557.76C331.048 558.627 330.908 559.353 330.628 559.94C330.348 560.527 329.941 560.973 329.408 561.28C328.874 561.573 328.221 561.72 327.448 561.72ZM327.448 560C327.674 560 327.861 559.94 328.008 559.82C328.168 559.7 328.288 559.513 328.368 559.26C328.448 559.007 328.488 558.68 328.488 558.28V557.24C328.488 556.84 328.448 556.513 328.368 556.26C328.288 556.007 328.168 555.82 328.008 555.7C327.861 555.58 327.674 555.52 327.448 555.52C327.221 555.52 327.028 555.58 326.868 555.7C326.721 555.82 326.608 556.007 326.528 556.26C326.448 556.513 326.408 556.84 326.408 557.24V558.28C326.408 558.68 326.448 559.007 326.528 559.26C326.608 559.513 326.721 559.7 326.868 559.82C327.028 559.94 327.221 560 327.448 560ZM337.728 568.24C336.954 568.24 336.301 568.093 335.768 567.8C335.234 567.493 334.828 567.047 334.548 566.46C334.268 565.873 334.128 565.147 334.128 564.28C334.128 563.413 334.268 562.687 334.548 562.1C334.828 561.513 335.234 561.073 335.768 560.78C336.301 560.473 336.954 560.32 337.728 560.32C338.501 560.32 339.154 560.473 339.688 560.78C340.221 561.073 340.628 561.513 340.908 562.1C341.188 562.687 341.328 563.413 341.328 564.28C341.328 565.147 341.188 565.873 340.908 566.46C340.628 567.047 340.221 567.493 339.688 567.8C339.154 568.093 338.501 568.24 337.728 568.24ZM337.728 566.52C337.954 566.52 338.141 566.46 338.288 566.34C338.448 566.22 338.568 566.033 338.648 565.78C338.728 565.527 338.768 565.2 338.768 564.8V563.76C338.768 563.36 338.728 563.033 338.648 562.78C338.568 562.527 338.448 562.34 338.288 562.22C338.141 562.1 337.954 562.04 337.728 562.04C337.501 562.04 337.308 562.1 337.148 562.22C337.001 562.34 336.888 562.527 336.808 562.78C336.728 563.033 336.688 563.36 336.688 563.76V564.8C336.688 565.2 336.728 565.527 336.808 565.78C336.888 566.033 337.001 566.22 337.148 566.34C337.308 566.46 337.501 566.52 337.728 566.52Z" fill="#000A55"/>
<path d="M293.719 592H292.819C292.392 592 292.046 591.913 291.779 591.74C291.512 591.553 291.319 591.3 291.199 590.98C291.079 590.66 291.019 590.293 291.019 589.88V589.74L291.639 590.32H290.939C290.726 590.947 290.352 591.427 289.819 591.76C289.299 592.08 288.679 592.24 287.959 592.24C286.866 592.24 286.012 591.96 285.399 591.4C284.799 590.84 284.499 590.08 284.499 589.12C284.499 588.467 284.659 587.92 284.979 587.48C285.299 587.027 285.779 586.687 286.419 586.46C287.072 586.22 287.899 586.1 288.899 586.1H290.939V585.08C290.939 584.347 290.739 583.787 290.339 583.4C289.939 583.013 289.326 582.82 288.499 582.82C287.886 582.82 287.366 582.96 286.939 583.24C286.512 583.52 286.159 583.893 285.879 584.36L284.919 583.46C285.199 582.913 285.646 582.44 286.259 582.04C286.872 581.64 287.646 581.44 288.579 581.44C289.819 581.44 290.786 581.747 291.479 582.36C292.186 582.973 292.539 583.827 292.539 584.92V590.6H293.719V592ZM290.939 587.3H288.819C287.912 587.3 287.246 587.433 286.819 587.7C286.392 587.967 286.179 588.353 286.179 588.86V589.28C286.179 589.787 286.366 590.18 286.739 590.46C287.112 590.74 287.606 590.88 288.219 590.88C288.752 590.88 289.219 590.8 289.619 590.64C290.032 590.467 290.352 590.24 290.579 589.96C290.819 589.667 290.939 589.347 290.939 589V587.3ZM302.603 592V590.32H302.523C302.216 590.96 301.809 591.44 301.303 591.76C300.809 592.08 300.209 592.24 299.503 592.24C298.649 592.24 297.903 592.02 297.263 591.58C296.636 591.14 296.149 590.513 295.803 589.7C295.469 588.887 295.303 587.933 295.303 586.84C295.303 585.733 295.469 584.78 295.803 583.98C296.149 583.167 296.636 582.54 297.263 582.1C297.903 581.66 298.649 581.44 299.503 581.44C300.209 581.44 300.823 581.6 301.343 581.92C301.863 582.227 302.256 582.707 302.523 583.36H302.603V577.2H304.203V592H302.603ZM299.943 590.8C300.436 590.8 300.883 590.72 301.283 590.56C301.683 590.387 302.003 590.147 302.243 589.84C302.483 589.52 302.603 589.14 302.603 588.7V584.86C302.603 584.473 302.483 584.133 302.243 583.84C302.003 583.547 301.683 583.313 301.283 583.14C300.883 582.967 300.436 582.88 299.943 582.88C299.049 582.88 298.336 583.167 297.803 583.74C297.283 584.3 297.023 585.04 297.023 585.96V587.72C297.023 588.64 297.283 589.387 297.803 589.96C298.336 590.52 299.049 590.8 299.943 590.8ZM313.964 592V590.32H313.884C313.684 590.813 313.364 591.26 312.924 591.66C312.498 592.047 311.851 592.24 310.984 592.24C309.931 592.24 309.084 591.9 308.444 591.22C307.818 590.527 307.504 589.553 307.504 588.3V581.68H309.104V588.02C309.104 588.94 309.304 589.633 309.704 590.1C310.104 590.567 310.691 590.8 311.464 590.8C311.891 590.8 312.291 590.733 312.664 590.6C313.051 590.453 313.364 590.233 313.604 589.94C313.844 589.647 313.964 589.273 313.964 588.82V581.68H315.564V592H313.964ZM322.091 592H320.671C320.125 592 319.705 591.847 319.411 591.54C319.118 591.22 318.971 590.82 318.971 590.34V577.2H320.571V590.6H322.091V592ZM328.603 592H326.603C326.056 592 325.636 591.84 325.343 591.52C325.05 591.2 324.903 590.793 324.903 590.3V583.08H323.203V581.68H324.163C324.51 581.68 324.743 581.613 324.863 581.48C324.996 581.333 325.063 581.087 325.063 580.74V578.82H326.503V581.68H328.763V583.08H326.503V590.6H328.603V592ZM334.435 592.24C333.488 592.24 332.688 592.06 332.035 591.7C331.381 591.327 330.821 590.833 330.355 590.22L331.495 589.3C331.895 589.793 332.341 590.18 332.835 590.46C333.328 590.74 333.901 590.88 334.555 590.88C335.235 590.88 335.761 590.733 336.135 590.44C336.521 590.147 336.715 589.733 336.715 589.2C336.715 588.8 336.581 588.453 336.315 588.16C336.061 587.867 335.595 587.673 334.915 587.58L334.095 587.46C333.468 587.367 332.901 587.213 332.395 587C331.888 586.773 331.488 586.46 331.195 586.06C330.915 585.647 330.775 585.12 330.775 584.48C330.775 583.453 331.121 582.693 331.815 582.2C332.521 581.693 333.401 581.44 334.455 581.44C335.015 581.44 335.508 581.507 335.935 581.64C336.375 581.773 336.768 581.967 337.115 582.22C337.461 582.46 337.775 582.753 338.055 583.1L336.995 584.06C336.768 583.74 336.435 583.453 335.995 583.2C335.555 582.933 335.001 582.8 334.335 582.8C333.681 582.8 333.181 582.947 332.835 583.24C332.488 583.52 332.315 583.907 332.315 584.4C332.315 584.893 332.481 585.26 332.815 585.5C333.161 585.727 333.655 585.893 334.295 586L335.095 586.12C336.241 586.293 337.055 586.627 337.535 587.12C338.015 587.6 338.255 588.233 338.255 589.02C338.255 589.687 338.101 590.26 337.795 590.74C337.488 591.22 337.048 591.593 336.475 591.86C335.901 592.113 335.221 592.24 334.435 592.24Z" fill="#000A55"/>
<path d="M107.219 488H106.319C105.892 488 105.546 487.913 105.279 487.74C105.012 487.553 104.819 487.3 104.699 486.98C104.579 486.66 104.519 486.293 104.519 485.88V485.74L105.139 486.32H104.439C104.226 486.947 103.852 487.427 103.319 487.76C102.799 488.08 102.179 488.24 101.459 488.24C100.366 488.24 99.5125 487.96 98.8991 487.4C98.2991 486.84 97.9991 486.08 97.9991 485.12C97.9991 484.467 98.1591 483.92 98.4791 483.48C98.7991 483.027 99.2791 482.687 99.9191 482.46C100.572 482.22 101.399 482.1 102.399 482.1H104.439V481.08C104.439 480.347 104.239 479.787 103.839 479.4C103.439 479.013 102.826 478.82 101.999 478.82C101.386 478.82 100.866 478.96 100.439 479.24C100.012 479.52 99.6591 479.893 99.3791 480.36L98.4191 479.46C98.6991 478.913 99.1458 478.44 99.7591 478.04C100.372 477.64 101.146 477.44 102.079 477.44C103.319 477.44 104.286 477.747 104.979 478.36C105.686 478.973 106.039 479.827 106.039 480.92V486.6H107.219V488ZM104.439 483.3H102.319C101.412 483.3 100.746 483.433 100.319 483.7C99.8925 483.967 99.6791 484.353 99.6791 484.86V485.28C99.6791 485.787 99.8658 486.18 100.239 486.46C100.612 486.74 101.106 486.88 101.719 486.88C102.252 486.88 102.719 486.8 103.119 486.64C103.532 486.467 103.852 486.24 104.079 485.96C104.319 485.667 104.439 485.347 104.439 485V483.3ZM116.103 488V486.32H116.023C115.716 486.96 115.309 487.44 114.803 487.76C114.309 488.08 113.709 488.24 113.003 488.24C112.149 488.24 111.403 488.02 110.763 487.58C110.136 487.14 109.649 486.513 109.303 485.7C108.969 484.887 108.803 483.933 108.803 482.84C108.803 481.733 108.969 480.78 109.303 479.98C109.649 479.167 110.136 478.54 110.763 478.1C111.403 477.66 112.149 477.44 113.003 477.44C113.709 477.44 114.323 477.6 114.843 477.92C115.363 478.227 115.756 478.707 116.023 479.36H116.103V473.2H117.703V488H116.103ZM113.443 486.8C113.936 486.8 114.383 486.72 114.783 486.56C115.183 486.387 115.503 486.147 115.743 485.84C115.983 485.52 116.103 485.14 116.103 484.7V480.86C116.103 480.473 115.983 480.133 115.743 479.84C115.503 479.547 115.183 479.313 114.783 479.14C114.383 478.967 113.936 478.88 113.443 478.88C112.549 478.88 111.836 479.167 111.303 479.74C110.783 480.3 110.523 481.04 110.523 481.96V483.72C110.523 484.64 110.783 485.387 111.303 485.96C111.836 486.52 112.549 486.8 113.443 486.8ZM127.464 488V486.32H127.384C127.184 486.813 126.864 487.26 126.424 487.66C125.998 488.047 125.351 488.24 124.484 488.24C123.431 488.24 122.584 487.9 121.944 487.22C121.318 486.527 121.004 485.553 121.004 484.3V477.68H122.604V484.02C122.604 484.94 122.804 485.633 123.204 486.1C123.604 486.567 124.191 486.8 124.964 486.8C125.391 486.8 125.791 486.733 126.164 486.6C126.551 486.453 126.864 486.233 127.104 485.94C127.344 485.647 127.464 485.273 127.464 484.82V477.68H129.064V488H127.464ZM135.591 488H134.171C133.625 488 133.205 487.847 132.911 487.54C132.618 487.22 132.471 486.82 132.471 486.34V473.2H134.071V486.6H135.591V488ZM142.103 488H140.103C139.556 488 139.136 487.84 138.843 487.52C138.55 487.2 138.403 486.793 138.403 486.3V479.08H136.703V477.68H137.663C138.01 477.68 138.243 477.613 138.363 477.48C138.496 477.333 138.563 477.087 138.563 476.74V474.82H140.003V477.68H142.263V479.08H140.003V486.6H142.103V488ZM147.935 488.24C146.988 488.24 146.188 488.06 145.535 487.7C144.881 487.327 144.321 486.833 143.855 486.22L144.995 485.3C145.395 485.793 145.841 486.18 146.335 486.46C146.828 486.74 147.401 486.88 148.055 486.88C148.735 486.88 149.261 486.733 149.635 486.44C150.021 486.147 150.215 485.733 150.215 485.2C150.215 484.8 150.081 484.453 149.815 484.16C149.561 483.867 149.095 483.673 148.415 483.58L147.595 483.46C146.968 483.367 146.401 483.213 145.895 483C145.388 482.773 144.988 482.46 144.695 482.06C144.415 481.647 144.275 481.12 144.275 480.48C144.275 479.453 144.621 478.693 145.315 478.2C146.021 477.693 146.901 477.44 147.955 477.44C148.515 477.44 149.008 477.507 149.435 477.64C149.875 477.773 150.268 477.967 150.615 478.22C150.961 478.46 151.275 478.753 151.555 479.1L150.495 480.06C150.268 479.74 149.935 479.453 149.495 479.2C149.055 478.933 148.501 478.8 147.835 478.8C147.181 478.8 146.681 478.947 146.335 479.24C145.988 479.52 145.815 479.907 145.815 480.4C145.815 480.893 145.981 481.26 146.315 481.5C146.661 481.727 147.155 481.893 147.795 482L148.595 482.12C149.741 482.293 150.555 482.627 151.035 483.12C151.515 483.6 151.755 484.233 151.755 485.02C151.755 485.687 151.601 486.26 151.295 486.74C150.988 487.22 150.548 487.593 149.975 487.86C149.401 488.113 148.721 488.24 147.935 488.24Z" fill="#680036"/>
<path d="M472.373 513.7L474.873 506.68H476.453L471.833 519.4C471.686 519.813 471.519 520.133 471.333 520.36C471.159 520.6 470.926 520.767 470.633 520.86C470.339 520.953 469.939 521 469.433 521H468.613V519.6H470.233L471.013 517.4L467.153 506.68H468.753L471.233 513.7L471.713 515.38H471.812L472.373 513.7ZM482.295 517.24C481.375 517.24 480.562 517.02 479.855 516.58C479.162 516.127 478.615 515.5 478.215 514.7C477.829 513.887 477.635 512.933 477.635 511.84C477.635 510.747 477.829 509.8 478.215 509C478.615 508.187 479.162 507.56 479.855 507.12C480.562 506.667 481.375 506.44 482.295 506.44C483.215 506.44 484.022 506.667 484.715 507.12C485.422 507.56 485.969 508.187 486.355 509C486.755 509.8 486.955 510.747 486.955 511.84C486.955 512.933 486.755 513.887 486.355 514.7C485.969 515.5 485.422 516.127 484.715 516.58C484.022 517.02 483.215 517.24 482.295 517.24ZM482.295 515.82C483.162 515.82 483.869 515.553 484.415 515.02C484.962 514.487 485.235 513.673 485.235 512.58V511.1C485.235 510.007 484.962 509.193 484.415 508.66C483.869 508.127 483.162 507.86 482.295 507.86C481.442 507.86 480.735 508.127 480.175 508.66C479.629 509.193 479.355 510.007 479.355 511.1V512.58C479.355 513.673 479.629 514.487 480.175 515.02C480.735 515.553 481.442 515.82 482.295 515.82ZM495.947 517V515.32H495.867C495.667 515.813 495.347 516.26 494.907 516.66C494.48 517.047 493.833 517.24 492.967 517.24C491.913 517.24 491.067 516.9 490.427 516.22C489.8 515.527 489.487 514.553 489.487 513.3V506.68H491.087V513.02C491.087 513.94 491.287 514.633 491.687 515.1C492.087 515.567 492.673 515.8 493.447 515.8C493.873 515.8 494.273 515.733 494.647 515.6C495.033 515.453 495.347 515.233 495.587 514.94C495.827 514.647 495.947 514.273 495.947 513.82V506.68H497.547V517H495.947ZM502.554 517H500.954V506.68H502.554V508.36H502.634C502.887 507.773 503.241 507.307 503.694 506.96C504.161 506.613 504.781 506.44 505.554 506.44C506.621 506.44 507.461 506.787 508.074 507.48C508.701 508.16 509.014 509.127 509.014 510.38V517H507.414V510.66C507.414 509.74 507.214 509.047 506.814 508.58C506.427 508.113 505.847 507.88 505.074 507.88C504.647 507.88 504.241 507.953 503.854 508.1C503.467 508.233 503.154 508.447 502.914 508.74C502.674 509.033 502.554 509.4 502.554 509.84V517ZM521.021 518.14C521.021 518.847 520.834 519.427 520.461 519.88C520.088 520.347 519.528 520.687 518.781 520.9C518.048 521.127 517.128 521.24 516.021 521.24C514.954 521.24 514.081 521.14 513.401 520.94C512.734 520.74 512.248 520.447 511.941 520.06C511.634 519.687 511.481 519.233 511.481 518.7C511.481 518.14 511.628 517.7 511.921 517.38C512.214 517.06 512.614 516.833 513.121 516.7V516.48C512.828 516.333 512.601 516.147 512.441 515.92C512.281 515.68 512.201 515.387 512.201 515.04C512.201 514.52 512.368 514.127 512.701 513.86C513.034 513.58 513.461 513.373 513.981 513.24V513.16C513.368 512.867 512.888 512.447 512.541 511.9C512.208 511.353 512.041 510.72 512.041 510C512.041 509.293 512.201 508.673 512.521 508.14C512.841 507.607 513.294 507.193 513.881 506.9C514.468 506.593 515.148 506.44 515.921 506.44C516.294 506.44 516.641 506.473 516.961 506.54C517.294 506.607 517.601 506.707 517.881 506.84V506.66C517.881 506.26 517.974 505.933 518.161 505.68C518.348 505.413 518.654 505.28 519.081 505.28H520.621V506.68H518.661V507.34C519.034 507.66 519.321 508.047 519.521 508.5C519.734 508.953 519.841 509.453 519.841 510C519.841 510.693 519.681 511.313 519.361 511.86C519.041 512.393 518.588 512.813 518.001 513.12C517.414 513.413 516.728 513.56 515.941 513.56C515.768 513.56 515.594 513.553 515.421 513.54C515.248 513.513 515.088 513.487 514.941 513.46C514.608 513.553 514.294 513.693 514.001 513.88C513.721 514.053 513.581 514.3 513.581 514.62C513.581 514.927 513.728 515.133 514.021 515.24C514.314 515.347 514.694 515.4 515.161 515.4H517.361C518.641 515.4 519.568 515.647 520.141 516.14C520.728 516.62 521.021 517.287 521.021 518.14ZM519.521 518.26C519.521 517.847 519.361 517.513 519.041 517.26C518.734 517.02 518.181 516.9 517.381 516.9H513.941C513.608 517.047 513.361 517.233 513.201 517.46C513.054 517.7 512.981 517.98 512.981 518.3C512.981 518.753 513.148 519.14 513.481 519.46C513.828 519.78 514.408 519.94 515.221 519.94H516.701C517.594 519.94 518.288 519.8 518.781 519.52C519.274 519.24 519.521 518.82 519.521 518.26ZM515.941 512.28C516.621 512.28 517.161 512.12 517.561 511.8C517.961 511.467 518.161 510.96 518.161 510.28V509.72C518.161 509.04 517.961 508.54 517.561 508.22C517.161 507.887 516.621 507.72 515.941 507.72C515.261 507.72 514.721 507.887 514.321 508.22C513.921 508.54 513.721 509.04 513.721 509.72V510.28C513.721 510.96 513.921 511.467 514.321 511.8C514.721 512.12 515.261 512.28 515.941 512.28ZM476.219 539H475.319C474.892 539 474.546 538.913 474.279 538.74C474.012 538.553 473.819 538.3 473.699 537.98C473.579 537.66 473.519 537.293 473.519 536.88V536.74L474.139 537.32H473.439C473.226 537.947 472.852 538.427 472.319 538.76C471.799 539.08 471.179 539.24 470.459 539.24C469.366 539.24 468.512 538.96 467.899 538.4C467.299 537.84 466.999 537.08 466.999 536.12C466.999 535.467 467.159 534.92 467.479 534.48C467.799 534.027 468.279 533.687 468.919 533.46C469.572 533.22 470.399 533.1 471.399 533.1H473.439V532.08C473.439 531.347 473.239 530.787 472.839 530.4C472.439 530.013 471.826 529.82 470.999 529.82C470.386 529.82 469.866 529.96 469.439 530.24C469.012 530.52 468.659 530.893 468.379 531.36L467.419 530.46C467.699 529.913 468.146 529.44 468.759 529.04C469.372 528.64 470.146 528.44 471.079 528.44C472.319 528.44 473.286 528.747 473.979 529.36C474.686 529.973 475.039 530.827 475.039 531.92V537.6H476.219V539ZM473.439 534.3H471.319C470.412 534.3 469.746 534.433 469.319 534.7C468.892 534.967 468.679 535.353 468.679 535.86V536.28C468.679 536.787 468.866 537.18 469.239 537.46C469.612 537.74 470.106 537.88 470.719 537.88C471.252 537.88 471.719 537.8 472.119 537.64C472.532 537.467 472.852 537.24 473.079 536.96C473.319 536.667 473.439 536.347 473.439 536V534.3ZM485.103 539V537.32H485.023C484.716 537.96 484.309 538.44 483.803 538.76C483.309 539.08 482.709 539.24 482.003 539.24C481.149 539.24 480.403 539.02 479.763 538.58C479.136 538.14 478.649 537.513 478.303 536.7C477.969 535.887 477.803 534.933 477.803 533.84C477.803 532.733 477.969 531.78 478.303 530.98C478.649 530.167 479.136 529.54 479.763 529.1C480.403 528.66 481.149 528.44 482.003 528.44C482.709 528.44 483.323 528.6 483.843 528.92C484.363 529.227 484.756 529.707 485.023 530.36H485.103V524.2H486.703V539H485.103ZM482.443 537.8C482.936 537.8 483.383 537.72 483.783 537.56C484.183 537.387 484.503 537.147 484.743 536.84C484.983 536.52 485.103 536.14 485.103 535.7V531.86C485.103 531.473 484.983 531.133 484.743 530.84C484.503 530.547 484.183 530.313 483.783 530.14C483.383 529.967 482.936 529.88 482.443 529.88C481.549 529.88 480.836 530.167 480.303 530.74C479.783 531.3 479.523 532.04 479.523 532.96V534.72C479.523 535.64 479.783 536.387 480.303 536.96C480.836 537.52 481.549 537.8 482.443 537.8ZM496.464 539V537.32H496.384C496.184 537.813 495.864 538.26 495.424 538.66C494.998 539.047 494.351 539.24 493.484 539.24C492.431 539.24 491.584 538.9 490.944 538.22C490.318 537.527 490.004 536.553 490.004 535.3V528.68H491.604V535.02C491.604 535.94 491.804 536.633 492.204 537.1C492.604 537.567 493.191 537.8 493.964 537.8C494.391 537.8 494.791 537.733 495.164 537.6C495.551 537.453 495.864 537.233 496.104 536.94C496.344 536.647 496.464 536.273 496.464 535.82V528.68H498.064V539H496.464ZM504.591 539H503.171C502.625 539 502.205 538.847 501.911 538.54C501.618 538.22 501.471 537.82 501.471 537.34V524.2H503.071V537.6H504.591V539ZM511.103 539H509.103C508.556 539 508.136 538.84 507.843 538.52C507.55 538.2 507.403 537.793 507.403 537.3V530.08H505.703V528.68H506.663C507.01 528.68 507.243 528.613 507.363 528.48C507.496 528.333 507.563 528.087 507.563 527.74V525.82H509.003V528.68H511.263V530.08H509.003V537.6H511.103V539ZM516.935 539.24C515.988 539.24 515.188 539.06 514.535 538.7C513.881 538.327 513.321 537.833 512.855 537.22L513.995 536.3C514.395 536.793 514.841 537.18 515.335 537.46C515.828 537.74 516.401 537.88 517.055 537.88C517.735 537.88 518.261 537.733 518.635 537.44C519.021 537.147 519.215 536.733 519.215 536.2C519.215 535.8 519.081 535.453 518.815 535.16C518.561 534.867 518.095 534.673 517.415 534.58L516.595 534.46C515.968 534.367 515.401 534.213 514.895 534C514.388 533.773 513.988 533.46 513.695 533.06C513.415 532.647 513.275 532.12 513.275 531.48C513.275 530.453 513.621 529.693 514.315 529.2C515.021 528.693 515.901 528.44 516.955 528.44C517.515 528.44 518.008 528.507 518.435 528.64C518.875 528.773 519.268 528.967 519.615 529.22C519.961 529.46 520.275 529.753 520.555 530.1L519.495 531.06C519.268 530.74 518.935 530.453 518.495 530.2C518.055 529.933 517.501 529.8 516.835 529.8C516.181 529.8 515.681 529.947 515.335 530.24C514.988 530.52 514.815 530.907 514.815 531.4C514.815 531.893 514.981 532.26 515.315 532.5C515.661 532.727 516.155 532.893 516.795 533L517.595 533.12C518.741 533.293 519.555 533.627 520.035 534.12C520.515 534.6 520.755 535.233 520.755 536.02C520.755 536.687 520.601 537.26 520.295 537.74C519.988 538.22 519.548 538.593 518.975 538.86C518.401 539.113 517.721 539.24 516.935 539.24Z" fill="#000A55"/>
<path d="M51.3725 309.7L53.8725 302.68H55.4525L50.8325 315.4C50.6858 315.813 50.5192 316.133 50.3325 316.36C50.1592 316.6 49.9258 316.767 49.6325 316.86C49.3392 316.953 48.9392 317 48.4325 317H47.6125V315.6H49.2325L50.0125 313.4L46.1525 302.68H47.7525L50.2325 309.7L50.7125 311.38H50.8125L51.3725 309.7ZM61.2953 313.24C60.3753 313.24 59.562 313.02 58.8553 312.58C58.162 312.127 57.6153 311.5 57.2153 310.7C56.8286 309.887 56.6353 308.933 56.6353 307.84C56.6353 306.747 56.8286 305.8 57.2153 305C57.6153 304.187 58.162 303.56 58.8553 303.12C59.562 302.667 60.3753 302.44 61.2953 302.44C62.2153 302.44 63.022 302.667 63.7153 303.12C64.422 303.56 64.9686 304.187 65.3553 305C65.7553 305.8 65.9553 306.747 65.9553 307.84C65.9553 308.933 65.7553 309.887 65.3553 310.7C64.9686 311.5 64.422 312.127 63.7153 312.58C63.022 313.02 62.2153 313.24 61.2953 313.24ZM61.2953 311.82C62.162 311.82 62.8686 311.553 63.4153 311.02C63.962 310.487 64.2353 309.673 64.2353 308.58V307.1C64.2353 306.007 63.962 305.193 63.4153 304.66C62.8686 304.127 62.162 303.86 61.2953 303.86C60.442 303.86 59.7353 304.127 59.1753 304.66C58.6286 305.193 58.3553 306.007 58.3553 307.1V308.58C58.3553 309.673 58.6286 310.487 59.1753 311.02C59.7353 311.553 60.442 311.82 61.2953 311.82ZM74.9467 313V311.32H74.8667C74.6667 311.813 74.3467 312.26 73.9067 312.66C73.4801 313.047 72.8334 313.24 71.9667 313.24C70.9134 313.24 70.0667 312.9 69.4267 312.22C68.8001 311.527 68.4867 310.553 68.4867 309.3V302.68H70.0867V309.02C70.0867 309.94 70.2867 310.633 70.6867 311.1C71.0867 311.567 71.6734 311.8 72.4467 311.8C72.8734 311.8 73.2734 311.733 73.6467 311.6C74.0334 311.453 74.3467 311.233 74.5867 310.94C74.8267 310.647 74.9467 310.273 74.9467 309.82V302.68H76.5467V313H74.9467ZM81.5539 313H79.9539V302.68H81.5539V304.36H81.6339C81.8872 303.773 82.2406 303.307 82.6939 302.96C83.1606 302.613 83.7806 302.44 84.5539 302.44C85.6206 302.44 86.4606 302.787 87.0739 303.48C87.7006 304.16 88.0139 305.127 88.0139 306.38V313H86.4139V306.66C86.4139 305.74 86.2139 305.047 85.8139 304.58C85.4272 304.113 84.8472 303.88 84.0739 303.88C83.6472 303.88 83.2406 303.953 82.8539 304.1C82.4672 304.233 82.1539 304.447 81.9139 304.74C81.6739 305.033 81.5539 305.4 81.5539 305.84V313ZM100.021 314.14C100.021 314.847 99.8344 315.427 99.4611 315.88C99.0878 316.347 98.5278 316.687 97.7811 316.9C97.0478 317.127 96.1278 317.24 95.0211 317.24C93.9544 317.24 93.0811 317.14 92.4011 316.94C91.7344 316.74 91.2478 316.447 90.9411 316.06C90.6344 315.687 90.4811 315.233 90.4811 314.7C90.4811 314.14 90.6278 313.7 90.9211 313.38C91.2144 313.06 91.6144 312.833 92.1211 312.7V312.48C91.8278 312.333 91.6011 312.147 91.4411 311.92C91.2811 311.68 91.2011 311.387 91.2011 311.04C91.2011 310.52 91.3678 310.127 91.7011 309.86C92.0344 309.58 92.4611 309.373 92.9811 309.24V309.16C92.3678 308.867 91.8878 308.447 91.5411 307.9C91.2078 307.353 91.0411 306.72 91.0411 306C91.0411 305.293 91.2011 304.673 91.5211 304.14C91.8411 303.607 92.2944 303.193 92.8811 302.9C93.4678 302.593 94.1478 302.44 94.9211 302.44C95.2944 302.44 95.6411 302.473 95.9611 302.54C96.2944 302.607 96.6011 302.707 96.8811 302.84V302.66C96.8811 302.26 96.9744 301.933 97.1611 301.68C97.3478 301.413 97.6544 301.28 98.0811 301.28H99.6211V302.68H97.6611V303.34C98.0344 303.66 98.3211 304.047 98.5211 304.5C98.7344 304.953 98.8411 305.453 98.8411 306C98.8411 306.693 98.6811 307.313 98.3611 307.86C98.0411 308.393 97.5878 308.813 97.0011 309.12C96.4144 309.413 95.7278 309.56 94.9411 309.56C94.7678 309.56 94.5944 309.553 94.4211 309.54C94.2478 309.513 94.0878 309.487 93.9411 309.46C93.6078 309.553 93.2944 309.693 93.0011 309.88C92.7211 310.053 92.5811 310.3 92.5811 310.62C92.5811 310.927 92.7278 311.133 93.0211 311.24C93.3144 311.347 93.6944 311.4 94.1611 311.4H96.3611C97.6411 311.4 98.5678 311.647 99.1411 312.14C99.7278 312.62 100.021 313.287 100.021 314.14ZM98.5211 314.26C98.5211 313.847 98.3611 313.513 98.0411 313.26C97.7344 313.02 97.1811 312.9 96.3811 312.9H92.9411C92.6078 313.047 92.3611 313.233 92.2011 313.46C92.0544 313.7 91.9811 313.98 91.9811 314.3C91.9811 314.753 92.1478 315.14 92.4811 315.46C92.8278 315.78 93.4078 315.94 94.2211 315.94H95.7011C96.5944 315.94 97.2878 315.8 97.7811 315.52C98.2744 315.24 98.5211 314.82 98.5211 314.26ZM94.9411 308.28C95.6211 308.28 96.1611 308.12 96.5611 307.8C96.9611 307.467 97.1611 306.96 97.1611 306.28V305.72C97.1611 305.04 96.9611 304.54 96.5611 304.22C96.1611 303.887 95.6211 303.72 94.9411 303.72C94.2611 303.72 93.7211 303.887 93.3211 304.22C92.9211 304.54 92.7211 305.04 92.7211 305.72V306.28C92.7211 306.96 92.9211 307.467 93.3211 307.8C93.7211 308.12 94.2611 308.28 94.9411 308.28ZM55.2191 335H54.3191C53.8925 335 53.5458 334.913 53.2791 334.74C53.0125 334.553 52.8191 334.3 52.6991 333.98C52.5791 333.66 52.5191 333.293 52.5191 332.88V332.74L53.1391 333.32H52.4391C52.2258 333.947 51.8525 334.427 51.3191 334.76C50.7991 335.08 50.1791 335.24 49.4591 335.24C48.3658 335.24 47.5125 334.96 46.8991 334.4C46.2991 333.84 45.9991 333.08 45.9991 332.12C45.9991 331.467 46.1591 330.92 46.4791 330.48C46.7991 330.027 47.2791 329.687 47.9191 329.46C48.5725 329.22 49.3991 329.1 50.3991 329.1H52.4391V328.08C52.4391 327.347 52.2391 326.787 51.8391 326.4C51.4391 326.013 50.8258 325.82 49.9991 325.82C49.3858 325.82 48.8658 325.96 48.4391 326.24C48.0125 326.52 47.6591 326.893 47.3791 327.36L46.4191 326.46C46.6991 325.913 47.1458 325.44 47.7591 325.04C48.3725 324.64 49.1458 324.44 50.0791 324.44C51.3191 324.44 52.2858 324.747 52.9791 325.36C53.6858 325.973 54.0391 326.827 54.0391 327.92V333.6H55.2191V335ZM52.4391 330.3H50.3191C49.4125 330.3 48.7458 330.433 48.3191 330.7C47.8925 330.967 47.6791 331.353 47.6791 331.86V332.28C47.6791 332.787 47.8658 333.18 48.2391 333.46C48.6125 333.74 49.1058 333.88 49.7191 333.88C50.2525 333.88 50.7191 333.8 51.1191 333.64C51.5325 333.467 51.8525 333.24 52.0791 332.96C52.3191 332.667 52.4391 332.347 52.4391 332V330.3ZM64.1027 335V333.32H64.0227C63.7161 333.96 63.3094 334.44 62.8027 334.76C62.3094 335.08 61.7094 335.24 61.0027 335.24C60.1494 335.24 59.4027 335.02 58.7627 334.58C58.1361 334.14 57.6494 333.513 57.3027 332.7C56.9694 331.887 56.8027 330.933 56.8027 329.84C56.8027 328.733 56.9694 327.78 57.3027 326.98C57.6494 326.167 58.1361 325.54 58.7627 325.1C59.4027 324.66 60.1494 324.44 61.0027 324.44C61.7094 324.44 62.3227 324.6 62.8427 324.92C63.3627 325.227 63.7561 325.707 64.0227 326.36H64.1027V320.2H65.7027V335H64.1027ZM61.4427 333.8C61.9361 333.8 62.3827 333.72 62.7827 333.56C63.1827 333.387 63.5027 333.147 63.7427 332.84C63.9827 332.52 64.1027 332.14 64.1027 331.7V327.86C64.1027 327.473 63.9827 327.133 63.7427 326.84C63.5027 326.547 63.1827 326.313 62.7827 326.14C62.3827 325.967 61.9361 325.88 61.4427 325.88C60.5494 325.88 59.8361 326.167 59.3027 326.74C58.7827 327.3 58.5227 328.04 58.5227 328.96V330.72C58.5227 331.64 58.7827 332.387 59.3027 332.96C59.8361 333.52 60.5494 333.8 61.4427 333.8ZM75.4643 335V333.32H75.3843C75.1843 333.813 74.8643 334.26 74.4243 334.66C73.9976 335.047 73.351 335.24 72.4843 335.24C71.431 335.24 70.5843 334.9 69.9443 334.22C69.3176 333.527 69.0043 332.553 69.0043 331.3V324.68H70.6043V331.02C70.6043 331.94 70.8043 332.633 71.2043 333.1C71.6043 333.567 72.191 333.8 72.9643 333.8C73.391 333.8 73.791 333.733 74.1643 333.6C74.551 333.453 74.8643 333.233 75.1043 332.94C75.3443 332.647 75.4643 332.273 75.4643 331.82V324.68H77.0643V335H75.4643ZM83.5915 335H82.1715C81.6248 335 81.2048 334.847 80.9115 334.54C80.6182 334.22 80.4715 333.82 80.4715 333.34V320.2H82.0715V333.6H83.5915V335ZM90.103 335H88.103C87.5564 335 87.1364 334.84 86.843 334.52C86.5497 334.2 86.403 333.793 86.403 333.3V326.08H84.703V324.68H85.663C86.0097 324.68 86.243 324.613 86.363 324.48C86.4964 324.333 86.563 324.087 86.563 323.74V321.82H88.003V324.68H90.263V326.08H88.003V333.6H90.103V335ZM95.9348 335.24C94.9881 335.24 94.1881 335.06 93.5348 334.7C92.8814 334.327 92.3214 333.833 91.8548 333.22L92.9948 332.3C93.3948 332.793 93.8414 333.18 94.3348 333.46C94.8281 333.74 95.4014 333.88 96.0548 333.88C96.7348 333.88 97.2614 333.733 97.6348 333.44C98.0214 333.147 98.2148 332.733 98.2148 332.2C98.2148 331.8 98.0814 331.453 97.8148 331.16C97.5614 330.867 97.0948 330.673 96.4148 330.58L95.5948 330.46C94.9681 330.367 94.4014 330.213 93.8948 330C93.3881 329.773 92.9881 329.46 92.6948 329.06C92.4148 328.647 92.2748 328.12 92.2748 327.48C92.2748 326.453 92.6214 325.693 93.3148 325.2C94.0214 324.693 94.9014 324.44 95.9548 324.44C96.5148 324.44 97.0081 324.507 97.4348 324.64C97.8748 324.773 98.2681 324.967 98.6148 325.22C98.9614 325.46 99.2748 325.753 99.5548 326.1L98.4948 327.06C98.2681 326.74 97.9348 326.453 97.4948 326.2C97.0548 325.933 96.5014 325.8 95.8348 325.8C95.1814 325.8 94.6814 325.947 94.3348 326.24C93.9881 326.52 93.8148 326.907 93.8148 327.4C93.8148 327.893 93.9814 328.26 94.3148 328.5C94.6614 328.727 95.1548 328.893 95.7948 329L96.5948 329.12C97.7414 329.293 98.5548 329.627 99.0348 330.12C99.5148 330.6 99.7548 331.233 99.7548 332.02C99.7548 332.687 99.6014 333.26 99.2948 333.74C98.9881 334.22 98.5481 334.593 97.9748 334.86C97.4014 335.113 96.7214 335.24 95.9348 335.24Z" fill="#680036"/>
<path d="M90.98 205H88.98C88.4333 205 88.0133 204.84 87.72 204.52C87.4267 204.2 87.28 203.793 87.28 203.3V196.08H85.58V194.68H86.54C86.8867 194.68 87.12 194.613 87.24 194.48C87.3733 194.333 87.44 194.087 87.44 193.74V191.82H88.88V194.68H91.14V196.08H88.88V203.6H90.98V205ZM97.5136 205.24C96.5803 205.24 95.7669 205.02 95.0736 204.58C94.3803 204.127 93.8403 203.5 93.4536 202.7C93.0669 201.887 92.8736 200.933 92.8736 199.84C92.8736 198.747 93.0669 197.8 93.4536 197C93.8403 196.187 94.3803 195.56 95.0736 195.12C95.7669 194.667 96.5803 194.44 97.5136 194.44C98.4336 194.44 99.2269 194.66 99.8936 195.1C100.56 195.527 101.074 196.12 101.434 196.88C101.794 197.64 101.974 198.507 101.974 199.48V200.24H94.5536V200.72C94.5536 201.613 94.8203 202.36 95.3536 202.96C95.9003 203.547 96.6536 203.84 97.6136 203.84C98.2669 203.84 98.8336 203.687 99.3136 203.38C99.8069 203.073 100.187 202.633 100.454 202.06L101.594 202.88C101.26 203.573 100.74 204.14 100.034 204.58C99.3269 205.02 98.4869 205.24 97.5136 205.24ZM97.5136 195.78C96.9403 195.78 96.4269 195.913 95.9736 196.18C95.5336 196.447 95.1869 196.82 94.9336 197.3C94.6803 197.767 94.5536 198.3 94.5536 198.9V199.04H100.254V198.82C100.254 198.207 100.14 197.673 99.9136 197.22C99.6869 196.767 99.3669 196.413 98.9536 196.16C98.5403 195.907 98.0603 195.78 97.5136 195.78ZM108.49 205.24C107.557 205.24 106.743 205.02 106.05 204.58C105.357 204.127 104.817 203.5 104.43 202.7C104.043 201.887 103.85 200.933 103.85 199.84C103.85 198.747 104.043 197.8 104.43 197C104.817 196.187 105.357 195.56 106.05 195.12C106.743 194.667 107.557 194.44 108.49 194.44C109.41 194.44 110.203 194.66 110.87 195.1C111.537 195.527 112.05 196.12 112.41 196.88C112.77 197.64 112.95 198.507 112.95 199.48V200.24H105.53V200.72C105.53 201.613 105.797 202.36 106.33 202.96C106.877 203.547 107.63 203.84 108.59 203.84C109.243 203.84 109.81 203.687 110.29 203.38C110.783 203.073 111.163 202.633 111.43 202.06L112.57 202.88C112.237 203.573 111.717 204.14 111.01 204.58C110.303 205.02 109.463 205.24 108.49 205.24ZM108.49 195.78C107.917 195.78 107.403 195.913 106.95 196.18C106.51 196.447 106.163 196.82 105.91 197.3C105.657 197.767 105.53 198.3 105.53 198.9V199.04H111.23V198.82C111.23 198.207 111.117 197.673 110.89 197.22C110.663 196.767 110.343 196.413 109.93 196.16C109.517 195.907 109.037 195.78 108.49 195.78ZM117.187 205H115.587V194.68H117.187V196.36H117.267C117.52 195.773 117.873 195.307 118.327 194.96C118.793 194.613 119.413 194.44 120.187 194.44C121.253 194.44 122.093 194.787 122.707 195.48C123.333 196.16 123.647 197.127 123.647 198.38V205H122.047V198.66C122.047 197.74 121.847 197.047 121.447 196.58C121.06 196.113 120.48 195.88 119.707 195.88C119.28 195.88 118.873 195.953 118.487 196.1C118.1 196.233 117.787 196.447 117.547 196.74C117.307 197.033 117.187 197.4 117.187 197.84V205ZM130.054 205.24C129.107 205.24 128.307 205.06 127.654 204.7C127.001 204.327 126.441 203.833 125.974 203.22L127.114 202.3C127.514 202.793 127.961 203.18 128.454 203.46C128.947 203.74 129.521 203.88 130.174 203.88C130.854 203.88 131.381 203.733 131.754 203.44C132.141 203.147 132.334 202.733 132.334 202.2C132.334 201.8 132.201 201.453 131.934 201.16C131.681 200.867 131.214 200.673 130.534 200.58L129.714 200.46C129.087 200.367 128.521 200.213 128.014 200C127.507 199.773 127.107 199.46 126.814 199.06C126.534 198.647 126.394 198.12 126.394 197.48C126.394 196.453 126.741 195.693 127.434 195.2C128.141 194.693 129.021 194.44 130.074 194.44C130.634 194.44 131.127 194.507 131.554 194.64C131.994 194.773 132.387 194.967 132.734 195.22C133.081 195.46 133.394 195.753 133.674 196.1L132.614 197.06C132.387 196.74 132.054 196.453 131.614 196.2C131.174 195.933 130.621 195.8 129.954 195.8C129.301 195.8 128.801 195.947 128.454 196.24C128.107 196.52 127.934 196.907 127.934 197.4C127.934 197.893 128.101 198.26 128.434 198.5C128.781 198.727 129.274 198.893 129.914 199L130.714 199.12C131.861 199.293 132.674 199.627 133.154 200.12C133.634 200.6 133.874 201.233 133.874 202.02C133.874 202.687 133.721 203.26 133.414 203.74C133.107 204.22 132.667 204.593 132.094 204.86C131.521 205.113 130.841 205.24 130.054 205.24Z" fill="#680036"/>
<path d="M546.98 423H544.98C544.433 423 544.013 422.84 543.72 422.52C543.427 422.2 543.28 421.793 543.28 421.3V414.08H541.58V412.68H542.54C542.887 412.68 543.12 412.613 543.24 412.48C543.373 412.333 543.44 412.087 543.44 411.74V409.82H544.88V412.68H547.14V414.08H544.88V421.6H546.98V423ZM553.514 423.24C552.58 423.24 551.767 423.02 551.074 422.58C550.38 422.127 549.84 421.5 549.454 420.7C549.067 419.887 548.874 418.933 548.874 417.84C548.874 416.747 549.067 415.8 549.454 415C549.84 414.187 550.38 413.56 551.074 413.12C551.767 412.667 552.58 412.44 553.514 412.44C554.434 412.44 555.227 412.66 555.894 413.1C556.56 413.527 557.074 414.12 557.434 414.88C557.794 415.64 557.974 416.507 557.974 417.48V418.24H550.554V418.72C550.554 419.613 550.82 420.36 551.354 420.96C551.9 421.547 552.654 421.84 553.614 421.84C554.267 421.84 554.834 421.687 555.314 421.38C555.807 421.073 556.187 420.633 556.454 420.06L557.594 420.88C557.26 421.573 556.74 422.14 556.034 422.58C555.327 423.02 554.487 423.24 553.514 423.24ZM553.514 413.78C552.94 413.78 552.427 413.913 551.974 414.18C551.534 414.447 551.187 414.82 550.934 415.3C550.68 415.767 550.554 416.3 550.554 416.9V417.04H556.254V416.82C556.254 416.207 556.14 415.673 555.914 415.22C555.687 414.767 555.367 414.413 554.954 414.16C554.54 413.907 554.06 413.78 553.514 413.78ZM564.49 423.24C563.557 423.24 562.743 423.02 562.05 422.58C561.357 422.127 560.817 421.5 560.43 420.7C560.043 419.887 559.85 418.933 559.85 417.84C559.85 416.747 560.043 415.8 560.43 415C560.817 414.187 561.357 413.56 562.05 413.12C562.743 412.667 563.557 412.44 564.49 412.44C565.41 412.44 566.203 412.66 566.87 413.1C567.537 413.527 568.05 414.12 568.41 414.88C568.77 415.64 568.95 416.507 568.95 417.48V418.24H561.53V418.72C561.53 419.613 561.797 420.36 562.33 420.96C562.877 421.547 563.63 421.84 564.59 421.84C565.243 421.84 565.81 421.687 566.29 421.38C566.783 421.073 567.163 420.633 567.43 420.06L568.57 420.88C568.237 421.573 567.717 422.14 567.01 422.58C566.303 423.02 565.463 423.24 564.49 423.24ZM564.49 413.78C563.917 413.78 563.403 413.913 562.95 414.18C562.51 414.447 562.163 414.82 561.91 415.3C561.657 415.767 561.53 416.3 561.53 416.9V417.04H567.23V416.82C567.23 416.207 567.117 415.673 566.89 415.22C566.663 414.767 566.343 414.413 565.93 414.16C565.517 413.907 565.037 413.78 564.49 413.78ZM573.187 423H571.587V412.68H573.187V414.36H573.267C573.52 413.773 573.873 413.307 574.327 412.96C574.793 412.613 575.413 412.44 576.187 412.44C577.253 412.44 578.093 412.787 578.707 413.48C579.333 414.16 579.647 415.127 579.647 416.38V423H578.047V416.66C578.047 415.74 577.847 415.047 577.447 414.58C577.06 414.113 576.48 413.88 575.707 413.88C575.28 413.88 574.873 413.953 574.487 414.1C574.1 414.233 573.787 414.447 573.547 414.74C573.307 415.033 573.187 415.4 573.187 415.84V423ZM586.054 423.24C585.107 423.24 584.307 423.06 583.654 422.7C583.001 422.327 582.441 421.833 581.974 421.22L583.114 420.3C583.514 420.793 583.961 421.18 584.454 421.46C584.947 421.74 585.521 421.88 586.174 421.88C586.854 421.88 587.381 421.733 587.754 421.44C588.141 421.147 588.334 420.733 588.334 420.2C588.334 419.8 588.201 419.453 587.934 419.16C587.681 418.867 587.214 418.673 586.534 418.58L585.714 418.46C585.087 418.367 584.521 418.213 584.014 418C583.507 417.773 583.107 417.46 582.814 417.06C582.534 416.647 582.394 416.12 582.394 415.48C582.394 414.453 582.741 413.693 583.434 413.2C584.141 412.693 585.021 412.44 586.074 412.44C586.634 412.44 587.127 412.507 587.554 412.64C587.994 412.773 588.387 412.967 588.734 413.22C589.081 413.46 589.394 413.753 589.674 414.1L588.614 415.06C588.387 414.74 588.054 414.453 587.614 414.2C587.174 413.933 586.621 413.8 585.954 413.8C585.301 413.8 584.801 413.947 584.454 414.24C584.107 414.52 583.934 414.907 583.934 415.4C583.934 415.893 584.101 416.26 584.434 416.5C584.781 416.727 585.274 416.893 585.914 417L586.714 417.12C587.861 417.293 588.674 417.627 589.154 418.12C589.634 418.6 589.874 419.233 589.874 420.02C589.874 420.687 589.721 421.26 589.414 421.74C589.107 422.22 588.667 422.593 588.094 422.86C587.521 423.113 586.841 423.24 586.054 423.24Z" fill="#000A55"/>
</g>
<defs>
<clipPath id="clip0_183_183">
<rect width="649" height="643" fill="white"/>
</clipPath>
</defs>
</svg>
