<svg width="649" height="643" viewBox="0 0 649 643" fill="none" xmlns="http://www.w3.org/2000/svg">
<g clip-path="url(#clip0_194_484)">
<path d="M117.765 115.68C110.016 107.808 110.076 95.091 118.421 87.8537C169.452 43.5936 233.325 16.8035 300.661 11.4182C311.671 10.5376 320.786 19.4069 320.97 30.4511L322.222 105.5C322.407 116.545 313.579 125.545 302.607 126.821C264.808 131.22 229.008 146.235 199.38 170.117C190.781 177.049 178.174 177.039 170.425 169.168L117.765 115.68Z" fill="#E186C2"/>
<path d="M326.299 31.6077C326.368 20.5623 335.388 11.597 346.406 12.3783C383.122 14.982 419.137 24.111 452.742 39.3895C492.425 57.4315 527.855 83.643 556.717 116.312C585.579 148.98 607.224 187.37 620.238 228.975C631.258 264.206 635.879 301.071 633.938 337.828C633.355 348.859 623.347 356.705 612.377 355.412L540.341 346.923C529.372 345.63 521.634 335.679 521.81 324.635C522.145 303.643 519.129 282.688 512.836 262.57C504.548 236.074 490.763 211.625 472.382 190.82C454.001 170.015 431.438 153.322 406.166 141.832C386.976 133.108 366.553 127.532 345.68 125.277C334.698 124.091 325.776 115.186 325.845 104.14L326.299 31.6077Z" fill="#6AAFD1"/>
<path d="M505.007 195.24C503.553 195.24 502.42 194.753 501.607 193.78C500.807 192.807 500.407 191.493 500.407 189.84C500.407 188.187 500.807 186.873 501.607 185.9C502.42 184.927 503.553 184.44 505.007 184.44C506.033 184.44 506.86 184.667 507.487 185.12C508.113 185.573 508.573 186.153 508.867 186.86L507.527 187.54C507.34 187.007 507.027 186.593 506.587 186.3C506.16 186.007 505.633 185.86 505.007 185.86C504.06 185.86 503.34 186.153 502.847 186.74C502.367 187.313 502.127 188.053 502.127 188.96V190.72C502.127 191.613 502.367 192.353 502.847 192.94C503.34 193.527 504.06 193.82 505.007 193.82C505.66 193.82 506.22 193.667 506.687 193.36C507.153 193.053 507.527 192.607 507.807 192.02L508.967 192.8C508.633 193.533 508.133 194.127 507.467 194.58C506.813 195.02 505.993 195.24 505.007 195.24ZM511.225 195V180.2H512.825V186.36H512.905C513.159 185.773 513.512 185.307 513.965 184.96C514.432 184.613 515.052 184.44 515.825 184.44C516.892 184.44 517.732 184.787 518.345 185.48C518.972 186.16 519.285 187.127 519.285 188.38V195H517.685V188.66C517.685 187.74 517.485 187.047 517.085 186.58C516.699 186.113 516.119 185.88 515.345 185.88C514.919 185.88 514.512 185.953 514.125 186.1C513.739 186.233 513.425 186.447 513.185 186.74C512.945 187.033 512.825 187.4 512.825 187.84V195H511.225ZM523.393 182.26C523.059 182.26 522.813 182.18 522.653 182.02C522.493 181.847 522.413 181.627 522.413 181.36V181.1C522.413 180.833 522.493 180.62 522.653 180.46C522.813 180.287 523.059 180.2 523.393 180.2C523.739 180.2 523.986 180.287 524.133 180.46C524.293 180.62 524.373 180.833 524.373 181.1V181.36C524.373 181.627 524.293 181.847 524.133 182.02C523.986 182.18 523.739 182.26 523.393 182.26ZM522.593 195V184.68H524.193V195H522.593ZM530.713 195H529.293C528.746 195 528.326 194.847 528.033 194.54C527.739 194.22 527.593 193.82 527.593 193.34V180.2H529.193V193.6H530.713V195ZM539.642 195V193.32H539.562C539.255 193.96 538.848 194.44 538.342 194.76C537.848 195.08 537.248 195.24 536.542 195.24C535.688 195.24 534.942 195.02 534.302 194.58C533.675 194.14 533.188 193.513 532.842 192.7C532.508 191.887 532.342 190.933 532.342 189.84C532.342 188.733 532.508 187.78 532.842 186.98C533.188 186.167 533.675 185.54 534.302 185.1C534.942 184.66 535.688 184.44 536.542 184.44C537.248 184.44 537.862 184.6 538.382 184.92C538.902 185.227 539.295 185.707 539.562 186.36H539.642V180.2H541.242V195H539.642ZM536.982 193.8C537.475 193.8 537.922 193.72 538.322 193.56C538.722 193.387 539.042 193.147 539.282 192.84C539.522 192.52 539.642 192.14 539.642 191.7V187.86C539.642 187.473 539.522 187.133 539.282 186.84C539.042 186.547 538.722 186.313 538.322 186.14C537.922 185.967 537.475 185.88 536.982 185.88C536.088 185.88 535.375 186.167 534.842 186.74C534.322 187.3 534.062 188.04 534.062 188.96V190.72C534.062 191.64 534.322 192.387 534.842 192.96C535.375 193.52 536.088 193.8 536.982 193.8ZM546.243 195H544.643V184.68H546.243V186.58H546.343C546.463 186.247 546.65 185.94 546.903 185.66C547.157 185.367 547.483 185.133 547.883 184.96C548.283 184.773 548.763 184.68 549.323 184.68H549.943V186.28H549.003C548.43 186.28 547.937 186.36 547.523 186.52C547.11 186.667 546.79 186.867 546.563 187.12C546.35 187.373 546.243 187.667 546.243 188V195ZM555.769 195.24C554.836 195.24 554.023 195.02 553.329 194.58C552.636 194.127 552.096 193.5 551.709 192.7C551.323 191.887 551.129 190.933 551.129 189.84C551.129 188.747 551.323 187.8 551.709 187C552.096 186.187 552.636 185.56 553.329 185.12C554.023 184.667 554.836 184.44 555.769 184.44C556.689 184.44 557.483 184.66 558.149 185.1C558.816 185.527 559.329 186.12 559.689 186.88C560.049 187.64 560.229 188.507 560.229 189.48V190.24H552.809V190.72C552.809 191.613 553.076 192.36 553.609 192.96C554.156 193.547 554.909 193.84 555.869 193.84C556.523 193.84 557.089 193.687 557.569 193.38C558.063 193.073 558.443 192.633 558.709 192.06L559.849 192.88C559.516 193.573 558.996 194.14 558.289 194.58C557.583 195.02 556.743 195.24 555.769 195.24ZM555.769 185.78C555.196 185.78 554.683 185.913 554.229 186.18C553.789 186.447 553.443 186.82 553.189 187.3C552.936 187.767 552.809 188.3 552.809 188.9V189.04H558.509V188.82C558.509 188.207 558.396 187.673 558.169 187.22C557.943 186.767 557.623 186.413 557.209 186.16C556.796 185.907 556.316 185.78 555.769 185.78ZM564.466 195H562.866V184.68H564.466V186.36H564.546C564.799 185.773 565.153 185.307 565.606 184.96C566.073 184.613 566.693 184.44 567.466 184.44C568.533 184.44 569.373 184.787 569.986 185.48C570.613 186.16 570.926 187.127 570.926 188.38V195H569.326V188.66C569.326 187.74 569.126 187.047 568.726 186.58C568.339 186.113 567.759 185.88 566.986 185.88C566.559 185.88 566.153 185.953 565.766 186.1C565.379 186.233 565.066 186.447 564.826 186.74C564.586 187.033 564.466 187.4 564.466 187.84V195Z" fill="#000A55"/>
<path d="M196.007 107.24C194.553 107.24 193.42 106.753 192.607 105.78C191.807 104.807 191.407 103.493 191.407 101.84C191.407 100.187 191.807 98.8733 192.607 97.9C193.42 96.9267 194.553 96.44 196.007 96.44C197.033 96.44 197.86 96.6667 198.487 97.12C199.113 97.5733 199.573 98.1533 199.867 98.86L198.527 99.54C198.34 99.0067 198.027 98.5933 197.587 98.3C197.16 98.0067 196.633 97.86 196.007 97.86C195.06 97.86 194.34 98.1533 193.847 98.74C193.367 99.3133 193.127 100.053 193.127 100.96V102.72C193.127 103.613 193.367 104.353 193.847 104.94C194.34 105.527 195.06 105.82 196.007 105.82C196.66 105.82 197.22 105.667 197.687 105.36C198.153 105.053 198.527 104.607 198.807 104.02L199.967 104.8C199.633 105.533 199.133 106.127 198.467 106.58C197.813 107.02 196.993 107.24 196.007 107.24ZM202.225 107V92.2H203.825V98.36H203.905C204.159 97.7733 204.512 97.3067 204.965 96.96C205.432 96.6133 206.052 96.44 206.825 96.44C207.892 96.44 208.732 96.7867 209.345 97.48C209.972 98.16 210.285 99.1267 210.285 100.38V107H208.685V100.66C208.685 99.74 208.485 99.0467 208.085 98.58C207.699 98.1133 207.119 97.88 206.345 97.88C205.919 97.88 205.512 97.9533 205.125 98.1C204.739 98.2333 204.425 98.4467 204.185 98.74C203.945 99.0333 203.825 99.4 203.825 99.84V107H202.225ZM214.393 94.26C214.059 94.26 213.813 94.18 213.653 94.02C213.493 93.8467 213.413 93.6267 213.413 93.36V93.1C213.413 92.8333 213.493 92.62 213.653 92.46C213.813 92.2867 214.059 92.2 214.393 92.2C214.739 92.2 214.986 92.2867 215.133 92.46C215.293 92.62 215.373 92.8333 215.373 93.1V93.36C215.373 93.6267 215.293 93.8467 215.133 94.02C214.986 94.18 214.739 94.26 214.393 94.26ZM213.593 107V96.68H215.193V107H213.593ZM221.713 107H220.293C219.746 107 219.326 106.847 219.033 106.54C218.739 106.22 218.593 105.82 218.593 105.34V92.2H220.193V105.6H221.713V107ZM230.642 107V105.32H230.562C230.255 105.96 229.848 106.44 229.342 106.76C228.848 107.08 228.248 107.24 227.542 107.24C226.688 107.24 225.942 107.02 225.302 106.58C224.675 106.14 224.188 105.513 223.842 104.7C223.508 103.887 223.342 102.933 223.342 101.84C223.342 100.733 223.508 99.78 223.842 98.98C224.188 98.1667 224.675 97.54 225.302 97.1C225.942 96.66 226.688 96.44 227.542 96.44C228.248 96.44 228.862 96.6 229.382 96.92C229.902 97.2267 230.295 97.7067 230.562 98.36H230.642V92.2H232.242V107H230.642ZM227.982 105.8C228.475 105.8 228.922 105.72 229.322 105.56C229.722 105.387 230.042 105.147 230.282 104.84C230.522 104.52 230.642 104.14 230.642 103.7V99.86C230.642 99.4733 230.522 99.1333 230.282 98.84C230.042 98.5467 229.722 98.3133 229.322 98.14C228.922 97.9667 228.475 97.88 227.982 97.88C227.088 97.88 226.375 98.1667 225.842 98.74C225.322 99.3 225.062 100.04 225.062 100.96V102.72C225.062 103.64 225.322 104.387 225.842 104.96C226.375 105.52 227.088 105.8 227.982 105.8ZM237.243 107H235.643V96.68H237.243V98.58H237.343C237.463 98.2467 237.65 97.94 237.903 97.66C238.157 97.3667 238.483 97.1333 238.883 96.96C239.283 96.7733 239.763 96.68 240.323 96.68H240.943V98.28H240.003C239.43 98.28 238.937 98.36 238.523 98.52C238.11 98.6667 237.79 98.8667 237.563 99.12C237.35 99.3733 237.243 99.6667 237.243 100V107ZM246.769 107.24C245.836 107.24 245.023 107.02 244.329 106.58C243.636 106.127 243.096 105.5 242.709 104.7C242.323 103.887 242.129 102.933 242.129 101.84C242.129 100.747 242.323 99.8 242.709 99C243.096 98.1867 243.636 97.56 244.329 97.12C245.023 96.6667 245.836 96.44 246.769 96.44C247.689 96.44 248.483 96.66 249.149 97.1C249.816 97.5267 250.329 98.12 250.689 98.88C251.049 99.64 251.229 100.507 251.229 101.48V102.24H243.809V102.72C243.809 103.613 244.076 104.36 244.609 104.96C245.156 105.547 245.909 105.84 246.869 105.84C247.523 105.84 248.089 105.687 248.569 105.38C249.063 105.073 249.443 104.633 249.709 104.06L250.849 104.88C250.516 105.573 249.996 106.14 249.289 106.58C248.583 107.02 247.743 107.24 246.769 107.24ZM246.769 97.78C246.196 97.78 245.683 97.9133 245.229 98.18C244.789 98.4467 244.443 98.82 244.189 99.3C243.936 99.7667 243.809 100.3 243.809 100.9V101.04H249.509V100.82C249.509 100.207 249.396 99.6733 249.169 99.22C248.943 98.7667 248.623 98.4133 248.209 98.16C247.796 97.9067 247.316 97.78 246.769 97.78ZM255.466 107H253.866V96.68H255.466V98.36H255.546C255.799 97.7733 256.153 97.3067 256.606 96.96C257.073 96.6133 257.693 96.44 258.466 96.44C259.533 96.44 260.373 96.7867 260.986 97.48C261.613 98.16 261.926 99.1267 261.926 100.38V107H260.326V100.66C260.326 99.74 260.126 99.0467 259.726 98.58C259.339 98.1133 258.759 97.88 257.986 97.88C257.559 97.88 257.153 97.9533 256.766 98.1C256.379 98.2333 256.066 98.4467 255.826 98.74C255.586 99.0333 255.466 99.4 255.466 99.84V107Z" fill="#680036"/>
<path d="M207.28 83H197.56V80.58H201.32V71.22H201.14L198.3 74.94L196.38 73.44L199.72 69.04H204.32V80.58H207.28V83ZM218.692 80.48V83H208.812V80.26L213.112 76.58C213.899 75.9133 214.445 75.3467 214.752 74.88C215.059 74.4 215.212 73.8667 215.212 73.28V73C215.212 72.4667 215.019 72.0667 214.632 71.8C214.245 71.5333 213.825 71.4 213.372 71.4C212.719 71.4 212.219 71.5933 211.872 71.98C211.525 72.3667 211.279 72.8267 211.132 73.36L208.512 72.36C208.725 71.7067 209.045 71.1133 209.472 70.58C209.912 70.0467 210.479 69.62 211.172 69.3C211.865 68.9667 212.692 68.8 213.652 68.8C214.665 68.8 215.525 68.9867 216.232 69.36C216.939 69.72 217.479 70.2133 217.852 70.84C218.225 71.4667 218.412 72.1867 218.412 73C218.412 73.8 218.239 74.5133 217.892 75.14C217.559 75.7533 217.105 76.3267 216.532 76.86C215.972 77.38 215.359 77.9067 214.692 78.44L212.092 80.48H218.692ZM222.764 83.22C222.164 83.22 221.717 83.0667 221.424 82.76C221.144 82.4533 221.004 82.0733 221.004 81.62V81.22C221.004 80.7533 221.144 80.3733 221.424 80.08C221.717 79.7733 222.164 79.62 222.764 79.62C223.364 79.62 223.804 79.7733 224.084 80.08C224.377 80.3733 224.524 80.7533 224.524 81.22V81.62C224.524 82.0733 224.377 82.4533 224.084 82.76C223.804 83.0667 223.364 83.22 222.764 83.22ZM232.335 83H229.175L233.855 71.48H229.495V74.02H226.955V69.04H236.835V71.64L232.335 83ZM244.068 83H241.428L251.108 69.04H253.748L244.068 83ZM242.448 76.72C241.674 76.72 241.021 76.5733 240.488 76.28C239.954 75.9733 239.548 75.5267 239.268 74.94C238.988 74.3533 238.848 73.6267 238.848 72.76C238.848 71.8933 238.988 71.1667 239.268 70.58C239.548 69.9933 239.954 69.5533 240.488 69.26C241.021 68.9533 241.674 68.8 242.448 68.8C243.221 68.8 243.874 68.9533 244.408 69.26C244.941 69.5533 245.348 69.9933 245.628 70.58C245.908 71.1667 246.048 71.8933 246.048 72.76C246.048 73.6267 245.908 74.3533 245.628 74.94C245.348 75.5267 244.941 75.9733 244.408 76.28C243.874 76.5733 243.221 76.72 242.448 76.72ZM242.448 75C242.674 75 242.861 74.94 243.008 74.82C243.168 74.7 243.288 74.5133 243.368 74.26C243.448 74.0067 243.488 73.68 243.488 73.28V72.24C243.488 71.84 243.448 71.5133 243.368 71.26C243.288 71.0067 243.168 70.82 243.008 70.7C242.861 70.58 242.674 70.52 242.448 70.52C242.221 70.52 242.028 70.58 241.868 70.7C241.721 70.82 241.608 71.0067 241.528 71.26C241.448 71.5133 241.408 71.84 241.408 72.24V73.28C241.408 73.68 241.448 74.0067 241.528 74.26C241.608 74.5133 241.721 74.7 241.868 74.82C242.028 74.94 242.221 75 242.448 75ZM252.728 83.24C251.954 83.24 251.301 83.0933 250.768 82.8C250.234 82.4933 249.828 82.0467 249.548 81.46C249.268 80.8733 249.128 80.1467 249.128 79.28C249.128 78.4133 249.268 77.6867 249.548 77.1C249.828 76.5133 250.234 76.0733 250.768 75.78C251.301 75.4733 251.954 75.32 252.728 75.32C253.501 75.32 254.154 75.4733 254.688 75.78C255.221 76.0733 255.628 76.5133 255.908 77.1C256.188 77.6867 256.328 78.4133 256.328 79.28C256.328 80.1467 256.188 80.8733 255.908 81.46C255.628 82.0467 255.221 82.4933 254.688 82.8C254.154 83.0933 253.501 83.24 252.728 83.24ZM252.728 81.52C252.954 81.52 253.141 81.46 253.288 81.34C253.448 81.22 253.568 81.0333 253.648 80.78C253.728 80.5267 253.768 80.2 253.768 79.8V78.76C253.768 78.36 253.728 78.0333 253.648 77.78C253.568 77.5267 253.448 77.34 253.288 77.22C253.141 77.1 252.954 77.04 252.728 77.04C252.501 77.04 252.308 77.1 252.148 77.22C252.001 77.34 251.888 77.5267 251.808 77.78C251.728 78.0333 251.688 78.36 251.688 78.76V79.8C251.688 80.2 251.728 80.5267 251.808 80.78C251.888 81.0333 252.001 81.22 252.148 81.34C252.308 81.46 252.501 81.52 252.728 81.52Z" fill="#680036"/>
<path d="M515.7 169.48V172H505.82V169.26L510.12 165.58C510.906 164.913 511.453 164.347 511.76 163.88C512.066 163.4 512.22 162.867 512.22 162.28V162C512.22 161.467 512.026 161.067 511.64 160.8C511.253 160.533 510.833 160.4 510.38 160.4C509.726 160.4 509.226 160.593 508.88 160.98C508.533 161.367 508.286 161.827 508.14 162.36L505.52 161.36C505.733 160.707 506.053 160.113 506.48 159.58C506.92 159.047 507.486 158.62 508.18 158.3C508.873 157.967 509.7 157.8 510.66 157.8C511.673 157.8 512.533 157.987 513.24 158.36C513.946 158.72 514.486 159.213 514.86 159.84C515.233 160.467 515.42 161.187 515.42 162C515.42 162.8 515.246 163.513 514.9 164.14C514.566 164.753 514.113 165.327 513.54 165.86C512.98 166.38 512.366 166.907 511.7 167.44L509.1 169.48H515.7ZM527.112 158.04V160.66H520.772L520.472 165.08H520.632C520.819 164.64 521.032 164.253 521.272 163.92C521.512 163.587 521.819 163.327 522.192 163.14C522.565 162.953 523.045 162.86 523.632 162.86C524.432 162.86 525.152 163.04 525.792 163.4C526.445 163.747 526.965 164.253 527.352 164.92C527.739 165.573 527.932 166.367 527.932 167.3C527.932 168.247 527.725 169.093 527.312 169.84C526.899 170.587 526.292 171.173 525.492 171.6C524.692 172.027 523.719 172.24 522.572 172.24C521.679 172.24 520.912 172.12 520.272 171.88C519.632 171.627 519.092 171.293 518.652 170.88C518.225 170.467 517.872 170.027 517.592 169.56L519.772 167.84C520.079 168.373 520.445 168.833 520.872 169.22C521.299 169.607 521.872 169.8 522.592 169.8C523.312 169.8 523.852 169.593 524.212 169.18C524.585 168.767 524.772 168.22 524.772 167.54V167.38C524.772 166.74 524.585 166.233 524.212 165.86C523.839 165.487 523.325 165.3 522.672 165.3C522.139 165.3 521.692 165.413 521.332 165.64C520.972 165.853 520.699 166.067 520.512 166.28L518.052 165.94L518.572 158.04H527.112ZM531.764 172.22C531.164 172.22 530.717 172.067 530.424 171.76C530.144 171.453 530.004 171.073 530.004 170.62V170.22C530.004 169.753 530.144 169.373 530.424 169.08C530.717 168.773 531.164 168.62 531.764 168.62C532.364 168.62 532.804 168.773 533.084 169.08C533.377 169.373 533.524 169.753 533.524 170.22V170.62C533.524 171.073 533.377 171.453 533.084 171.76C532.804 172.067 532.364 172.22 531.764 172.22ZM545.875 169.48V172H535.995V169.26L540.295 165.58C541.082 164.913 541.629 164.347 541.935 163.88C542.242 163.4 542.395 162.867 542.395 162.28V162C542.395 161.467 542.202 161.067 541.815 160.8C541.429 160.533 541.009 160.4 540.555 160.4C539.902 160.4 539.402 160.593 539.055 160.98C538.709 161.367 538.462 161.827 538.315 162.36L535.695 161.36C535.909 160.707 536.229 160.113 536.655 159.58C537.095 159.047 537.662 158.62 538.355 158.3C539.049 157.967 539.875 157.8 540.835 157.8C541.849 157.8 542.709 157.987 543.415 158.36C544.122 158.72 544.662 159.213 545.035 159.84C545.409 160.467 545.595 161.187 545.595 162C545.595 162.8 545.422 163.513 545.075 164.14C544.742 164.753 544.289 165.327 543.715 165.86C543.155 166.38 542.542 166.907 541.875 167.44L539.275 169.48H545.875ZM553.068 172H550.428L560.108 158.04H562.748L553.068 172ZM551.448 165.72C550.674 165.72 550.021 165.573 549.488 165.28C548.954 164.973 548.548 164.527 548.268 163.94C547.988 163.353 547.848 162.627 547.848 161.76C547.848 160.893 547.988 160.167 548.268 159.58C548.548 158.993 548.954 158.553 549.488 158.26C550.021 157.953 550.674 157.8 551.448 157.8C552.221 157.8 552.874 157.953 553.408 158.26C553.941 158.553 554.348 158.993 554.628 159.58C554.908 160.167 555.048 160.893 555.048 161.76C555.048 162.627 554.908 163.353 554.628 163.94C554.348 164.527 553.941 164.973 553.408 165.28C552.874 165.573 552.221 165.72 551.448 165.72ZM551.448 164C551.674 164 551.861 163.94 552.008 163.82C552.168 163.7 552.288 163.513 552.368 163.26C552.448 163.007 552.488 162.68 552.488 162.28V161.24C552.488 160.84 552.448 160.513 552.368 160.26C552.288 160.007 552.168 159.82 552.008 159.7C551.861 159.58 551.674 159.52 551.448 159.52C551.221 159.52 551.028 159.58 550.868 159.7C550.721 159.82 550.608 160.007 550.528 160.26C550.448 160.513 550.408 160.84 550.408 161.24V162.28C550.408 162.68 550.448 163.007 550.528 163.26C550.608 163.513 550.721 163.7 550.868 163.82C551.028 163.94 551.221 164 551.448 164ZM561.728 172.24C560.954 172.24 560.301 172.093 559.768 171.8C559.234 171.493 558.828 171.047 558.548 170.46C558.268 169.873 558.128 169.147 558.128 168.28C558.128 167.413 558.268 166.687 558.548 166.1C558.828 165.513 559.234 165.073 559.768 164.78C560.301 164.473 560.954 164.32 561.728 164.32C562.501 164.32 563.154 164.473 563.688 164.78C564.221 165.073 564.628 165.513 564.908 166.1C565.188 166.687 565.328 167.413 565.328 168.28C565.328 169.147 565.188 169.873 564.908 170.46C564.628 171.047 564.221 171.493 563.688 171.8C563.154 172.093 562.501 172.24 561.728 172.24ZM561.728 170.52C561.954 170.52 562.141 170.46 562.288 170.34C562.448 170.22 562.568 170.033 562.648 169.78C562.728 169.527 562.768 169.2 562.768 168.8V167.76C562.768 167.36 562.728 167.033 562.648 166.78C562.568 166.527 562.448 166.34 562.288 166.22C562.141 166.1 561.954 166.04 561.728 166.04C561.501 166.04 561.308 166.1 561.148 166.22C561.001 166.34 560.888 166.527 560.808 166.78C560.728 167.033 560.688 167.36 560.688 167.76V168.8C560.688 169.2 560.728 169.527 560.808 169.78C560.888 170.033 561.001 170.22 561.148 170.34C561.308 170.46 561.501 170.52 561.728 170.52Z" fill="#000A55"/>
</g>
<defs>
<clipPath id="clip0_194_484">
<rect width="649" height="643" fill="white"/>
</clipPath>
</defs>
</svg>
