<svg width="649" height="643" viewBox="0 0 649 643" fill="none" xmlns="http://www.w3.org/2000/svg">
<g clip-path="url(#clip0_184_187)">
<path d="M646 321C646 498.836 501.836 643 324 643C146.164 643 2 498.836 2 321C2 143.164 146.164 -1 324 -1C501.836 -1 646 143.164 646 321ZM221.947 321C221.947 377.362 267.638 423.053 324 423.053C380.362 423.053 426.053 377.362 426.053 321C426.053 264.638 380.362 218.947 324 218.947C267.638 218.947 221.947 264.638 221.947 321Z" fill="#E5E4E2"/>
<path d="M289.047 326.566C284.652 326.566 281.176 324.418 279.223 320.297C278.188 318.129 277.66 315.434 277.66 312.23C277.66 302.836 281.957 297.23 289.125 297.23C293.422 297.23 296.703 299.105 298.109 301.781C298.422 302.348 298.559 302.836 298.559 303.383C298.559 304.535 297.738 305.414 296.41 305.414C295.414 305.414 294.789 304.945 294.008 303.949C292.699 302.152 291.195 301.332 289.105 301.332C284.848 301.332 282.582 305.258 282.484 311.742V312.035H282.582C283.695 309.438 286.508 307.484 290.336 307.484C295.766 307.484 299.574 311.391 299.574 316.723C299.574 322.445 295.141 326.566 289.047 326.566ZM288.969 322.465C292.113 322.465 294.613 320.004 294.613 316.918C294.633 313.676 292.27 311.371 289.027 311.371C285.785 311.371 283.344 313.676 283.344 316.82C283.344 319.984 285.824 322.465 288.969 322.465ZM306.215 321.039C307.523 321.039 308.402 321.801 308.402 323.031C308.402 323.402 308.363 323.754 308.246 324.164L306.586 330.785C306.312 331.938 305.727 332.465 304.574 332.465C303.422 332.465 302.699 331.723 302.758 330.668C302.758 330.473 302.777 330.336 302.797 330.258L303.93 323.07C304.145 321.645 304.945 321.039 306.215 321.039ZM323.969 326.566C317.016 326.566 312.875 320.922 312.875 311.879C312.875 302.875 317.055 297.25 323.969 297.25C330.863 297.25 335.023 302.836 335.023 311.859C335.023 320.883 330.902 326.566 323.969 326.566ZM323.969 322.445C327.777 322.445 329.945 318.559 329.945 311.879C329.945 305.277 327.738 301.371 323.969 301.371C320.18 301.371 317.953 305.297 317.953 311.859C317.953 318.539 320.141 322.445 323.969 322.445ZM342.875 326.391C341.469 326.391 340.57 325.531 340.57 324.34C340.57 323.754 340.707 323.324 341 322.738L351.957 302.035V301.938H339.242C337.992 301.938 337.094 301.117 337.094 299.867C337.094 298.617 337.992 297.816 339.242 297.816H354.047C355.844 297.816 357.074 298.871 357.074 300.648C357.074 301.566 356.781 302.348 356.098 303.676L345.141 324.926C344.594 326 343.969 326.391 342.875 326.391ZM371 326.566C366.664 326.566 362.914 324.496 361.527 321.43C361.254 320.824 361.078 320.238 361.078 319.516C361.078 318.207 361.918 317.387 363.246 317.387C364.301 317.387 364.945 317.797 365.473 318.832C366.43 321.117 368.305 322.465 371.02 322.465C374.359 322.465 376.723 320.102 376.723 316.762C376.723 313.52 374.359 311.215 371.039 311.215C369.262 311.215 367.719 311.938 366.645 312.992C365.473 314.164 364.984 314.418 363.832 314.418C362.211 314.418 361.41 313.266 361.449 311.898C361.449 311.781 361.449 311.703 361.469 311.586L362.367 300.941C362.543 298.715 363.676 297.816 365.883 297.816H378.031C379.32 297.816 380.16 298.637 380.16 299.867C380.16 301.117 379.32 301.938 378.031 301.938H366.645L365.902 310.277H366C367.191 308.52 369.516 307.426 372.348 307.426C377.738 307.426 381.586 311.234 381.586 316.625C381.586 322.523 377.25 326.566 371 326.566Z" fill="#000A55" fill-opacity="0.55"/>
<path d="M256.541 355H254.701C253.821 355 253.148 354.773 252.681 354.32C252.228 353.853 252.001 353.193 252.001 352.34V346.58H250.461V344.56H251.261C251.648 344.56 251.908 344.473 252.041 344.3C252.188 344.113 252.261 343.84 252.261 343.48V341.7H254.561V344.56H256.701V346.58H254.561V352.96H256.541V355ZM262.983 355.24C261.997 355.24 261.137 355.02 260.403 354.58C259.683 354.127 259.123 353.493 258.723 352.68C258.337 351.853 258.143 350.88 258.143 349.76C258.143 348.64 258.337 347.68 258.723 346.88C259.123 346.067 259.683 345.44 260.403 345C261.137 344.547 261.997 344.32 262.983 344.32C263.983 344.32 264.843 344.547 265.563 345C266.297 345.44 266.857 346.067 267.243 346.88C267.643 347.68 267.843 348.64 267.843 349.76C267.843 350.88 267.643 351.853 267.243 352.68C266.857 353.493 266.297 354.127 265.563 354.58C264.843 355.02 263.983 355.24 262.983 355.24ZM262.983 353.18C263.663 353.18 264.197 352.973 264.583 352.56C264.97 352.133 265.163 351.527 265.163 350.74V348.8C265.163 348.013 264.97 347.413 264.583 347C264.197 346.587 263.663 346.38 262.983 346.38C262.33 346.38 261.803 346.587 261.403 347C261.017 347.413 260.823 348.013 260.823 348.8V350.74C260.823 351.527 261.017 352.133 261.403 352.56C261.803 352.973 262.33 353.18 262.983 353.18ZM275.135 355H273.295C272.415 355 271.741 354.773 271.275 354.32C270.821 353.853 270.595 353.193 270.595 352.34V346.58H269.055V344.56H269.855C270.241 344.56 270.501 344.473 270.635 344.3C270.781 344.113 270.855 343.84 270.855 343.48V341.7H273.155V344.56H275.295V346.58H273.155V352.96H275.135V355ZM286.615 355H285.195C284.808 355 284.462 354.913 284.155 354.74C283.862 354.553 283.628 354.287 283.455 353.94C283.295 353.593 283.215 353.187 283.215 352.72V352.5L283.855 353.2H283.135C282.962 353.867 282.602 354.373 282.055 354.72C281.522 355.067 280.868 355.24 280.095 355.24C279.028 355.24 278.208 354.96 277.635 354.4C277.062 353.827 276.775 353.08 276.775 352.16C276.775 351.44 276.948 350.847 277.295 350.38C277.655 349.913 278.168 349.56 278.835 349.32C279.502 349.08 280.302 348.96 281.235 348.96H283.015V348.2C283.015 347.627 282.862 347.18 282.555 346.86C282.248 346.527 281.755 346.36 281.075 346.36C280.475 346.36 279.988 346.493 279.615 346.76C279.255 347.013 278.948 347.32 278.695 347.68L277.175 346.32C277.562 345.72 278.075 345.24 278.715 344.88C279.355 344.507 280.202 344.32 281.255 344.32C282.655 344.32 283.722 344.647 284.455 345.3C285.202 345.94 285.575 346.853 285.575 348.04V352.96H286.615V355ZM283.015 350.5H281.375C280.708 350.5 280.208 350.613 279.875 350.84C279.542 351.053 279.375 351.367 279.375 351.78V352.12C279.375 352.533 279.515 352.847 279.795 353.06C280.075 353.273 280.462 353.38 280.955 353.38C281.342 353.38 281.688 353.327 281.995 353.22C282.302 353.1 282.548 352.927 282.735 352.7C282.922 352.473 283.015 352.2 283.015 351.88V350.5ZM292.627 355H291.247C290.38 355 289.734 354.78 289.307 354.34C288.894 353.9 288.687 353.28 288.687 352.48V340.2H291.247V352.96H292.627V355ZM299.293 359V344.56H301.853V346.28H301.933C302.119 345.68 302.473 345.207 302.993 344.86C303.526 344.5 304.133 344.32 304.813 344.32C305.706 344.32 306.453 344.533 307.053 344.96C307.653 345.387 308.113 346.007 308.433 346.82C308.753 347.62 308.913 348.6 308.913 349.76C308.913 350.92 308.753 351.913 308.433 352.74C308.113 353.553 307.653 354.173 307.053 354.6C306.453 355.027 305.706 355.24 304.813 355.24C304.133 355.24 303.533 355.06 303.013 354.7C302.493 354.34 302.133 353.86 301.933 353.26H301.853V359H299.293ZM303.993 353.12C304.659 353.12 305.199 352.9 305.613 352.46C306.026 352.007 306.233 351.413 306.233 350.68V348.88C306.233 348.133 306.026 347.54 305.613 347.1C305.199 346.647 304.659 346.42 303.993 346.42C303.593 346.42 303.226 346.493 302.893 346.64C302.573 346.773 302.319 346.967 302.133 347.22C301.946 347.473 301.853 347.767 301.853 348.1V351.42C301.853 351.78 301.946 352.087 302.133 352.34C302.319 352.593 302.573 352.787 302.893 352.92C303.226 353.053 303.593 353.12 303.993 353.12ZM320.385 355H318.965C318.578 355 318.231 354.913 317.925 354.74C317.631 354.553 317.398 354.287 317.225 353.94C317.065 353.593 316.985 353.187 316.985 352.72V352.5L317.625 353.2H316.905C316.731 353.867 316.371 354.373 315.825 354.72C315.291 355.067 314.638 355.24 313.865 355.24C312.798 355.24 311.978 354.96 311.405 354.4C310.831 353.827 310.545 353.08 310.545 352.16C310.545 351.44 310.718 350.847 311.065 350.38C311.425 349.913 311.938 349.56 312.605 349.32C313.271 349.08 314.071 348.96 315.005 348.96H316.785V348.2C316.785 347.627 316.631 347.18 316.325 346.86C316.018 346.527 315.525 346.36 314.845 346.36C314.245 346.36 313.758 346.493 313.385 346.76C313.025 347.013 312.718 347.32 312.465 347.68L310.945 346.32C311.331 345.72 311.845 345.24 312.485 344.88C313.125 344.507 313.971 344.32 315.025 344.32C316.425 344.32 317.491 344.647 318.225 345.3C318.971 345.94 319.345 346.853 319.345 348.04V352.96H320.385V355ZM316.785 350.5H315.145C314.478 350.5 313.978 350.613 313.645 350.84C313.311 351.053 313.145 351.367 313.145 351.78V352.12C313.145 352.533 313.285 352.847 313.565 353.06C313.845 353.273 314.231 353.38 314.725 353.38C315.111 353.38 315.458 353.327 315.765 353.22C316.071 353.1 316.318 352.927 316.505 352.7C316.691 352.473 316.785 352.2 316.785 351.88V350.5ZM325.017 355H322.457V344.56H325.017V346.72H325.117C325.21 346.347 325.363 346 325.577 345.68C325.803 345.347 326.103 345.08 326.477 344.88C326.863 344.667 327.33 344.56 327.877 344.56H328.437V346.98H327.637C327.063 346.98 326.577 347.04 326.177 347.16C325.79 347.267 325.497 347.44 325.297 347.68C325.11 347.907 325.017 348.213 325.017 348.6V355ZM335.486 355H333.646C332.766 355 332.093 354.773 331.626 354.32C331.173 353.853 330.946 353.193 330.946 352.34V346.58H329.406V344.56H330.206C330.593 344.56 330.853 344.473 330.986 344.3C331.133 344.113 331.206 343.84 331.206 343.48V341.7H333.506V344.56H335.646V346.58H333.506V352.96H335.486V355ZM339.147 343.04C338.627 343.04 338.247 342.92 338.007 342.68C337.767 342.427 337.647 342.12 337.647 341.76V341.36C337.647 340.987 337.767 340.68 338.007 340.44C338.247 340.2 338.627 340.08 339.147 340.08C339.667 340.08 340.047 340.2 340.287 340.44C340.527 340.68 340.647 340.987 340.647 341.36V341.76C340.647 342.12 340.527 342.427 340.287 342.68C340.047 342.92 339.667 343.04 339.147 343.04ZM337.867 355V344.56H340.427V355H337.867ZM347.495 355.24C345.948 355.24 344.755 354.747 343.915 353.76C343.088 352.773 342.675 351.44 342.675 349.76C342.675 348.093 343.088 346.773 343.915 345.8C344.755 344.813 345.948 344.32 347.495 344.32C348.548 344.32 349.415 344.553 350.095 345.02C350.788 345.487 351.288 346.133 351.595 346.96L349.495 347.9C349.375 347.46 349.148 347.1 348.815 346.82C348.481 346.527 348.041 346.38 347.495 346.38C346.788 346.38 346.255 346.607 345.895 347.06C345.535 347.5 345.355 348.093 345.355 348.84V350.74C345.355 351.46 345.535 352.047 345.895 352.5C346.255 352.953 346.788 353.18 347.495 353.18C348.095 353.18 348.561 353.027 348.895 352.72C349.241 352.4 349.508 352.007 349.695 351.54L351.655 352.48C351.321 353.4 350.795 354.093 350.075 354.56C349.368 355.013 348.508 355.24 347.495 355.24ZM354.908 343.04C354.388 343.04 354.008 342.92 353.768 342.68C353.528 342.427 353.408 342.12 353.408 341.76V341.36C353.408 340.987 353.528 340.68 353.768 340.44C354.008 340.2 354.388 340.08 354.908 340.08C355.428 340.08 355.808 340.2 356.048 340.44C356.288 340.68 356.408 340.987 356.408 341.36V341.76C356.408 342.12 356.288 342.427 356.048 342.68C355.808 342.92 355.428 343.04 354.908 343.04ZM353.628 355V344.56H356.188V355H353.628ZM359.136 359V344.56H361.696V346.28H361.776C361.963 345.68 362.316 345.207 362.836 344.86C363.37 344.5 363.976 344.32 364.656 344.32C365.55 344.32 366.296 344.533 366.896 344.96C367.496 345.387 367.956 346.007 368.276 346.82C368.596 347.62 368.756 348.6 368.756 349.76C368.756 350.92 368.596 351.913 368.276 352.74C367.956 353.553 367.496 354.173 366.896 354.6C366.296 355.027 365.55 355.24 364.656 355.24C363.976 355.24 363.376 355.06 362.856 354.7C362.336 354.34 361.976 353.86 361.776 353.26H361.696V359H359.136ZM363.836 353.12C364.503 353.12 365.043 352.9 365.456 352.46C365.87 352.007 366.076 351.413 366.076 350.68V348.88C366.076 348.133 365.87 347.54 365.456 347.1C365.043 346.647 364.503 346.42 363.836 346.42C363.436 346.42 363.07 346.493 362.736 346.64C362.416 346.773 362.163 346.967 361.976 347.22C361.79 347.473 361.696 347.767 361.696 348.1V351.42C361.696 351.78 361.79 352.087 361.976 352.34C362.163 352.593 362.416 352.787 362.736 352.92C363.07 353.053 363.436 353.12 363.836 353.12ZM380.228 355H378.808C378.422 355 378.075 354.913 377.768 354.74C377.475 354.553 377.242 354.287 377.068 353.94C376.908 353.593 376.828 353.187 376.828 352.72V352.5L377.468 353.2H376.748C376.575 353.867 376.215 354.373 375.668 354.72C375.135 355.067 374.482 355.24 373.708 355.24C372.642 355.24 371.822 354.96 371.248 354.4C370.675 353.827 370.388 353.08 370.388 352.16C370.388 351.44 370.562 350.847 370.908 350.38C371.268 349.913 371.782 349.56 372.448 349.32C373.115 349.08 373.915 348.96 374.848 348.96H376.628V348.2C376.628 347.627 376.475 347.18 376.168 346.86C375.862 346.527 375.368 346.36 374.688 346.36C374.088 346.36 373.602 346.493 373.228 346.76C372.868 347.013 372.562 347.32 372.308 347.68L370.788 346.32C371.175 345.72 371.688 345.24 372.328 344.88C372.968 344.507 373.815 344.32 374.868 344.32C376.268 344.32 377.335 344.647 378.068 345.3C378.815 345.94 379.188 346.853 379.188 348.04V352.96H380.228V355ZM376.628 350.5H374.988C374.322 350.5 373.822 350.613 373.488 350.84C373.155 351.053 372.988 351.367 372.988 351.78V352.12C372.988 352.533 373.128 352.847 373.408 353.06C373.688 353.273 374.075 353.38 374.568 353.38C374.955 353.38 375.302 353.327 375.608 353.22C375.915 353.1 376.162 352.927 376.348 352.7C376.535 352.473 376.628 352.2 376.628 351.88V350.5ZM384.86 355H382.3V344.56H384.86V346.3H384.96C385.174 345.74 385.507 345.273 385.96 344.9C386.427 344.513 387.067 344.32 387.88 344.32C388.947 344.32 389.767 344.68 390.34 345.4C390.927 346.107 391.22 347.107 391.22 348.4V355H388.66V348.66C388.66 347.927 388.527 347.373 388.26 347C387.994 346.613 387.554 346.42 386.94 346.42C386.594 346.42 386.26 346.487 385.94 346.62C385.62 346.74 385.36 346.927 385.16 347.18C384.96 347.42 384.86 347.727 384.86 348.1V355ZM399.158 355H397.318C396.438 355 395.765 354.773 395.298 354.32C394.845 353.853 394.618 353.193 394.618 352.34V346.58H393.078V344.56H393.878C394.265 344.56 394.525 344.473 394.658 344.3C394.805 344.113 394.878 343.84 394.878 343.48V341.7H397.178V344.56H399.318V346.58H397.178V352.96H399.158V355ZM404.959 355.24C403.959 355.24 403.119 355.073 402.439 354.74C401.759 354.393 401.159 353.92 400.639 353.32L402.199 351.8C402.585 352.24 403.005 352.587 403.459 352.84C403.925 353.093 404.459 353.22 405.059 353.22C405.672 353.22 406.112 353.113 406.379 352.9C406.659 352.687 406.799 352.393 406.799 352.02C406.799 351.713 406.699 351.473 406.499 351.3C406.312 351.113 405.985 350.987 405.519 350.92L404.479 350.78C403.732 350.687 403.099 350.513 402.579 350.26C402.059 350.007 401.665 349.66 401.399 349.22C401.132 348.78 400.999 348.247 400.999 347.62C400.999 346.607 401.359 345.807 402.079 345.22C402.812 344.62 403.772 344.32 404.959 344.32C405.639 344.32 406.219 344.387 406.699 344.52C407.192 344.64 407.625 344.827 407.999 345.08C408.372 345.32 408.719 345.613 409.039 345.96L407.539 347.46C407.232 347.14 406.865 346.873 406.439 346.66C406.012 346.447 405.545 346.34 405.039 346.34C404.505 346.34 404.105 346.44 403.839 346.64C403.585 346.827 403.459 347.087 403.459 347.42C403.459 347.767 403.559 348.033 403.759 348.22C403.972 348.393 404.325 348.52 404.819 348.6L405.879 348.74C407.025 348.9 407.872 349.24 408.419 349.76C408.979 350.267 409.259 350.953 409.259 351.82C409.259 352.487 409.079 353.08 408.719 353.6C408.372 354.12 407.872 354.527 407.219 354.82C406.579 355.1 405.825 355.24 404.959 355.24Z" fill="#000A55" fill-opacity="0.55"/>
<path d="M326 149C326 137.954 334.979 128.892 345.964 130.046C368.284 132.392 390.07 138.659 410.302 148.611C436.532 161.513 459.451 180.263 477.293 203.418C495.135 226.572 507.425 253.513 513.215 282.165C519.006 310.817 518.142 340.416 510.692 368.681C503.242 396.947 489.403 423.126 470.242 445.201C451.081 467.276 427.108 484.659 400.171 496.01C373.234 507.362 344.051 512.379 314.869 510.675C292.36 509.361 270.315 504.076 249.739 495.115C239.611 490.705 236.267 478.394 241.711 468.783L254.93 445.45C260.374 435.839 272.548 432.633 282.907 436.466C294.388 440.714 306.469 443.254 318.763 443.972C337.736 445.079 356.71 441.817 374.224 434.437C391.738 427.057 407.324 415.755 419.782 401.402C432.24 387.05 441.237 370.029 446.082 351.651C450.925 333.274 451.487 314.029 447.722 295.401C443.957 276.772 435.967 259.256 424.366 244.202C412.766 229.147 397.865 216.956 380.811 208.568C369.761 203.132 357.997 199.387 345.914 197.424C335.011 195.653 326 186.863 326 175.817L326 149Z" fill="#AAD0E3"/>
<path d="M117.765 115.68C110.016 107.808 110.076 95.0909 118.421 87.8537C169.452 43.5936 233.325 16.8035 300.661 11.4182C311.671 10.5376 320.786 19.4069 320.97 30.4511L322.222 105.5C322.407 116.545 313.579 125.545 302.607 126.821C264.808 131.22 229.008 146.235 199.38 170.117C190.781 177.049 178.174 177.039 170.425 169.168L117.765 115.68Z" fill="#E186C2"/>
<path d="M51.2272 217.7C40.8687 213.865 35.5221 202.328 40.0035 192.232C51.5655 166.185 66.5909 141.816 84.6717 119.789C91.6798 111.251 104.39 110.847 112.468 118.38L168.725 170.836C176.803 178.369 177.155 190.97 170.467 199.761C162.573 210.138 155.713 221.262 149.987 232.976C145.135 242.899 133.719 248.244 123.36 244.408L51.2272 217.7Z" fill="#EAB2D7"/>
<path d="M43.7319 383.003C33.0113 385.333 22.3494 378.597 20.5789 367.77C13.3577 323.611 15.4426 278.557 26.6916 235.598C29.5328 224.748 41.1953 219.108 51.7583 222.879L121.455 247.763C131.698 251.42 137.035 262.579 134.626 273.185C129.417 296.119 128.261 319.876 131.211 343.356C132.598 354.39 125.847 365.162 114.979 367.523L43.7319 383.003Z" fill="#EAB2D7"/>
<path d="M611.566 360.691C622.505 362.223 630.196 372.351 627.961 383.169C622.687 408.706 614.209 433.476 602.731 456.89C597.869 466.808 585.585 470.1 576.001 464.608L512.931 428.468C503.347 422.976 500.132 410.787 504.625 400.697C509.396 389.981 513.202 378.86 515.997 367.467C518.629 356.74 528.638 349.077 539.577 350.609L611.566 360.691Z" fill="#AAD0E3"/>
<path d="M428.996 589.874C432.978 600.177 427.869 611.823 417.331 615.133C381.088 626.514 343.004 631.152 304.978 628.754C266.952 626.355 229.753 616.968 195.228 601.123C185.189 596.515 181.584 584.319 186.829 574.599L221.231 510.843C226.476 501.123 238.579 497.598 248.78 501.833C268.874 510.175 290.252 515.157 312.057 516.532C333.862 517.908 355.697 515.652 376.679 509.9C387.332 506.981 398.896 511.998 402.878 522.301L428.996 589.874Z" fill="#AAD0E3"/>
<path d="M573.152 468.478C582.627 474.155 585.758 486.481 579.481 495.571C549.039 539.657 507.675 575.104 459.447 598.436C449.504 603.247 437.802 598.265 433.643 588.032L406.703 521.753C402.544 511.52 407.528 499.941 417.29 494.773C443.292 481.007 465.911 461.623 483.497 438.035C490.099 429.18 502.305 426.028 511.78 431.705L573.152 468.478Z" fill="#AAD0E3"/>
<path d="M183.796 570.13C178.204 579.656 165.909 582.896 156.747 576.727C127.179 556.816 101.084 532.144 79.6009 503.719C58.2484 475.468 41.8148 443.994 30.9445 410.631C27.4698 399.967 34.2341 388.919 45.1596 386.383L114.875 370.201C125.469 367.741 135.992 374.245 139.686 384.474C146.635 403.714 156.489 421.89 168.94 438.363C181.344 454.775 196.135 469.244 212.785 481.303C221.731 487.782 224.988 499.961 219.396 509.487L183.796 570.13Z" fill="#EAB2D7"/>
<path d="M326.299 31.6077C326.368 20.5622 335.388 11.597 346.406 12.3783C383.122 14.9821 419.137 24.111 452.742 39.3895C492.425 57.4316 527.855 83.6431 556.717 116.312C585.579 148.98 607.224 187.37 620.238 228.975C631.258 264.206 635.879 301.071 633.938 337.828C633.355 348.859 623.346 356.705 612.377 355.412L540.341 346.923C529.372 345.63 521.634 335.679 521.81 324.635C522.145 303.643 519.129 282.688 512.836 262.57C504.548 236.074 490.763 211.625 472.382 190.82C454.001 170.015 431.438 153.322 406.166 141.832C386.976 133.108 366.553 127.532 345.68 125.277C334.698 124.091 325.776 115.186 325.845 104.14L326.299 31.6077Z" fill="#6AAFD1"/>
<path d="M238.229 466.756C232.559 476.236 220.202 479.405 211.366 472.776C183.888 452.158 162.372 424.425 149.255 392.407C133.602 354.197 130.752 311.942 141.135 271.976C151.517 232.01 174.572 196.485 206.844 170.725C233.886 149.139 266.179 135.384 300.219 130.748C311.163 129.257 320.416 138.04 320.755 149.081L321.577 175.885C321.916 186.926 313.178 195.988 302.335 198.093C282.752 201.894 264.271 210.379 248.528 222.945C227.545 239.694 212.556 262.791 205.805 288.776C199.055 314.761 200.908 342.234 211.085 367.077C218.722 385.718 230.737 402.125 245.993 414.976C254.441 422.093 257.663 434.262 251.993 443.741L238.229 466.756Z" fill="#EAB2D7"/>
<path d="M505.007 195.24C503.553 195.24 502.42 194.753 501.607 193.78C500.807 192.807 500.407 191.493 500.407 189.84C500.407 188.187 500.807 186.873 501.607 185.9C502.42 184.927 503.553 184.44 505.007 184.44C506.033 184.44 506.86 184.667 507.487 185.12C508.113 185.573 508.573 186.153 508.867 186.86L507.527 187.54C507.34 187.007 507.027 186.593 506.587 186.3C506.16 186.007 505.633 185.86 505.007 185.86C504.06 185.86 503.34 186.153 502.847 186.74C502.367 187.313 502.127 188.053 502.127 188.96V190.72C502.127 191.613 502.367 192.353 502.847 192.94C503.34 193.527 504.06 193.82 505.007 193.82C505.66 193.82 506.22 193.667 506.687 193.36C507.153 193.053 507.527 192.607 507.807 192.02L508.967 192.8C508.633 193.533 508.133 194.127 507.467 194.58C506.813 195.02 505.993 195.24 505.007 195.24ZM511.225 195V180.2H512.825V186.36H512.905C513.159 185.773 513.512 185.307 513.965 184.96C514.432 184.613 515.052 184.44 515.825 184.44C516.892 184.44 517.732 184.787 518.345 185.48C518.972 186.16 519.285 187.127 519.285 188.38V195H517.685V188.66C517.685 187.74 517.485 187.047 517.085 186.58C516.699 186.113 516.119 185.88 515.345 185.88C514.919 185.88 514.512 185.953 514.125 186.1C513.739 186.233 513.425 186.447 513.185 186.74C512.945 187.033 512.825 187.4 512.825 187.84V195H511.225ZM523.393 182.26C523.059 182.26 522.813 182.18 522.653 182.02C522.493 181.847 522.413 181.627 522.413 181.36V181.1C522.413 180.833 522.493 180.62 522.653 180.46C522.813 180.287 523.059 180.2 523.393 180.2C523.739 180.2 523.986 180.287 524.133 180.46C524.293 180.62 524.373 180.833 524.373 181.1V181.36C524.373 181.627 524.293 181.847 524.133 182.02C523.986 182.18 523.739 182.26 523.393 182.26ZM522.593 195V184.68H524.193V195H522.593ZM530.713 195H529.293C528.746 195 528.326 194.847 528.033 194.54C527.739 194.22 527.593 193.82 527.593 193.34V180.2H529.193V193.6H530.713V195ZM539.642 195V193.32H539.562C539.255 193.96 538.848 194.44 538.342 194.76C537.848 195.08 537.248 195.24 536.542 195.24C535.688 195.24 534.942 195.02 534.302 194.58C533.675 194.14 533.188 193.513 532.842 192.7C532.508 191.887 532.342 190.933 532.342 189.84C532.342 188.733 532.508 187.78 532.842 186.98C533.188 186.167 533.675 185.54 534.302 185.1C534.942 184.66 535.688 184.44 536.542 184.44C537.248 184.44 537.862 184.6 538.382 184.92C538.902 185.227 539.295 185.707 539.562 186.36H539.642V180.2H541.242V195H539.642ZM536.982 193.8C537.475 193.8 537.922 193.72 538.322 193.56C538.722 193.387 539.042 193.147 539.282 192.84C539.522 192.52 539.642 192.14 539.642 191.7V187.86C539.642 187.473 539.522 187.133 539.282 186.84C539.042 186.547 538.722 186.313 538.322 186.14C537.922 185.967 537.475 185.88 536.982 185.88C536.088 185.88 535.375 186.167 534.842 186.74C534.322 187.3 534.062 188.04 534.062 188.96V190.72C534.062 191.64 534.322 192.387 534.842 192.96C535.375 193.52 536.088 193.8 536.982 193.8ZM546.243 195H544.643V184.68H546.243V186.58H546.343C546.463 186.247 546.65 185.94 546.903 185.66C547.157 185.367 547.483 185.133 547.883 184.96C548.283 184.773 548.763 184.68 549.323 184.68H549.943V186.28H549.003C548.43 186.28 547.937 186.36 547.523 186.52C547.11 186.667 546.79 186.867 546.563 187.12C546.35 187.373 546.243 187.667 546.243 188V195ZM555.769 195.24C554.836 195.24 554.023 195.02 553.329 194.58C552.636 194.127 552.096 193.5 551.709 192.7C551.323 191.887 551.129 190.933 551.129 189.84C551.129 188.747 551.323 187.8 551.709 187C552.096 186.187 552.636 185.56 553.329 185.12C554.023 184.667 554.836 184.44 555.769 184.44C556.689 184.44 557.483 184.66 558.149 185.1C558.816 185.527 559.329 186.12 559.689 186.88C560.049 187.64 560.229 188.507 560.229 189.48V190.24H552.809V190.72C552.809 191.613 553.076 192.36 553.609 192.96C554.156 193.547 554.909 193.84 555.869 193.84C556.523 193.84 557.089 193.687 557.569 193.38C558.063 193.073 558.443 192.633 558.709 192.06L559.849 192.88C559.516 193.573 558.996 194.14 558.289 194.58C557.583 195.02 556.743 195.24 555.769 195.24ZM555.769 185.78C555.196 185.78 554.683 185.913 554.229 186.18C553.789 186.447 553.443 186.82 553.189 187.3C552.936 187.767 552.809 188.3 552.809 188.9V189.04H558.509V188.82C558.509 188.207 558.396 187.673 558.169 187.22C557.943 186.767 557.623 186.413 557.209 186.16C556.796 185.907 556.316 185.78 555.769 185.78ZM564.466 195H562.866V184.68H564.466V186.36H564.546C564.799 185.773 565.153 185.307 565.606 184.96C566.073 184.613 566.693 184.44 567.466 184.44C568.533 184.44 569.373 184.787 569.986 185.48C570.613 186.16 570.926 187.127 570.926 188.38V195H569.326V188.66C569.326 187.74 569.126 187.047 568.726 186.58C568.339 186.113 567.759 185.88 566.986 185.88C566.559 185.88 566.153 185.953 565.766 186.1C565.379 186.233 565.066 186.447 564.826 186.74C564.586 187.033 564.466 187.4 564.466 187.84V195Z" fill="#000A55"/>
<path d="M196.007 107.24C194.553 107.24 193.42 106.753 192.607 105.78C191.807 104.807 191.407 103.493 191.407 101.84C191.407 100.187 191.807 98.8733 192.607 97.9C193.42 96.9267 194.553 96.44 196.007 96.44C197.033 96.44 197.86 96.6667 198.487 97.12C199.113 97.5733 199.573 98.1533 199.867 98.86L198.527 99.54C198.34 99.0067 198.027 98.5933 197.587 98.3C197.16 98.0067 196.633 97.86 196.007 97.86C195.06 97.86 194.34 98.1533 193.847 98.74C193.367 99.3133 193.127 100.053 193.127 100.96V102.72C193.127 103.613 193.367 104.353 193.847 104.94C194.34 105.527 195.06 105.82 196.007 105.82C196.66 105.82 197.22 105.667 197.687 105.36C198.153 105.053 198.527 104.607 198.807 104.02L199.967 104.8C199.633 105.533 199.133 106.127 198.467 106.58C197.813 107.02 196.993 107.24 196.007 107.24ZM202.225 107V92.2H203.825V98.36H203.905C204.159 97.7733 204.512 97.3067 204.965 96.96C205.432 96.6133 206.052 96.44 206.825 96.44C207.892 96.44 208.732 96.7867 209.345 97.48C209.972 98.16 210.285 99.1267 210.285 100.38V107H208.685V100.66C208.685 99.74 208.485 99.0467 208.085 98.58C207.699 98.1133 207.119 97.88 206.345 97.88C205.919 97.88 205.512 97.9533 205.125 98.1C204.739 98.2333 204.425 98.4467 204.185 98.74C203.945 99.0333 203.825 99.4 203.825 99.84V107H202.225ZM214.393 94.26C214.059 94.26 213.813 94.18 213.653 94.02C213.493 93.8467 213.413 93.6267 213.413 93.36V93.1C213.413 92.8333 213.493 92.62 213.653 92.46C213.813 92.2867 214.059 92.2 214.393 92.2C214.739 92.2 214.986 92.2867 215.133 92.46C215.293 92.62 215.373 92.8333 215.373 93.1V93.36C215.373 93.6267 215.293 93.8467 215.133 94.02C214.986 94.18 214.739 94.26 214.393 94.26ZM213.593 107V96.68H215.193V107H213.593ZM221.713 107H220.293C219.746 107 219.326 106.847 219.033 106.54C218.739 106.22 218.593 105.82 218.593 105.34V92.2H220.193V105.6H221.713V107ZM230.642 107V105.32H230.562C230.255 105.96 229.848 106.44 229.342 106.76C228.848 107.08 228.248 107.24 227.542 107.24C226.688 107.24 225.942 107.02 225.302 106.58C224.675 106.14 224.188 105.513 223.842 104.7C223.508 103.887 223.342 102.933 223.342 101.84C223.342 100.733 223.508 99.78 223.842 98.98C224.188 98.1667 224.675 97.54 225.302 97.1C225.942 96.66 226.688 96.44 227.542 96.44C228.248 96.44 228.862 96.6 229.382 96.92C229.902 97.2267 230.295 97.7067 230.562 98.36H230.642V92.2H232.242V107H230.642ZM227.982 105.8C228.475 105.8 228.922 105.72 229.322 105.56C229.722 105.387 230.042 105.147 230.282 104.84C230.522 104.52 230.642 104.14 230.642 103.7V99.86C230.642 99.4733 230.522 99.1333 230.282 98.84C230.042 98.5467 229.722 98.3133 229.322 98.14C228.922 97.9667 228.475 97.88 227.982 97.88C227.088 97.88 226.375 98.1667 225.842 98.74C225.322 99.3 225.062 100.04 225.062 100.96V102.72C225.062 103.64 225.322 104.387 225.842 104.96C226.375 105.52 227.088 105.8 227.982 105.8ZM237.243 107H235.643V96.68H237.243V98.58H237.343C237.463 98.2467 237.65 97.94 237.903 97.66C238.157 97.3667 238.483 97.1333 238.883 96.96C239.283 96.7733 239.763 96.68 240.323 96.68H240.943V98.28H240.003C239.43 98.28 238.937 98.36 238.523 98.52C238.11 98.6667 237.79 98.8667 237.563 99.12C237.35 99.3733 237.243 99.6667 237.243 100V107ZM246.769 107.24C245.836 107.24 245.023 107.02 244.329 106.58C243.636 106.127 243.096 105.5 242.709 104.7C242.323 103.887 242.129 102.933 242.129 101.84C242.129 100.747 242.323 99.8 242.709 99C243.096 98.1867 243.636 97.56 244.329 97.12C245.023 96.6667 245.836 96.44 246.769 96.44C247.689 96.44 248.483 96.66 249.149 97.1C249.816 97.5267 250.329 98.12 250.689 98.88C251.049 99.64 251.229 100.507 251.229 101.48V102.24H243.809V102.72C243.809 103.613 244.076 104.36 244.609 104.96C245.156 105.547 245.909 105.84 246.869 105.84C247.523 105.84 248.089 105.687 248.569 105.38C249.063 105.073 249.443 104.633 249.709 104.06L250.849 104.88C250.516 105.573 249.996 106.14 249.289 106.58C248.583 107.02 247.743 107.24 246.769 107.24ZM246.769 97.78C246.196 97.78 245.683 97.9133 245.229 98.18C244.789 98.4467 244.443 98.82 244.189 99.3C243.936 99.7667 243.809 100.3 243.809 100.9V101.04H249.509V100.82C249.509 100.207 249.396 99.6733 249.169 99.22C248.943 98.7667 248.623 98.4133 248.209 98.16C247.796 97.9067 247.316 97.78 246.769 97.78ZM255.466 107H253.866V96.68H255.466V98.36H255.546C255.799 97.7733 256.153 97.3067 256.606 96.96C257.073 96.6133 257.693 96.44 258.466 96.44C259.533 96.44 260.373 96.7867 260.986 97.48C261.613 98.16 261.926 99.1267 261.926 100.38V107H260.326V100.66C260.326 99.74 260.126 99.0467 259.726 98.58C259.339 98.1133 258.759 97.88 257.986 97.88C257.559 97.88 257.153 97.9533 256.766 98.1C256.379 98.2333 256.066 98.4467 255.826 98.74C255.586 99.0333 255.466 99.4 255.466 99.84V107Z" fill="#680036"/>
<path d="M207.28 83H197.56V80.58H201.32V71.22H201.14L198.3 74.94L196.38 73.44L199.72 69.04H204.32V80.58H207.28V83ZM218.692 80.48V83H208.812V80.26L213.112 76.58C213.899 75.9133 214.445 75.3467 214.752 74.88C215.059 74.4 215.212 73.8667 215.212 73.28V73C215.212 72.4667 215.019 72.0667 214.632 71.8C214.245 71.5333 213.825 71.4 213.372 71.4C212.719 71.4 212.219 71.5933 211.872 71.98C211.525 72.3667 211.279 72.8267 211.132 73.36L208.512 72.36C208.725 71.7067 209.045 71.1133 209.472 70.58C209.912 70.0467 210.479 69.62 211.172 69.3C211.865 68.9667 212.692 68.8 213.652 68.8C214.665 68.8 215.525 68.9867 216.232 69.36C216.939 69.72 217.479 70.2133 217.852 70.84C218.225 71.4667 218.412 72.1867 218.412 73C218.412 73.8 218.239 74.5133 217.892 75.14C217.559 75.7533 217.105 76.3267 216.532 76.86C215.972 77.38 215.359 77.9067 214.692 78.44L212.092 80.48H218.692ZM222.764 83.22C222.164 83.22 221.717 83.0667 221.424 82.76C221.144 82.4533 221.004 82.0733 221.004 81.62V81.22C221.004 80.7533 221.144 80.3733 221.424 80.08C221.717 79.7733 222.164 79.62 222.764 79.62C223.364 79.62 223.804 79.7733 224.084 80.08C224.377 80.3733 224.524 80.7533 224.524 81.22V81.62C224.524 82.0733 224.377 82.4533 224.084 82.76C223.804 83.0667 223.364 83.22 222.764 83.22ZM232.335 83H229.175L233.855 71.48H229.495V74.02H226.955V69.04H236.835V71.64L232.335 83ZM244.068 83H241.428L251.108 69.04H253.748L244.068 83ZM242.448 76.72C241.674 76.72 241.021 76.5733 240.488 76.28C239.954 75.9733 239.548 75.5267 239.268 74.94C238.988 74.3533 238.848 73.6267 238.848 72.76C238.848 71.8933 238.988 71.1667 239.268 70.58C239.548 69.9933 239.954 69.5533 240.488 69.26C241.021 68.9533 241.674 68.8 242.448 68.8C243.221 68.8 243.874 68.9533 244.408 69.26C244.941 69.5533 245.348 69.9933 245.628 70.58C245.908 71.1667 246.048 71.8933 246.048 72.76C246.048 73.6267 245.908 74.3533 245.628 74.94C245.348 75.5267 244.941 75.9733 244.408 76.28C243.874 76.5733 243.221 76.72 242.448 76.72ZM242.448 75C242.674 75 242.861 74.94 243.008 74.82C243.168 74.7 243.288 74.5133 243.368 74.26C243.448 74.0067 243.488 73.68 243.488 73.28V72.24C243.488 71.84 243.448 71.5133 243.368 71.26C243.288 71.0067 243.168 70.82 243.008 70.7C242.861 70.58 242.674 70.52 242.448 70.52C242.221 70.52 242.028 70.58 241.868 70.7C241.721 70.82 241.608 71.0067 241.528 71.26C241.448 71.5133 241.408 71.84 241.408 72.24V73.28C241.408 73.68 241.448 74.0067 241.528 74.26C241.608 74.5133 241.721 74.7 241.868 74.82C242.028 74.94 242.221 75 242.448 75ZM252.728 83.24C251.954 83.24 251.301 83.0933 250.768 82.8C250.234 82.4933 249.828 82.0467 249.548 81.46C249.268 80.8733 249.128 80.1467 249.128 79.28C249.128 78.4133 249.268 77.6867 249.548 77.1C249.828 76.5133 250.234 76.0733 250.768 75.78C251.301 75.4733 251.954 75.32 252.728 75.32C253.501 75.32 254.154 75.4733 254.688 75.78C255.221 76.0733 255.628 76.5133 255.908 77.1C256.188 77.6867 256.328 78.4133 256.328 79.28C256.328 80.1467 256.188 80.8733 255.908 81.46C255.628 82.0467 255.221 82.4933 254.688 82.8C254.154 83.0933 253.501 83.24 252.728 83.24ZM252.728 81.52C252.954 81.52 253.141 81.46 253.288 81.34C253.448 81.22 253.568 81.0333 253.648 80.78C253.728 80.5267 253.768 80.2 253.768 79.8V78.76C253.768 78.36 253.728 78.0333 253.648 77.78C253.568 77.5267 253.448 77.34 253.288 77.22C253.141 77.1 252.954 77.04 252.728 77.04C252.501 77.04 252.308 77.1 252.148 77.22C252.001 77.34 251.888 77.5267 251.808 77.78C251.728 78.0333 251.688 78.36 251.688 78.76V79.8C251.688 80.2 251.728 80.5267 251.808 80.78C251.888 81.0333 252.001 81.22 252.148 81.34C252.308 81.46 252.501 81.52 252.728 81.52Z" fill="#680036"/>
<path d="M107.78 466H98.0597V463.58H101.82V454.22H101.64L98.7997 457.94L96.8797 456.44L100.22 452.04H104.82V463.58H107.78V466ZM118.612 452.04V454.66H112.272L111.972 459.08H112.132C112.319 458.64 112.532 458.253 112.772 457.92C113.012 457.587 113.319 457.327 113.692 457.14C114.065 456.953 114.545 456.86 115.132 456.86C115.932 456.86 116.652 457.04 117.292 457.4C117.945 457.747 118.465 458.253 118.852 458.92C119.239 459.573 119.432 460.367 119.432 461.3C119.432 462.247 119.225 463.093 118.812 463.84C118.399 464.587 117.792 465.173 116.992 465.6C116.192 466.027 115.219 466.24 114.072 466.24C113.179 466.24 112.412 466.12 111.772 465.88C111.132 465.627 110.592 465.293 110.152 464.88C109.725 464.467 109.372 464.027 109.092 463.56L111.272 461.84C111.579 462.373 111.945 462.833 112.372 463.22C112.799 463.607 113.372 463.8 114.092 463.8C114.812 463.8 115.352 463.593 115.712 463.18C116.085 462.767 116.272 462.22 116.272 461.54V461.38C116.272 460.74 116.085 460.233 115.712 459.86C115.339 459.487 114.825 459.3 114.172 459.3C113.639 459.3 113.192 459.413 112.832 459.64C112.472 459.853 112.199 460.067 112.012 460.28L109.552 459.94L110.072 452.04H118.612ZM123.264 466.22C122.664 466.22 122.217 466.067 121.924 465.76C121.644 465.453 121.504 465.073 121.504 464.62V464.22C121.504 463.753 121.644 463.373 121.924 463.08C122.217 462.773 122.664 462.62 123.264 462.62C123.864 462.62 124.304 462.773 124.584 463.08C124.877 463.373 125.024 463.753 125.024 464.22V464.62C125.024 465.073 124.877 465.453 124.584 465.76C124.304 466.067 123.864 466.22 123.264 466.22ZM137.955 466H128.235V463.58H131.995V454.22H131.815L128.975 457.94L127.055 456.44L130.395 452.04H134.995V463.58H137.955V466ZM144.568 466H141.928L151.608 452.04H154.248L144.568 466ZM142.948 459.72C142.174 459.72 141.521 459.573 140.988 459.28C140.454 458.973 140.048 458.527 139.768 457.94C139.488 457.353 139.348 456.627 139.348 455.76C139.348 454.893 139.488 454.167 139.768 453.58C140.048 452.993 140.454 452.553 140.988 452.26C141.521 451.953 142.174 451.8 142.948 451.8C143.721 451.8 144.374 451.953 144.908 452.26C145.441 452.553 145.848 452.993 146.128 453.58C146.408 454.167 146.548 454.893 146.548 455.76C146.548 456.627 146.408 457.353 146.128 457.94C145.848 458.527 145.441 458.973 144.908 459.28C144.374 459.573 143.721 459.72 142.948 459.72ZM142.948 458C143.174 458 143.361 457.94 143.508 457.82C143.668 457.7 143.788 457.513 143.868 457.26C143.948 457.007 143.988 456.68 143.988 456.28V455.24C143.988 454.84 143.948 454.513 143.868 454.26C143.788 454.007 143.668 453.82 143.508 453.7C143.361 453.58 143.174 453.52 142.948 453.52C142.721 453.52 142.528 453.58 142.368 453.7C142.221 453.82 142.108 454.007 142.028 454.26C141.948 454.513 141.908 454.84 141.908 455.24V456.28C141.908 456.68 141.948 457.007 142.028 457.26C142.108 457.513 142.221 457.7 142.368 457.82C142.528 457.94 142.721 458 142.948 458ZM153.228 466.24C152.454 466.24 151.801 466.093 151.268 465.8C150.734 465.493 150.328 465.047 150.048 464.46C149.768 463.873 149.628 463.147 149.628 462.28C149.628 461.413 149.768 460.687 150.048 460.1C150.328 459.513 150.734 459.073 151.268 458.78C151.801 458.473 152.454 458.32 153.228 458.32C154.001 458.32 154.654 458.473 155.188 458.78C155.721 459.073 156.128 459.513 156.408 460.1C156.688 460.687 156.828 461.413 156.828 462.28C156.828 463.147 156.688 463.873 156.408 464.46C156.128 465.047 155.721 465.493 155.188 465.8C154.654 466.093 154.001 466.24 153.228 466.24ZM153.228 464.52C153.454 464.52 153.641 464.46 153.788 464.34C153.948 464.22 154.068 464.033 154.148 463.78C154.228 463.527 154.268 463.2 154.268 462.8V461.76C154.268 461.36 154.228 461.033 154.148 460.78C154.068 460.527 153.948 460.34 153.788 460.22C153.641 460.1 153.454 460.04 153.228 460.04C153.001 460.04 152.808 460.1 152.648 460.22C152.501 460.34 152.388 460.527 152.308 460.78C152.228 461.033 152.188 461.36 152.188 461.76V462.8C152.188 463.2 152.228 463.527 152.308 463.78C152.388 464.033 152.501 464.22 152.648 464.34C152.808 464.46 153.001 464.52 153.228 464.52Z" fill="#680036"/>
<path d="M515.7 169.48V172H505.82V169.26L510.12 165.58C510.906 164.913 511.453 164.347 511.76 163.88C512.066 163.4 512.22 162.867 512.22 162.28V162C512.22 161.467 512.026 161.067 511.64 160.8C511.253 160.533 510.833 160.4 510.38 160.4C509.726 160.4 509.226 160.593 508.88 160.98C508.533 161.367 508.286 161.827 508.14 162.36L505.52 161.36C505.733 160.707 506.053 160.113 506.48 159.58C506.92 159.047 507.486 158.62 508.18 158.3C508.873 157.967 509.7 157.8 510.66 157.8C511.673 157.8 512.533 157.987 513.24 158.36C513.946 158.72 514.486 159.213 514.86 159.84C515.233 160.467 515.42 161.187 515.42 162C515.42 162.8 515.246 163.513 514.9 164.14C514.566 164.753 514.113 165.327 513.54 165.86C512.98 166.38 512.366 166.907 511.7 167.44L509.1 169.48H515.7ZM527.112 158.04V160.66H520.772L520.472 165.08H520.632C520.819 164.64 521.032 164.253 521.272 163.92C521.512 163.587 521.819 163.327 522.192 163.14C522.565 162.953 523.045 162.86 523.632 162.86C524.432 162.86 525.152 163.04 525.792 163.4C526.445 163.747 526.965 164.253 527.352 164.92C527.739 165.573 527.932 166.367 527.932 167.3C527.932 168.247 527.725 169.093 527.312 169.84C526.899 170.587 526.292 171.173 525.492 171.6C524.692 172.027 523.719 172.24 522.572 172.24C521.679 172.24 520.912 172.12 520.272 171.88C519.632 171.627 519.092 171.293 518.652 170.88C518.225 170.467 517.872 170.027 517.592 169.56L519.772 167.84C520.079 168.373 520.445 168.833 520.872 169.22C521.299 169.607 521.872 169.8 522.592 169.8C523.312 169.8 523.852 169.593 524.212 169.18C524.585 168.767 524.772 168.22 524.772 167.54V167.38C524.772 166.74 524.585 166.233 524.212 165.86C523.839 165.487 523.325 165.3 522.672 165.3C522.139 165.3 521.692 165.413 521.332 165.64C520.972 165.853 520.699 166.067 520.512 166.28L518.052 165.94L518.572 158.04H527.112ZM531.764 172.22C531.164 172.22 530.717 172.067 530.424 171.76C530.144 171.453 530.004 171.073 530.004 170.62V170.22C530.004 169.753 530.144 169.373 530.424 169.08C530.717 168.773 531.164 168.62 531.764 168.62C532.364 168.62 532.804 168.773 533.084 169.08C533.377 169.373 533.524 169.753 533.524 170.22V170.62C533.524 171.073 533.377 171.453 533.084 171.76C532.804 172.067 532.364 172.22 531.764 172.22ZM545.875 169.48V172H535.995V169.26L540.295 165.58C541.082 164.913 541.629 164.347 541.935 163.88C542.242 163.4 542.395 162.867 542.395 162.28V162C542.395 161.467 542.202 161.067 541.815 160.8C541.429 160.533 541.009 160.4 540.555 160.4C539.902 160.4 539.402 160.593 539.055 160.98C538.709 161.367 538.462 161.827 538.315 162.36L535.695 161.36C535.909 160.707 536.229 160.113 536.655 159.58C537.095 159.047 537.662 158.62 538.355 158.3C539.049 157.967 539.875 157.8 540.835 157.8C541.849 157.8 542.709 157.987 543.415 158.36C544.122 158.72 544.662 159.213 545.035 159.84C545.409 160.467 545.595 161.187 545.595 162C545.595 162.8 545.422 163.513 545.075 164.14C544.742 164.753 544.289 165.327 543.715 165.86C543.155 166.38 542.542 166.907 541.875 167.44L539.275 169.48H545.875ZM553.068 172H550.428L560.108 158.04H562.748L553.068 172ZM551.448 165.72C550.674 165.72 550.021 165.573 549.488 165.28C548.954 164.973 548.548 164.527 548.268 163.94C547.988 163.353 547.848 162.627 547.848 161.76C547.848 160.893 547.988 160.167 548.268 159.58C548.548 158.993 548.954 158.553 549.488 158.26C550.021 157.953 550.674 157.8 551.448 157.8C552.221 157.8 552.874 157.953 553.408 158.26C553.941 158.553 554.348 158.993 554.628 159.58C554.908 160.167 555.048 160.893 555.048 161.76C555.048 162.627 554.908 163.353 554.628 163.94C554.348 164.527 553.941 164.973 553.408 165.28C552.874 165.573 552.221 165.72 551.448 165.72ZM551.448 164C551.674 164 551.861 163.94 552.008 163.82C552.168 163.7 552.288 163.513 552.368 163.26C552.448 163.007 552.488 162.68 552.488 162.28V161.24C552.488 160.84 552.448 160.513 552.368 160.26C552.288 160.007 552.168 159.82 552.008 159.7C551.861 159.58 551.674 159.52 551.448 159.52C551.221 159.52 551.028 159.58 550.868 159.7C550.721 159.82 550.608 160.007 550.528 160.26C550.448 160.513 550.408 160.84 550.408 161.24V162.28C550.408 162.68 550.448 163.007 550.528 163.26C550.608 163.513 550.721 163.7 550.868 163.82C551.028 163.94 551.221 164 551.448 164ZM561.728 172.24C560.954 172.24 560.301 172.093 559.768 171.8C559.234 171.493 558.828 171.047 558.548 170.46C558.268 169.873 558.128 169.147 558.128 168.28C558.128 167.413 558.268 166.687 558.548 166.1C558.828 165.513 559.234 165.073 559.768 164.78C560.301 164.473 560.954 164.32 561.728 164.32C562.501 164.32 563.154 164.473 563.688 164.78C564.221 165.073 564.628 165.513 564.908 166.1C565.188 166.687 565.328 167.413 565.328 168.28C565.328 169.147 565.188 169.873 564.908 170.46C564.628 171.047 564.221 171.493 563.688 171.8C563.154 172.093 562.501 172.24 561.728 172.24ZM561.728 170.52C561.954 170.52 562.141 170.46 562.288 170.34C562.448 170.22 562.568 170.033 562.648 169.78C562.728 169.527 562.768 169.2 562.768 168.8V167.76C562.768 167.36 562.728 167.033 562.648 166.78C562.568 166.527 562.448 166.34 562.288 166.22C562.141 166.1 561.954 166.04 561.728 166.04C561.501 166.04 561.308 166.1 561.148 166.22C561.001 166.34 560.888 166.527 560.808 166.78C560.728 167.033 560.688 167.36 560.688 167.76V168.8C560.688 169.2 560.728 169.527 560.808 169.78C560.888 170.033 561.001 170.22 561.148 170.34C561.308 170.46 561.501 170.52 561.728 170.52Z" fill="#000A55"/>
<path d="M476.28 496H466.56V493.58H470.32V484.22H470.14L467.3 487.94L465.38 486.44L468.72 482.04H473.32V493.58H476.28V496ZM488.272 496H478.552V493.58H482.312V484.22H482.132L479.292 487.94L477.372 486.44L480.712 482.04H485.312V493.58H488.272V496ZM491.764 496.22C491.164 496.22 490.717 496.067 490.424 495.76C490.144 495.453 490.004 495.073 490.004 494.62V494.22C490.004 493.753 490.144 493.373 490.424 493.08C490.717 492.773 491.164 492.62 491.764 492.62C492.364 492.62 492.804 492.773 493.084 493.08C493.377 493.373 493.524 493.753 493.524 494.22V494.62C493.524 495.073 493.377 495.453 493.084 495.76C492.804 496.067 492.364 496.22 491.764 496.22ZM501.335 496H498.175L502.855 484.48H498.495V487.02H495.955V482.04H505.835V484.64L501.335 496ZM513.068 496H510.428L520.108 482.04H522.748L513.068 496ZM511.448 489.72C510.674 489.72 510.021 489.573 509.488 489.28C508.954 488.973 508.548 488.527 508.268 487.94C507.988 487.353 507.848 486.627 507.848 485.76C507.848 484.893 507.988 484.167 508.268 483.58C508.548 482.993 508.954 482.553 509.488 482.26C510.021 481.953 510.674 481.8 511.448 481.8C512.221 481.8 512.874 481.953 513.408 482.26C513.941 482.553 514.348 482.993 514.628 483.58C514.908 484.167 515.048 484.893 515.048 485.76C515.048 486.627 514.908 487.353 514.628 487.94C514.348 488.527 513.941 488.973 513.408 489.28C512.874 489.573 512.221 489.72 511.448 489.72ZM511.448 488C511.674 488 511.861 487.94 512.008 487.82C512.168 487.7 512.288 487.513 512.368 487.26C512.448 487.007 512.488 486.68 512.488 486.28V485.24C512.488 484.84 512.448 484.513 512.368 484.26C512.288 484.007 512.168 483.82 512.008 483.7C511.861 483.58 511.674 483.52 511.448 483.52C511.221 483.52 511.028 483.58 510.868 483.7C510.721 483.82 510.608 484.007 510.528 484.26C510.448 484.513 510.408 484.84 510.408 485.24V486.28C510.408 486.68 510.448 487.007 510.528 487.26C510.608 487.513 510.721 487.7 510.868 487.82C511.028 487.94 511.221 488 511.448 488ZM521.728 496.24C520.954 496.24 520.301 496.093 519.768 495.8C519.234 495.493 518.828 495.047 518.548 494.46C518.268 493.873 518.128 493.147 518.128 492.28C518.128 491.413 518.268 490.687 518.548 490.1C518.828 489.513 519.234 489.073 519.768 488.78C520.301 488.473 520.954 488.32 521.728 488.32C522.501 488.32 523.154 488.473 523.688 488.78C524.221 489.073 524.628 489.513 524.908 490.1C525.188 490.687 525.328 491.413 525.328 492.28C525.328 493.147 525.188 493.873 524.908 494.46C524.628 495.047 524.221 495.493 523.688 495.8C523.154 496.093 522.501 496.24 521.728 496.24ZM521.728 494.52C521.954 494.52 522.141 494.46 522.288 494.34C522.448 494.22 522.568 494.033 522.648 493.78C522.728 493.527 522.768 493.2 522.768 492.8V491.76C522.768 491.36 522.728 491.033 522.648 490.78C522.568 490.527 522.448 490.34 522.288 490.22C522.141 490.1 521.954 490.04 521.728 490.04C521.501 490.04 521.308 490.1 521.148 490.22C521.001 490.34 520.888 490.527 520.808 490.78C520.728 491.033 520.688 491.36 520.688 491.76V492.8C520.688 493.2 520.728 493.527 520.808 493.78C520.888 494.033 521.001 494.22 521.148 494.34C521.308 494.46 521.501 494.52 521.728 494.52Z" fill="#000A55"/>
<path d="M61.8358 283.34C61.8358 284.313 61.6891 285.24 61.3958 286.12C61.1024 286.987 60.7091 287.793 60.2158 288.54C59.7358 289.273 59.2024 289.933 58.6158 290.52C58.0291 291.107 57.4358 291.6 56.8358 292H52.6958C53.8291 291.187 54.8091 290.42 55.6358 289.7C56.4624 288.967 57.1291 288.22 57.6358 287.46C58.1558 286.7 58.5091 285.88 58.6958 285L58.5158 284.94C58.3558 285.287 58.1491 285.627 57.8958 285.96C57.6424 286.28 57.3158 286.54 56.9158 286.74C56.5291 286.94 56.0358 287.04 55.4358 287.04C54.6758 287.04 53.9824 286.86 53.3558 286.5C52.7424 286.14 52.2558 285.64 51.8958 285C51.5358 284.347 51.3558 283.58 51.3558 282.7C51.3558 281.74 51.5691 280.893 51.9958 280.16C52.4358 279.427 53.0491 278.853 53.8358 278.44C54.6224 278.013 55.5424 277.8 56.5958 277.8C57.7024 277.8 58.6424 278.027 59.4158 278.48C60.2024 278.933 60.8024 279.58 61.2158 280.42C61.6291 281.247 61.8358 282.22 61.8358 283.34ZM56.5958 284.74C57.0358 284.74 57.4091 284.66 57.7158 284.5C58.0358 284.327 58.2824 284.087 58.4558 283.78C58.6291 283.46 58.7158 283.073 58.7158 282.62V282.26C58.7158 281.807 58.6291 281.427 58.4558 281.12C58.2824 280.8 58.0358 280.56 57.7158 280.4C57.4091 280.227 57.0358 280.14 56.5958 280.14C56.1558 280.14 55.7758 280.227 55.4558 280.4C55.1491 280.56 54.9091 280.8 54.7358 281.12C54.5624 281.427 54.4758 281.807 54.4758 282.26V282.62C54.4758 283.073 54.5624 283.46 54.7358 283.78C54.9091 284.087 55.1491 284.327 55.4558 284.5C55.7758 284.66 56.1558 284.74 56.5958 284.74ZM65.768 292.22C65.168 292.22 64.7213 292.067 64.428 291.76C64.148 291.453 64.008 291.073 64.008 290.62V290.22C64.008 289.753 64.148 289.373 64.428 289.08C64.7213 288.773 65.168 288.62 65.768 288.62C66.368 288.62 66.808 288.773 67.088 289.08C67.3813 289.373 67.528 289.753 67.528 290.22V290.62C67.528 291.073 67.3813 291.453 67.088 291.76C66.808 292.067 66.368 292.22 65.768 292.22ZM78.4594 292H75.5994V289.32H69.4594V286.76L74.8994 278.04H78.4594V287H80.2194V289.32H78.4594V292ZM75.3994 281.14L71.8594 287H75.5994V281.14H75.3994ZM87.0716 292H84.4316L94.1116 278.04H96.7516L87.0716 292ZM85.4516 285.72C84.6782 285.72 84.0249 285.573 83.4916 285.28C82.9582 284.973 82.5516 284.527 82.2716 283.94C81.9916 283.353 81.8516 282.627 81.8516 281.76C81.8516 280.893 81.9916 280.167 82.2716 279.58C82.5516 278.993 82.9582 278.553 83.4916 278.26C84.0249 277.953 84.6782 277.8 85.4516 277.8C86.2249 277.8 86.8782 277.953 87.4116 278.26C87.9449 278.553 88.3516 278.993 88.6316 279.58C88.9116 280.167 89.0516 280.893 89.0516 281.76C89.0516 282.627 88.9116 283.353 88.6316 283.94C88.3516 284.527 87.9449 284.973 87.4116 285.28C86.8782 285.573 86.2249 285.72 85.4516 285.72ZM85.4516 284C85.6782 284 85.8649 283.94 86.0116 283.82C86.1716 283.7 86.2916 283.513 86.3716 283.26C86.4516 283.007 86.4916 282.68 86.4916 282.28V281.24C86.4916 280.84 86.4516 280.513 86.3716 280.26C86.2916 280.007 86.1716 279.82 86.0116 279.7C85.8649 279.58 85.6782 279.52 85.4516 279.52C85.2249 279.52 85.0316 279.58 84.8716 279.7C84.7249 279.82 84.6116 280.007 84.5316 280.26C84.4516 280.513 84.4116 280.84 84.4116 281.24V282.28C84.4116 282.68 84.4516 283.007 84.5316 283.26C84.6116 283.513 84.7249 283.7 84.8716 283.82C85.0316 283.94 85.2249 284 85.4516 284ZM95.7316 292.24C94.9582 292.24 94.3049 292.093 93.7716 291.8C93.2382 291.493 92.8316 291.047 92.5516 290.46C92.2716 289.873 92.1316 289.147 92.1316 288.28C92.1316 287.413 92.2716 286.687 92.5516 286.1C92.8316 285.513 93.2382 285.073 93.7716 284.78C94.3049 284.473 94.9582 284.32 95.7316 284.32C96.5049 284.32 97.1582 284.473 97.6916 284.78C98.2249 285.073 98.6316 285.513 98.9116 286.1C99.1916 286.687 99.3316 287.413 99.3316 288.28C99.3316 289.147 99.1916 289.873 98.9116 290.46C98.6316 291.047 98.2249 291.493 97.6916 291.8C97.1582 292.093 96.5049 292.24 95.7316 292.24ZM95.7316 290.52C95.9582 290.52 96.1449 290.46 96.2916 290.34C96.4516 290.22 96.5716 290.033 96.6516 289.78C96.7316 289.527 96.7716 289.2 96.7716 288.8V287.76C96.7716 287.36 96.7316 287.033 96.6516 286.78C96.5716 286.527 96.4516 286.34 96.2916 286.22C96.1449 286.1 95.9582 286.04 95.7316 286.04C95.5049 286.04 95.3116 286.1 95.1516 286.22C95.0049 286.34 94.8916 286.527 94.8116 286.78C94.7316 287.033 94.6916 287.36 94.6916 287.76V288.8C94.6916 289.2 94.7316 289.527 94.8116 289.78C94.8916 290.033 95.0049 290.22 95.1516 290.34C95.3116 290.46 95.5049 290.52 95.7316 290.52Z" fill="#680036"/>
<path d="M97.1158 171.04V173.66H90.7758L90.4758 178.08H90.6358C90.8224 177.64 91.0358 177.253 91.2758 176.92C91.5158 176.587 91.8224 176.327 92.1958 176.14C92.5691 175.953 93.0491 175.86 93.6358 175.86C94.4358 175.86 95.1558 176.04 95.7958 176.4C96.4491 176.747 96.9691 177.253 97.3558 177.92C97.7424 178.573 97.9358 179.367 97.9358 180.3C97.9358 181.247 97.7291 182.093 97.3158 182.84C96.9024 183.587 96.2958 184.173 95.4958 184.6C94.6958 185.027 93.7224 185.24 92.5758 185.24C91.6824 185.24 90.9158 185.12 90.2758 184.88C89.6358 184.627 89.0958 184.293 88.6558 183.88C88.2291 183.467 87.8758 183.027 87.5958 182.56L89.7758 180.84C90.0824 181.373 90.4491 181.833 90.8758 182.22C91.3024 182.607 91.8758 182.8 92.5958 182.8C93.3158 182.8 93.8558 182.593 94.2158 182.18C94.5891 181.767 94.7758 181.22 94.7758 180.54V180.38C94.7758 179.74 94.5891 179.233 94.2158 178.86C93.8424 178.487 93.3291 178.3 92.6758 178.3C92.1424 178.3 91.6958 178.413 91.3358 178.64C90.9758 178.853 90.7024 179.067 90.5158 179.28L88.0558 178.94L88.5758 171.04H97.1158ZM101.768 185.22C101.168 185.22 100.721 185.067 100.428 184.76C100.148 184.453 100.008 184.073 100.008 183.62V183.22C100.008 182.753 100.148 182.373 100.428 182.08C100.721 181.773 101.168 181.62 101.768 181.62C102.368 181.62 102.808 181.773 103.088 182.08C103.381 182.373 103.528 182.753 103.528 183.22V183.62C103.528 184.073 103.381 184.453 103.088 184.76C102.808 185.067 102.368 185.22 101.768 185.22ZM116.459 185H106.739V182.58H110.499V173.22H110.319L107.479 176.94L105.559 175.44L108.899 171.04H113.499V182.58H116.459V185ZM123.072 185H120.432L130.112 171.04H132.752L123.072 185ZM121.452 178.72C120.678 178.72 120.025 178.573 119.492 178.28C118.958 177.973 118.552 177.527 118.272 176.94C117.992 176.353 117.852 175.627 117.852 174.76C117.852 173.893 117.992 173.167 118.272 172.58C118.552 171.993 118.958 171.553 119.492 171.26C120.025 170.953 120.678 170.8 121.452 170.8C122.225 170.8 122.878 170.953 123.412 171.26C123.945 171.553 124.352 171.993 124.632 172.58C124.912 173.167 125.052 173.893 125.052 174.76C125.052 175.627 124.912 176.353 124.632 176.94C124.352 177.527 123.945 177.973 123.412 178.28C122.878 178.573 122.225 178.72 121.452 178.72ZM121.452 177C121.678 177 121.865 176.94 122.012 176.82C122.172 176.7 122.292 176.513 122.372 176.26C122.452 176.007 122.492 175.68 122.492 175.28V174.24C122.492 173.84 122.452 173.513 122.372 173.26C122.292 173.007 122.172 172.82 122.012 172.7C121.865 172.58 121.678 172.52 121.452 172.52C121.225 172.52 121.032 172.58 120.872 172.7C120.725 172.82 120.612 173.007 120.532 173.26C120.452 173.513 120.412 173.84 120.412 174.24V175.28C120.412 175.68 120.452 176.007 120.532 176.26C120.612 176.513 120.725 176.7 120.872 176.82C121.032 176.94 121.225 177 121.452 177ZM131.732 185.24C130.958 185.24 130.305 185.093 129.772 184.8C129.238 184.493 128.832 184.047 128.552 183.46C128.272 182.873 128.132 182.147 128.132 181.28C128.132 180.413 128.272 179.687 128.552 179.1C128.832 178.513 129.238 178.073 129.772 177.78C130.305 177.473 130.958 177.32 131.732 177.32C132.505 177.32 133.158 177.473 133.692 177.78C134.225 178.073 134.632 178.513 134.912 179.1C135.192 179.687 135.332 180.413 135.332 181.28C135.332 182.147 135.192 182.873 134.912 183.46C134.632 184.047 134.225 184.493 133.692 184.8C133.158 185.093 132.505 185.24 131.732 185.24ZM131.732 183.52C131.958 183.52 132.145 183.46 132.292 183.34C132.452 183.22 132.572 183.033 132.652 182.78C132.732 182.527 132.772 182.2 132.772 181.8V180.76C132.772 180.36 132.732 180.033 132.652 179.78C132.572 179.527 132.452 179.34 132.292 179.22C132.145 179.1 131.958 179.04 131.732 179.04C131.505 179.04 131.312 179.1 131.152 179.22C131.005 179.34 130.892 179.527 130.812 179.78C130.732 180.033 130.692 180.36 130.692 180.76V181.8C130.692 182.2 130.732 182.527 130.812 182.78C130.892 183.033 131.005 183.22 131.152 183.34C131.312 183.46 131.505 183.52 131.732 183.52Z" fill="#680036"/>
<path d="M552.276 403H549.416V400.32H543.276V397.76L548.716 389.04H552.276V398H554.036V400.32H552.276V403ZM549.216 392.14L545.676 398H549.416V392.14H549.216ZM557.768 403.22C557.168 403.22 556.721 403.067 556.428 402.76C556.148 402.453 556.008 402.073 556.008 401.62V401.22C556.008 400.753 556.148 400.373 556.428 400.08C556.721 399.773 557.168 399.62 557.768 399.62C558.368 399.62 558.808 399.773 559.088 400.08C559.381 400.373 559.528 400.753 559.528 401.22V401.62C559.528 402.073 559.381 402.453 559.088 402.76C558.808 403.067 558.368 403.22 557.768 403.22ZM571.879 400.48V403H561.999V400.26L566.299 396.58C567.086 395.913 567.633 395.347 567.939 394.88C568.246 394.4 568.399 393.867 568.399 393.28V393C568.399 392.467 568.206 392.067 567.819 391.8C567.433 391.533 567.013 391.4 566.559 391.4C565.906 391.4 565.406 391.593 565.059 391.98C564.713 392.367 564.466 392.827 564.319 393.36L561.699 392.36C561.913 391.707 562.233 391.113 562.659 390.58C563.099 390.047 563.666 389.62 564.359 389.3C565.053 388.967 565.879 388.8 566.839 388.8C567.853 388.8 568.713 388.987 569.419 389.36C570.126 389.72 570.666 390.213 571.039 390.84C571.413 391.467 571.599 392.187 571.599 393C571.599 393.8 571.426 394.513 571.079 395.14C570.746 395.753 570.293 396.327 569.719 396.86C569.159 397.38 568.546 397.907 567.879 398.44L565.279 400.48H571.879ZM579.072 403H576.432L586.112 389.04H588.752L579.072 403ZM577.452 396.72C576.678 396.72 576.025 396.573 575.492 396.28C574.958 395.973 574.552 395.527 574.272 394.94C573.992 394.353 573.852 393.627 573.852 392.76C573.852 391.893 573.992 391.167 574.272 390.58C574.552 389.993 574.958 389.553 575.492 389.26C576.025 388.953 576.678 388.8 577.452 388.8C578.225 388.8 578.878 388.953 579.412 389.26C579.945 389.553 580.352 389.993 580.632 390.58C580.912 391.167 581.052 391.893 581.052 392.76C581.052 393.627 580.912 394.353 580.632 394.94C580.352 395.527 579.945 395.973 579.412 396.28C578.878 396.573 578.225 396.72 577.452 396.72ZM577.452 395C577.678 395 577.865 394.94 578.012 394.82C578.172 394.7 578.292 394.513 578.372 394.26C578.452 394.007 578.492 393.68 578.492 393.28V392.24C578.492 391.84 578.452 391.513 578.372 391.26C578.292 391.007 578.172 390.82 578.012 390.7C577.865 390.58 577.678 390.52 577.452 390.52C577.225 390.52 577.032 390.58 576.872 390.7C576.725 390.82 576.612 391.007 576.532 391.26C576.452 391.513 576.412 391.84 576.412 392.24V393.28C576.412 393.68 576.452 394.007 576.532 394.26C576.612 394.513 576.725 394.7 576.872 394.82C577.032 394.94 577.225 395 577.452 395ZM587.732 403.24C586.958 403.24 586.305 403.093 585.772 402.8C585.238 402.493 584.832 402.047 584.552 401.46C584.272 400.873 584.132 400.147 584.132 399.28C584.132 398.413 584.272 397.687 584.552 397.1C584.832 396.513 585.238 396.073 585.772 395.78C586.305 395.473 586.958 395.32 587.732 395.32C588.505 395.32 589.158 395.473 589.692 395.78C590.225 396.073 590.632 396.513 590.912 397.1C591.192 397.687 591.332 398.413 591.332 399.28C591.332 400.147 591.192 400.873 590.912 401.46C590.632 402.047 590.225 402.493 589.692 402.8C589.158 403.093 588.505 403.24 587.732 403.24ZM587.732 401.52C587.958 401.52 588.145 401.46 588.292 401.34C588.452 401.22 588.572 401.033 588.652 400.78C588.732 400.527 588.772 400.2 588.772 399.8V398.76C588.772 398.36 588.732 398.033 588.652 397.78C588.572 397.527 588.452 397.34 588.292 397.22C588.145 397.1 587.958 397.04 587.732 397.04C587.505 397.04 587.312 397.1 587.152 397.22C587.005 397.34 586.892 397.527 586.812 397.78C586.732 398.033 586.692 398.36 586.692 398.76V399.8C586.692 400.2 586.732 400.527 586.812 400.78C586.892 401.033 587.005 401.22 587.152 401.34C587.312 401.46 587.505 401.52 587.732 401.52Z" fill="#000A55"/>
<path d="M294.28 568H284.56V565.58H288.32V556.22H288.14L285.3 559.94L283.38 558.44L286.72 554.04H291.32V565.58H294.28V568ZM300.752 568.24C299.645 568.24 298.699 568.013 297.912 567.56C297.139 567.107 296.545 566.467 296.132 565.64C295.719 564.8 295.512 563.82 295.512 562.7C295.512 561.713 295.659 560.787 295.952 559.92C296.245 559.053 296.632 558.253 297.112 557.52C297.605 556.773 298.145 556.107 298.732 555.52C299.319 554.933 299.912 554.44 300.512 554.04H304.652C303.519 554.853 302.539 555.627 301.712 556.36C300.885 557.08 300.212 557.82 299.692 558.58C299.185 559.327 298.839 560.147 298.652 561.04L298.832 561.1C298.992 560.74 299.199 560.4 299.452 560.08C299.705 559.76 300.032 559.5 300.432 559.3C300.832 559.1 301.325 559 301.912 559C302.685 559 303.379 559.18 303.992 559.54C304.605 559.887 305.092 560.387 305.452 561.04C305.812 561.693 305.992 562.46 305.992 563.34C305.992 564.287 305.772 565.133 305.332 565.88C304.905 566.613 304.299 567.193 303.512 567.62C302.739 568.033 301.819 568.24 300.752 568.24ZM300.752 565.9C301.192 565.9 301.565 565.82 301.872 565.66C302.192 565.487 302.439 565.247 302.612 564.94C302.785 564.62 302.872 564.233 302.872 563.78V563.42C302.872 562.967 302.785 562.587 302.612 562.28C302.439 561.96 302.192 561.72 301.872 561.56C301.565 561.387 301.192 561.3 300.752 561.3C300.312 561.3 299.932 561.387 299.612 561.56C299.305 561.72 299.065 561.96 298.892 562.28C298.719 562.587 298.632 562.967 298.632 563.42V563.78C298.632 564.233 298.719 564.62 298.892 564.94C299.065 565.247 299.305 565.487 299.612 565.66C299.932 565.82 300.312 565.9 300.752 565.9ZM309.764 568.22C309.164 568.22 308.717 568.067 308.424 567.76C308.144 567.453 308.004 567.073 308.004 566.62V566.22C308.004 565.753 308.144 565.373 308.424 565.08C308.717 564.773 309.164 564.62 309.764 564.62C310.364 564.62 310.804 564.773 311.084 565.08C311.377 565.373 311.524 565.753 311.524 566.22V566.62C311.524 567.073 311.377 567.453 311.084 567.76C310.804 568.067 310.364 568.22 309.764 568.22ZM318.935 568.24C317.829 568.24 316.882 568.013 316.095 567.56C315.322 567.107 314.729 566.467 314.315 565.64C313.902 564.8 313.695 563.82 313.695 562.7C313.695 561.713 313.842 560.787 314.135 559.92C314.429 559.053 314.815 558.253 315.295 557.52C315.789 556.773 316.329 556.107 316.915 555.52C317.502 554.933 318.095 554.44 318.695 554.04H322.835C321.702 554.853 320.722 555.627 319.895 556.36C319.069 557.08 318.395 557.82 317.875 558.58C317.369 559.327 317.022 560.147 316.835 561.04L317.015 561.1C317.175 560.74 317.382 560.4 317.635 560.08C317.889 559.76 318.215 559.5 318.615 559.3C319.015 559.1 319.509 559 320.095 559C320.869 559 321.562 559.18 322.175 559.54C322.789 559.887 323.275 560.387 323.635 561.04C323.995 561.693 324.175 562.46 324.175 563.34C324.175 564.287 323.955 565.133 323.515 565.88C323.089 566.613 322.482 567.193 321.695 567.62C320.922 568.033 320.002 568.24 318.935 568.24ZM318.935 565.9C319.375 565.9 319.749 565.82 320.055 565.66C320.375 565.487 320.622 565.247 320.795 564.94C320.969 564.62 321.055 564.233 321.055 563.78V563.42C321.055 562.967 320.969 562.587 320.795 562.28C320.622 561.96 320.375 561.72 320.055 561.56C319.749 561.387 319.375 561.3 318.935 561.3C318.495 561.3 318.115 561.387 317.795 561.56C317.489 561.72 317.249 561.96 317.075 562.28C316.902 562.587 316.815 562.967 316.815 563.42V563.78C316.815 564.233 316.902 564.62 317.075 564.94C317.249 565.247 317.489 565.487 317.795 565.66C318.115 565.82 318.495 565.9 318.935 565.9ZM331.068 568H328.428L338.108 554.04H340.748L331.068 568ZM329.448 561.72C328.674 561.72 328.021 561.573 327.488 561.28C326.954 560.973 326.548 560.527 326.268 559.94C325.988 559.353 325.848 558.627 325.848 557.76C325.848 556.893 325.988 556.167 326.268 555.58C326.548 554.993 326.954 554.553 327.488 554.26C328.021 553.953 328.674 553.8 329.448 553.8C330.221 553.8 330.874 553.953 331.408 554.26C331.941 554.553 332.348 554.993 332.628 555.58C332.908 556.167 333.048 556.893 333.048 557.76C333.048 558.627 332.908 559.353 332.628 559.94C332.348 560.527 331.941 560.973 331.408 561.28C330.874 561.573 330.221 561.72 329.448 561.72ZM329.448 560C329.674 560 329.861 559.94 330.008 559.82C330.168 559.7 330.288 559.513 330.368 559.26C330.448 559.007 330.488 558.68 330.488 558.28V557.24C330.488 556.84 330.448 556.513 330.368 556.26C330.288 556.007 330.168 555.82 330.008 555.7C329.861 555.58 329.674 555.52 329.448 555.52C329.221 555.52 329.028 555.58 328.868 555.7C328.721 555.82 328.608 556.007 328.528 556.26C328.448 556.513 328.408 556.84 328.408 557.24V558.28C328.408 558.68 328.448 559.007 328.528 559.26C328.608 559.513 328.721 559.7 328.868 559.82C329.028 559.94 329.221 560 329.448 560ZM339.728 568.24C338.954 568.24 338.301 568.093 337.768 567.8C337.234 567.493 336.828 567.047 336.548 566.46C336.268 565.873 336.128 565.147 336.128 564.28C336.128 563.413 336.268 562.687 336.548 562.1C336.828 561.513 337.234 561.073 337.768 560.78C338.301 560.473 338.954 560.32 339.728 560.32C340.501 560.32 341.154 560.473 341.688 560.78C342.221 561.073 342.628 561.513 342.908 562.1C343.188 562.687 343.328 563.413 343.328 564.28C343.328 565.147 343.188 565.873 342.908 566.46C342.628 567.047 342.221 567.493 341.688 567.8C341.154 568.093 340.501 568.24 339.728 568.24ZM339.728 566.52C339.954 566.52 340.141 566.46 340.288 566.34C340.448 566.22 340.568 566.033 340.648 565.78C340.728 565.527 340.768 565.2 340.768 564.8V563.76C340.768 563.36 340.728 563.033 340.648 562.78C340.568 562.527 340.448 562.34 340.288 562.22C340.141 562.1 339.954 562.04 339.728 562.04C339.501 562.04 339.308 562.1 339.148 562.22C339.001 562.34 338.888 562.527 338.808 562.78C338.728 563.033 338.688 563.36 338.688 563.76V564.8C338.688 565.2 338.728 565.527 338.808 565.78C338.888 566.033 339.001 566.22 339.148 566.34C339.308 566.46 339.501 566.52 339.728 566.52Z" fill="#000A55"/>
<path d="M295.719 592H294.819C294.392 592 294.046 591.913 293.779 591.74C293.512 591.553 293.319 591.3 293.199 590.98C293.079 590.66 293.019 590.293 293.019 589.88V589.74L293.639 590.32H292.939C292.726 590.947 292.352 591.427 291.819 591.76C291.299 592.08 290.679 592.24 289.959 592.24C288.866 592.24 288.012 591.96 287.399 591.4C286.799 590.84 286.499 590.08 286.499 589.12C286.499 588.467 286.659 587.92 286.979 587.48C287.299 587.027 287.779 586.687 288.419 586.46C289.072 586.22 289.899 586.1 290.899 586.1H292.939V585.08C292.939 584.347 292.739 583.787 292.339 583.4C291.939 583.013 291.326 582.82 290.499 582.82C289.886 582.82 289.366 582.96 288.939 583.24C288.512 583.52 288.159 583.893 287.879 584.36L286.919 583.46C287.199 582.913 287.646 582.44 288.259 582.04C288.872 581.64 289.646 581.44 290.579 581.44C291.819 581.44 292.786 581.747 293.479 582.36C294.186 582.973 294.539 583.827 294.539 584.92V590.6H295.719V592ZM292.939 587.3H290.819C289.912 587.3 289.246 587.433 288.819 587.7C288.392 587.967 288.179 588.353 288.179 588.86V589.28C288.179 589.787 288.366 590.18 288.739 590.46C289.112 590.74 289.606 590.88 290.219 590.88C290.752 590.88 291.219 590.8 291.619 590.64C292.032 590.467 292.352 590.24 292.579 589.96C292.819 589.667 292.939 589.347 292.939 589V587.3ZM304.603 592V590.32H304.523C304.216 590.96 303.809 591.44 303.303 591.76C302.809 592.08 302.209 592.24 301.503 592.24C300.649 592.24 299.903 592.02 299.263 591.58C298.636 591.14 298.149 590.513 297.803 589.7C297.469 588.887 297.303 587.933 297.303 586.84C297.303 585.733 297.469 584.78 297.803 583.98C298.149 583.167 298.636 582.54 299.263 582.1C299.903 581.66 300.649 581.44 301.503 581.44C302.209 581.44 302.823 581.6 303.343 581.92C303.863 582.227 304.256 582.707 304.523 583.36H304.603V577.2H306.203V592H304.603ZM301.943 590.8C302.436 590.8 302.883 590.72 303.283 590.56C303.683 590.387 304.003 590.147 304.243 589.84C304.483 589.52 304.603 589.14 304.603 588.7V584.86C304.603 584.473 304.483 584.133 304.243 583.84C304.003 583.547 303.683 583.313 303.283 583.14C302.883 582.967 302.436 582.88 301.943 582.88C301.049 582.88 300.336 583.167 299.803 583.74C299.283 584.3 299.023 585.04 299.023 585.96V587.72C299.023 588.64 299.283 589.387 299.803 589.96C300.336 590.52 301.049 590.8 301.943 590.8ZM315.964 592V590.32H315.884C315.684 590.813 315.364 591.26 314.924 591.66C314.498 592.047 313.851 592.24 312.984 592.24C311.931 592.24 311.084 591.9 310.444 591.22C309.818 590.527 309.504 589.553 309.504 588.3V581.68H311.104V588.02C311.104 588.94 311.304 589.633 311.704 590.1C312.104 590.567 312.691 590.8 313.464 590.8C313.891 590.8 314.291 590.733 314.664 590.6C315.051 590.453 315.364 590.233 315.604 589.94C315.844 589.647 315.964 589.273 315.964 588.82V581.68H317.564V592H315.964ZM324.091 592H322.671C322.125 592 321.705 591.847 321.411 591.54C321.118 591.22 320.971 590.82 320.971 590.34V577.2H322.571V590.6H324.091V592ZM330.603 592H328.603C328.056 592 327.636 591.84 327.343 591.52C327.05 591.2 326.903 590.793 326.903 590.3V583.08H325.203V581.68H326.163C326.51 581.68 326.743 581.613 326.863 581.48C326.996 581.333 327.063 581.087 327.063 580.74V578.82H328.503V581.68H330.763V583.08H328.503V590.6H330.603V592ZM336.435 592.24C335.488 592.24 334.688 592.06 334.035 591.7C333.381 591.327 332.821 590.833 332.355 590.22L333.495 589.3C333.895 589.793 334.341 590.18 334.835 590.46C335.328 590.74 335.901 590.88 336.555 590.88C337.235 590.88 337.761 590.733 338.135 590.44C338.521 590.147 338.715 589.733 338.715 589.2C338.715 588.8 338.581 588.453 338.315 588.16C338.061 587.867 337.595 587.673 336.915 587.58L336.095 587.46C335.468 587.367 334.901 587.213 334.395 587C333.888 586.773 333.488 586.46 333.195 586.06C332.915 585.647 332.775 585.12 332.775 584.48C332.775 583.453 333.121 582.693 333.815 582.2C334.521 581.693 335.401 581.44 336.455 581.44C337.015 581.44 337.508 581.507 337.935 581.64C338.375 581.773 338.768 581.967 339.115 582.22C339.461 582.46 339.775 582.753 340.055 583.1L338.995 584.06C338.768 583.74 338.435 583.453 337.995 583.2C337.555 582.933 337.001 582.8 336.335 582.8C335.681 582.8 335.181 582.947 334.835 583.24C334.488 583.52 334.315 583.907 334.315 584.4C334.315 584.893 334.481 585.26 334.815 585.5C335.161 585.727 335.655 585.893 336.295 586L337.095 586.12C338.241 586.293 339.055 586.627 339.535 587.12C340.015 587.6 340.255 588.233 340.255 589.02C340.255 589.687 340.101 590.26 339.795 590.74C339.488 591.22 339.048 591.593 338.475 591.86C337.901 592.113 337.221 592.24 336.435 592.24Z" fill="#000A55"/>
<path d="M109.219 488H108.319C107.892 488 107.546 487.913 107.279 487.74C107.012 487.553 106.819 487.3 106.699 486.98C106.579 486.66 106.519 486.293 106.519 485.88V485.74L107.139 486.32H106.439C106.226 486.947 105.852 487.427 105.319 487.76C104.799 488.08 104.179 488.24 103.459 488.24C102.366 488.24 101.512 487.96 100.899 487.4C100.299 486.84 99.9991 486.08 99.9991 485.12C99.9991 484.467 100.159 483.92 100.479 483.48C100.799 483.027 101.279 482.687 101.919 482.46C102.572 482.22 103.399 482.1 104.399 482.1H106.439V481.08C106.439 480.347 106.239 479.787 105.839 479.4C105.439 479.013 104.826 478.82 103.999 478.82C103.386 478.82 102.866 478.96 102.439 479.24C102.012 479.52 101.659 479.893 101.379 480.36L100.419 479.46C100.699 478.913 101.146 478.44 101.759 478.04C102.372 477.64 103.146 477.44 104.079 477.44C105.319 477.44 106.286 477.747 106.979 478.36C107.686 478.973 108.039 479.827 108.039 480.92V486.6H109.219V488ZM106.439 483.3H104.319C103.412 483.3 102.746 483.433 102.319 483.7C101.892 483.967 101.679 484.353 101.679 484.86V485.28C101.679 485.787 101.866 486.18 102.239 486.46C102.612 486.74 103.106 486.88 103.719 486.88C104.252 486.88 104.719 486.8 105.119 486.64C105.532 486.467 105.852 486.24 106.079 485.96C106.319 485.667 106.439 485.347 106.439 485V483.3ZM118.103 488V486.32H118.023C117.716 486.96 117.309 487.44 116.803 487.76C116.309 488.08 115.709 488.24 115.003 488.24C114.149 488.24 113.403 488.02 112.763 487.58C112.136 487.14 111.649 486.513 111.303 485.7C110.969 484.887 110.803 483.933 110.803 482.84C110.803 481.733 110.969 480.78 111.303 479.98C111.649 479.167 112.136 478.54 112.763 478.1C113.403 477.66 114.149 477.44 115.003 477.44C115.709 477.44 116.323 477.6 116.843 477.92C117.363 478.227 117.756 478.707 118.023 479.36H118.103V473.2H119.703V488H118.103ZM115.443 486.8C115.936 486.8 116.383 486.72 116.783 486.56C117.183 486.387 117.503 486.147 117.743 485.84C117.983 485.52 118.103 485.14 118.103 484.7V480.86C118.103 480.473 117.983 480.133 117.743 479.84C117.503 479.547 117.183 479.313 116.783 479.14C116.383 478.967 115.936 478.88 115.443 478.88C114.549 478.88 113.836 479.167 113.303 479.74C112.783 480.3 112.523 481.04 112.523 481.96V483.72C112.523 484.64 112.783 485.387 113.303 485.96C113.836 486.52 114.549 486.8 115.443 486.8ZM129.464 488V486.32H129.384C129.184 486.813 128.864 487.26 128.424 487.66C127.998 488.047 127.351 488.24 126.484 488.24C125.431 488.24 124.584 487.9 123.944 487.22C123.318 486.527 123.004 485.553 123.004 484.3V477.68H124.604V484.02C124.604 484.94 124.804 485.633 125.204 486.1C125.604 486.567 126.191 486.8 126.964 486.8C127.391 486.8 127.791 486.733 128.164 486.6C128.551 486.453 128.864 486.233 129.104 485.94C129.344 485.647 129.464 485.273 129.464 484.82V477.68H131.064V488H129.464ZM137.591 488H136.171C135.625 488 135.205 487.847 134.911 487.54C134.618 487.22 134.471 486.82 134.471 486.34V473.2H136.071V486.6H137.591V488ZM144.103 488H142.103C141.556 488 141.136 487.84 140.843 487.52C140.55 487.2 140.403 486.793 140.403 486.3V479.08H138.703V477.68H139.663C140.01 477.68 140.243 477.613 140.363 477.48C140.496 477.333 140.563 477.087 140.563 476.74V474.82H142.003V477.68H144.263V479.08H142.003V486.6H144.103V488ZM149.935 488.24C148.988 488.24 148.188 488.06 147.535 487.7C146.881 487.327 146.321 486.833 145.855 486.22L146.995 485.3C147.395 485.793 147.841 486.18 148.335 486.46C148.828 486.74 149.401 486.88 150.055 486.88C150.735 486.88 151.261 486.733 151.635 486.44C152.021 486.147 152.215 485.733 152.215 485.2C152.215 484.8 152.081 484.453 151.815 484.16C151.561 483.867 151.095 483.673 150.415 483.58L149.595 483.46C148.968 483.367 148.401 483.213 147.895 483C147.388 482.773 146.988 482.46 146.695 482.06C146.415 481.647 146.275 481.12 146.275 480.48C146.275 479.453 146.621 478.693 147.315 478.2C148.021 477.693 148.901 477.44 149.955 477.44C150.515 477.44 151.008 477.507 151.435 477.64C151.875 477.773 152.268 477.967 152.615 478.22C152.961 478.46 153.275 478.753 153.555 479.1L152.495 480.06C152.268 479.74 151.935 479.453 151.495 479.2C151.055 478.933 150.501 478.8 149.835 478.8C149.181 478.8 148.681 478.947 148.335 479.24C147.988 479.52 147.815 479.907 147.815 480.4C147.815 480.893 147.981 481.26 148.315 481.5C148.661 481.727 149.155 481.893 149.795 482L150.595 482.12C151.741 482.293 152.555 482.627 153.035 483.12C153.515 483.6 153.755 484.233 153.755 485.02C153.755 485.687 153.601 486.26 153.295 486.74C152.988 487.22 152.548 487.593 151.975 487.86C151.401 488.113 150.721 488.24 149.935 488.24Z" fill="#680036"/>
<path d="M474.373 513.7L476.873 506.68H478.453L473.833 519.4C473.686 519.813 473.519 520.133 473.333 520.36C473.159 520.6 472.926 520.767 472.633 520.86C472.339 520.953 471.939 521 471.433 521H470.613V519.6H472.233L473.013 517.4L469.153 506.68H470.753L473.233 513.7L473.713 515.38H473.812L474.373 513.7ZM484.295 517.24C483.375 517.24 482.562 517.02 481.855 516.58C481.162 516.127 480.615 515.5 480.215 514.7C479.829 513.887 479.635 512.933 479.635 511.84C479.635 510.747 479.829 509.8 480.215 509C480.615 508.187 481.162 507.56 481.855 507.12C482.562 506.667 483.375 506.44 484.295 506.44C485.215 506.44 486.022 506.667 486.715 507.12C487.422 507.56 487.969 508.187 488.355 509C488.755 509.8 488.955 510.747 488.955 511.84C488.955 512.933 488.755 513.887 488.355 514.7C487.969 515.5 487.422 516.127 486.715 516.58C486.022 517.02 485.215 517.24 484.295 517.24ZM484.295 515.82C485.162 515.82 485.869 515.553 486.415 515.02C486.962 514.487 487.235 513.673 487.235 512.58V511.1C487.235 510.007 486.962 509.193 486.415 508.66C485.869 508.127 485.162 507.86 484.295 507.86C483.442 507.86 482.735 508.127 482.175 508.66C481.629 509.193 481.355 510.007 481.355 511.1V512.58C481.355 513.673 481.629 514.487 482.175 515.02C482.735 515.553 483.442 515.82 484.295 515.82ZM497.947 517V515.32H497.867C497.667 515.813 497.347 516.26 496.907 516.66C496.48 517.047 495.833 517.24 494.967 517.24C493.913 517.24 493.067 516.9 492.427 516.22C491.8 515.527 491.487 514.553 491.487 513.3V506.68H493.087V513.02C493.087 513.94 493.287 514.633 493.687 515.1C494.087 515.567 494.673 515.8 495.447 515.8C495.873 515.8 496.273 515.733 496.647 515.6C497.033 515.453 497.347 515.233 497.587 514.94C497.827 514.647 497.947 514.273 497.947 513.82V506.68H499.547V517H497.947ZM504.554 517H502.954V506.68H504.554V508.36H504.634C504.887 507.773 505.241 507.307 505.694 506.96C506.161 506.613 506.781 506.44 507.554 506.44C508.621 506.44 509.461 506.787 510.074 507.48C510.701 508.16 511.014 509.127 511.014 510.38V517H509.414V510.66C509.414 509.74 509.214 509.047 508.814 508.58C508.427 508.113 507.847 507.88 507.074 507.88C506.647 507.88 506.241 507.953 505.854 508.1C505.467 508.233 505.154 508.447 504.914 508.74C504.674 509.033 504.554 509.4 504.554 509.84V517ZM523.021 518.14C523.021 518.847 522.834 519.427 522.461 519.88C522.088 520.347 521.528 520.687 520.781 520.9C520.048 521.127 519.128 521.24 518.021 521.24C516.954 521.24 516.081 521.14 515.401 520.94C514.734 520.74 514.248 520.447 513.941 520.06C513.634 519.687 513.481 519.233 513.481 518.7C513.481 518.14 513.628 517.7 513.921 517.38C514.214 517.06 514.614 516.833 515.121 516.7V516.48C514.828 516.333 514.601 516.147 514.441 515.92C514.281 515.68 514.201 515.387 514.201 515.04C514.201 514.52 514.368 514.127 514.701 513.86C515.034 513.58 515.461 513.373 515.981 513.24V513.16C515.368 512.867 514.888 512.447 514.541 511.9C514.208 511.353 514.041 510.72 514.041 510C514.041 509.293 514.201 508.673 514.521 508.14C514.841 507.607 515.294 507.193 515.881 506.9C516.468 506.593 517.148 506.44 517.921 506.44C518.294 506.44 518.641 506.473 518.961 506.54C519.294 506.607 519.601 506.707 519.881 506.84V506.66C519.881 506.26 519.974 505.933 520.161 505.68C520.348 505.413 520.654 505.28 521.081 505.28H522.621V506.68H520.661V507.34C521.034 507.66 521.321 508.047 521.521 508.5C521.734 508.953 521.841 509.453 521.841 510C521.841 510.693 521.681 511.313 521.361 511.86C521.041 512.393 520.588 512.813 520.001 513.12C519.414 513.413 518.728 513.56 517.941 513.56C517.768 513.56 517.594 513.553 517.421 513.54C517.248 513.513 517.088 513.487 516.941 513.46C516.608 513.553 516.294 513.693 516.001 513.88C515.721 514.053 515.581 514.3 515.581 514.62C515.581 514.927 515.728 515.133 516.021 515.24C516.314 515.347 516.694 515.4 517.161 515.4H519.361C520.641 515.4 521.568 515.647 522.141 516.14C522.728 516.62 523.021 517.287 523.021 518.14ZM521.521 518.26C521.521 517.847 521.361 517.513 521.041 517.26C520.734 517.02 520.181 516.9 519.381 516.9H515.941C515.608 517.047 515.361 517.233 515.201 517.46C515.054 517.7 514.981 517.98 514.981 518.3C514.981 518.753 515.148 519.14 515.481 519.46C515.828 519.78 516.408 519.94 517.221 519.94H518.701C519.594 519.94 520.288 519.8 520.781 519.52C521.274 519.24 521.521 518.82 521.521 518.26ZM517.941 512.28C518.621 512.28 519.161 512.12 519.561 511.8C519.961 511.467 520.161 510.96 520.161 510.28V509.72C520.161 509.04 519.961 508.54 519.561 508.22C519.161 507.887 518.621 507.72 517.941 507.72C517.261 507.72 516.721 507.887 516.321 508.22C515.921 508.54 515.721 509.04 515.721 509.72V510.28C515.721 510.96 515.921 511.467 516.321 511.8C516.721 512.12 517.261 512.28 517.941 512.28ZM478.219 539H477.319C476.892 539 476.546 538.913 476.279 538.74C476.012 538.553 475.819 538.3 475.699 537.98C475.579 537.66 475.519 537.293 475.519 536.88V536.74L476.139 537.32H475.439C475.226 537.947 474.852 538.427 474.319 538.76C473.799 539.08 473.179 539.24 472.459 539.24C471.366 539.24 470.512 538.96 469.899 538.4C469.299 537.84 468.999 537.08 468.999 536.12C468.999 535.467 469.159 534.92 469.479 534.48C469.799 534.027 470.279 533.687 470.919 533.46C471.572 533.22 472.399 533.1 473.399 533.1H475.439V532.08C475.439 531.347 475.239 530.787 474.839 530.4C474.439 530.013 473.826 529.82 472.999 529.82C472.386 529.82 471.866 529.96 471.439 530.24C471.012 530.52 470.659 530.893 470.379 531.36L469.419 530.46C469.699 529.913 470.146 529.44 470.759 529.04C471.372 528.64 472.146 528.44 473.079 528.44C474.319 528.44 475.286 528.747 475.979 529.36C476.686 529.973 477.039 530.827 477.039 531.92V537.6H478.219V539ZM475.439 534.3H473.319C472.412 534.3 471.746 534.433 471.319 534.7C470.892 534.967 470.679 535.353 470.679 535.86V536.28C470.679 536.787 470.866 537.18 471.239 537.46C471.612 537.74 472.106 537.88 472.719 537.88C473.252 537.88 473.719 537.8 474.119 537.64C474.532 537.467 474.852 537.24 475.079 536.96C475.319 536.667 475.439 536.347 475.439 536V534.3ZM487.103 539V537.32H487.023C486.716 537.96 486.309 538.44 485.803 538.76C485.309 539.08 484.709 539.24 484.003 539.24C483.149 539.24 482.403 539.02 481.763 538.58C481.136 538.14 480.649 537.513 480.303 536.7C479.969 535.887 479.803 534.933 479.803 533.84C479.803 532.733 479.969 531.78 480.303 530.98C480.649 530.167 481.136 529.54 481.763 529.1C482.403 528.66 483.149 528.44 484.003 528.44C484.709 528.44 485.323 528.6 485.843 528.92C486.363 529.227 486.756 529.707 487.023 530.36H487.103V524.2H488.703V539H487.103ZM484.443 537.8C484.936 537.8 485.383 537.72 485.783 537.56C486.183 537.387 486.503 537.147 486.743 536.84C486.983 536.52 487.103 536.14 487.103 535.7V531.86C487.103 531.473 486.983 531.133 486.743 530.84C486.503 530.547 486.183 530.313 485.783 530.14C485.383 529.967 484.936 529.88 484.443 529.88C483.549 529.88 482.836 530.167 482.303 530.74C481.783 531.3 481.523 532.04 481.523 532.96V534.72C481.523 535.64 481.783 536.387 482.303 536.96C482.836 537.52 483.549 537.8 484.443 537.8ZM498.464 539V537.32H498.384C498.184 537.813 497.864 538.26 497.424 538.66C496.998 539.047 496.351 539.24 495.484 539.24C494.431 539.24 493.584 538.9 492.944 538.22C492.318 537.527 492.004 536.553 492.004 535.3V528.68H493.604V535.02C493.604 535.94 493.804 536.633 494.204 537.1C494.604 537.567 495.191 537.8 495.964 537.8C496.391 537.8 496.791 537.733 497.164 537.6C497.551 537.453 497.864 537.233 498.104 536.94C498.344 536.647 498.464 536.273 498.464 535.82V528.68H500.064V539H498.464ZM506.591 539H505.171C504.625 539 504.205 538.847 503.911 538.54C503.618 538.22 503.471 537.82 503.471 537.34V524.2H505.071V537.6H506.591V539ZM513.103 539H511.103C510.556 539 510.136 538.84 509.843 538.52C509.55 538.2 509.403 537.793 509.403 537.3V530.08H507.703V528.68H508.663C509.01 528.68 509.243 528.613 509.363 528.48C509.496 528.333 509.563 528.087 509.563 527.74V525.82H511.003V528.68H513.263V530.08H511.003V537.6H513.103V539ZM518.935 539.24C517.988 539.24 517.188 539.06 516.535 538.7C515.881 538.327 515.321 537.833 514.855 537.22L515.995 536.3C516.395 536.793 516.841 537.18 517.335 537.46C517.828 537.74 518.401 537.88 519.055 537.88C519.735 537.88 520.261 537.733 520.635 537.44C521.021 537.147 521.215 536.733 521.215 536.2C521.215 535.8 521.081 535.453 520.815 535.16C520.561 534.867 520.095 534.673 519.415 534.58L518.595 534.46C517.968 534.367 517.401 534.213 516.895 534C516.388 533.773 515.988 533.46 515.695 533.06C515.415 532.647 515.275 532.12 515.275 531.48C515.275 530.453 515.621 529.693 516.315 529.2C517.021 528.693 517.901 528.44 518.955 528.44C519.515 528.44 520.008 528.507 520.435 528.64C520.875 528.773 521.268 528.967 521.615 529.22C521.961 529.46 522.275 529.753 522.555 530.1L521.495 531.06C521.268 530.74 520.935 530.453 520.495 530.2C520.055 529.933 519.501 529.8 518.835 529.8C518.181 529.8 517.681 529.947 517.335 530.24C516.988 530.52 516.815 530.907 516.815 531.4C516.815 531.893 516.981 532.26 517.315 532.5C517.661 532.727 518.155 532.893 518.795 533L519.595 533.12C520.741 533.293 521.555 533.627 522.035 534.12C522.515 534.6 522.755 535.233 522.755 536.02C522.755 536.687 522.601 537.26 522.295 537.74C521.988 538.22 521.548 538.593 520.975 538.86C520.401 539.113 519.721 539.24 518.935 539.24Z" fill="#000A55"/>
<path d="M53.3725 309.7L55.8725 302.68H57.4525L52.8325 315.4C52.6858 315.813 52.5192 316.133 52.3325 316.36C52.1592 316.6 51.9258 316.767 51.6325 316.86C51.3392 316.953 50.9392 317 50.4325 317H49.6125V315.6H51.2325L52.0125 313.4L48.1525 302.68H49.7525L52.2325 309.7L52.7125 311.38H52.8125L53.3725 309.7ZM63.2953 313.24C62.3753 313.24 61.562 313.02 60.8553 312.58C60.162 312.127 59.6153 311.5 59.2153 310.7C58.8286 309.887 58.6353 308.933 58.6353 307.84C58.6353 306.747 58.8286 305.8 59.2153 305C59.6153 304.187 60.162 303.56 60.8553 303.12C61.562 302.667 62.3753 302.44 63.2953 302.44C64.2153 302.44 65.022 302.667 65.7153 303.12C66.422 303.56 66.9686 304.187 67.3553 305C67.7553 305.8 67.9553 306.747 67.9553 307.84C67.9553 308.933 67.7553 309.887 67.3553 310.7C66.9686 311.5 66.422 312.127 65.7153 312.58C65.022 313.02 64.2153 313.24 63.2953 313.24ZM63.2953 311.82C64.162 311.82 64.8686 311.553 65.4153 311.02C65.962 310.487 66.2353 309.673 66.2353 308.58V307.1C66.2353 306.007 65.962 305.193 65.4153 304.66C64.8686 304.127 64.162 303.86 63.2953 303.86C62.442 303.86 61.7353 304.127 61.1753 304.66C60.6286 305.193 60.3553 306.007 60.3553 307.1V308.58C60.3553 309.673 60.6286 310.487 61.1753 311.02C61.7353 311.553 62.442 311.82 63.2953 311.82ZM76.9467 313V311.32H76.8667C76.6667 311.813 76.3467 312.26 75.9067 312.66C75.4801 313.047 74.8334 313.24 73.9667 313.24C72.9134 313.24 72.0667 312.9 71.4267 312.22C70.8001 311.527 70.4867 310.553 70.4867 309.3V302.68H72.0867V309.02C72.0867 309.94 72.2867 310.633 72.6867 311.1C73.0867 311.567 73.6734 311.8 74.4467 311.8C74.8734 311.8 75.2734 311.733 75.6467 311.6C76.0334 311.453 76.3467 311.233 76.5867 310.94C76.8267 310.647 76.9467 310.273 76.9467 309.82V302.68H78.5467V313H76.9467ZM83.5539 313H81.9539V302.68H83.5539V304.36H83.6339C83.8872 303.773 84.2406 303.307 84.6939 302.96C85.1606 302.613 85.7806 302.44 86.5539 302.44C87.6206 302.44 88.4606 302.787 89.0739 303.48C89.7006 304.16 90.0139 305.127 90.0139 306.38V313H88.4139V306.66C88.4139 305.74 88.2139 305.047 87.8139 304.58C87.4272 304.113 86.8472 303.88 86.0739 303.88C85.6472 303.88 85.2406 303.953 84.8539 304.1C84.4672 304.233 84.1539 304.447 83.9139 304.74C83.6739 305.033 83.5539 305.4 83.5539 305.84V313ZM102.021 314.14C102.021 314.847 101.834 315.427 101.461 315.88C101.088 316.347 100.528 316.687 99.7811 316.9C99.0478 317.127 98.1278 317.24 97.0211 317.24C95.9544 317.24 95.0811 317.14 94.4011 316.94C93.7344 316.74 93.2478 316.447 92.9411 316.06C92.6344 315.687 92.4811 315.233 92.4811 314.7C92.4811 314.14 92.6278 313.7 92.9211 313.38C93.2144 313.06 93.6144 312.833 94.1211 312.7V312.48C93.8278 312.333 93.6011 312.147 93.4411 311.92C93.2811 311.68 93.2011 311.387 93.2011 311.04C93.2011 310.52 93.3678 310.127 93.7011 309.86C94.0344 309.58 94.4611 309.373 94.9811 309.24V309.16C94.3678 308.867 93.8878 308.447 93.5411 307.9C93.2078 307.353 93.0411 306.72 93.0411 306C93.0411 305.293 93.2011 304.673 93.5211 304.14C93.8411 303.607 94.2944 303.193 94.8811 302.9C95.4678 302.593 96.1478 302.44 96.9211 302.44C97.2944 302.44 97.6411 302.473 97.9611 302.54C98.2944 302.607 98.6011 302.707 98.8811 302.84V302.66C98.8811 302.26 98.9744 301.933 99.1611 301.68C99.3478 301.413 99.6544 301.28 100.081 301.28H101.621V302.68H99.6611V303.34C100.034 303.66 100.321 304.047 100.521 304.5C100.734 304.953 100.841 305.453 100.841 306C100.841 306.693 100.681 307.313 100.361 307.86C100.041 308.393 99.5878 308.813 99.0011 309.12C98.4144 309.413 97.7278 309.56 96.9411 309.56C96.7678 309.56 96.5944 309.553 96.4211 309.54C96.2478 309.513 96.0878 309.487 95.9411 309.46C95.6078 309.553 95.2944 309.693 95.0011 309.88C94.7211 310.053 94.5811 310.3 94.5811 310.62C94.5811 310.927 94.7278 311.133 95.0211 311.24C95.3144 311.347 95.6944 311.4 96.1611 311.4H98.3611C99.6411 311.4 100.568 311.647 101.141 312.14C101.728 312.62 102.021 313.287 102.021 314.14ZM100.521 314.26C100.521 313.847 100.361 313.513 100.041 313.26C99.7344 313.02 99.1811 312.9 98.3811 312.9H94.9411C94.6078 313.047 94.3611 313.233 94.2011 313.46C94.0544 313.7 93.9811 313.98 93.9811 314.3C93.9811 314.753 94.1478 315.14 94.4811 315.46C94.8278 315.78 95.4078 315.94 96.2211 315.94H97.7011C98.5944 315.94 99.2878 315.8 99.7811 315.52C100.274 315.24 100.521 314.82 100.521 314.26ZM96.9411 308.28C97.6211 308.28 98.1611 308.12 98.5611 307.8C98.9611 307.467 99.1611 306.96 99.1611 306.28V305.72C99.1611 305.04 98.9611 304.54 98.5611 304.22C98.1611 303.887 97.6211 303.72 96.9411 303.72C96.2611 303.72 95.7211 303.887 95.3211 304.22C94.9211 304.54 94.7211 305.04 94.7211 305.72V306.28C94.7211 306.96 94.9211 307.467 95.3211 307.8C95.7211 308.12 96.2611 308.28 96.9411 308.28ZM57.2191 335H56.3191C55.8925 335 55.5458 334.913 55.2791 334.74C55.0125 334.553 54.8191 334.3 54.6991 333.98C54.5791 333.66 54.5191 333.293 54.5191 332.88V332.74L55.1391 333.32H54.4391C54.2258 333.947 53.8525 334.427 53.3191 334.76C52.7991 335.08 52.1791 335.24 51.4591 335.24C50.3658 335.24 49.5125 334.96 48.8991 334.4C48.2991 333.84 47.9991 333.08 47.9991 332.12C47.9991 331.467 48.1591 330.92 48.4791 330.48C48.7991 330.027 49.2791 329.687 49.9191 329.46C50.5725 329.22 51.3991 329.1 52.3991 329.1H54.4391V328.08C54.4391 327.347 54.2391 326.787 53.8391 326.4C53.4391 326.013 52.8258 325.82 51.9991 325.82C51.3858 325.82 50.8658 325.96 50.4391 326.24C50.0125 326.52 49.6591 326.893 49.3791 327.36L48.4191 326.46C48.6991 325.913 49.1458 325.44 49.7591 325.04C50.3725 324.64 51.1458 324.44 52.0791 324.44C53.3191 324.44 54.2858 324.747 54.9791 325.36C55.6858 325.973 56.0391 326.827 56.0391 327.92V333.6H57.2191V335ZM54.4391 330.3H52.3191C51.4125 330.3 50.7458 330.433 50.3191 330.7C49.8925 330.967 49.6791 331.353 49.6791 331.86V332.28C49.6791 332.787 49.8658 333.18 50.2391 333.46C50.6125 333.74 51.1058 333.88 51.7191 333.88C52.2525 333.88 52.7191 333.8 53.1191 333.64C53.5325 333.467 53.8525 333.24 54.0791 332.96C54.3191 332.667 54.4391 332.347 54.4391 332V330.3ZM66.1027 335V333.32H66.0227C65.7161 333.96 65.3094 334.44 64.8027 334.76C64.3094 335.08 63.7094 335.24 63.0027 335.24C62.1494 335.24 61.4027 335.02 60.7627 334.58C60.1361 334.14 59.6494 333.513 59.3027 332.7C58.9694 331.887 58.8027 330.933 58.8027 329.84C58.8027 328.733 58.9694 327.78 59.3027 326.98C59.6494 326.167 60.1361 325.54 60.7627 325.1C61.4027 324.66 62.1494 324.44 63.0027 324.44C63.7094 324.44 64.3227 324.6 64.8427 324.92C65.3627 325.227 65.7561 325.707 66.0227 326.36H66.1027V320.2H67.7027V335H66.1027ZM63.4427 333.8C63.9361 333.8 64.3827 333.72 64.7827 333.56C65.1827 333.387 65.5027 333.147 65.7427 332.84C65.9827 332.52 66.1027 332.14 66.1027 331.7V327.86C66.1027 327.473 65.9827 327.133 65.7427 326.84C65.5027 326.547 65.1827 326.313 64.7827 326.14C64.3827 325.967 63.9361 325.88 63.4427 325.88C62.5494 325.88 61.8361 326.167 61.3027 326.74C60.7827 327.3 60.5227 328.04 60.5227 328.96V330.72C60.5227 331.64 60.7827 332.387 61.3027 332.96C61.8361 333.52 62.5494 333.8 63.4427 333.8ZM77.4643 335V333.32H77.3843C77.1843 333.813 76.8643 334.26 76.4243 334.66C75.9976 335.047 75.351 335.24 74.4843 335.24C73.431 335.24 72.5843 334.9 71.9443 334.22C71.3176 333.527 71.0043 332.553 71.0043 331.3V324.68H72.6043V331.02C72.6043 331.94 72.8043 332.633 73.2043 333.1C73.6043 333.567 74.191 333.8 74.9643 333.8C75.391 333.8 75.791 333.733 76.1643 333.6C76.551 333.453 76.8643 333.233 77.1043 332.94C77.3443 332.647 77.4643 332.273 77.4643 331.82V324.68H79.0643V335H77.4643ZM85.5915 335H84.1715C83.6248 335 83.2048 334.847 82.9115 334.54C82.6182 334.22 82.4715 333.82 82.4715 333.34V320.2H84.0715V333.6H85.5915V335ZM92.103 335H90.103C89.5564 335 89.1364 334.84 88.843 334.52C88.5497 334.2 88.403 333.793 88.403 333.3V326.08H86.703V324.68H87.663C88.0097 324.68 88.243 324.613 88.363 324.48C88.4964 324.333 88.563 324.087 88.563 323.74V321.82H90.003V324.68H92.263V326.08H90.003V333.6H92.103V335ZM97.9348 335.24C96.9881 335.24 96.1881 335.06 95.5348 334.7C94.8814 334.327 94.3214 333.833 93.8548 333.22L94.9948 332.3C95.3948 332.793 95.8414 333.18 96.3348 333.46C96.8281 333.74 97.4014 333.88 98.0548 333.88C98.7348 333.88 99.2614 333.733 99.6348 333.44C100.021 333.147 100.215 332.733 100.215 332.2C100.215 331.8 100.081 331.453 99.8148 331.16C99.5614 330.867 99.0948 330.673 98.4148 330.58L97.5948 330.46C96.9681 330.367 96.4014 330.213 95.8948 330C95.3881 329.773 94.9881 329.46 94.6948 329.06C94.4148 328.647 94.2748 328.12 94.2748 327.48C94.2748 326.453 94.6214 325.693 95.3148 325.2C96.0214 324.693 96.9014 324.44 97.9548 324.44C98.5148 324.44 99.0081 324.507 99.4348 324.64C99.8748 324.773 100.268 324.967 100.615 325.22C100.961 325.46 101.275 325.753 101.555 326.1L100.495 327.06C100.268 326.74 99.9348 326.453 99.4948 326.2C99.0548 325.933 98.5014 325.8 97.8348 325.8C97.1814 325.8 96.6814 325.947 96.3348 326.24C95.9881 326.52 95.8148 326.907 95.8148 327.4C95.8148 327.893 95.9814 328.26 96.3148 328.5C96.6614 328.727 97.1548 328.893 97.7948 329L98.5948 329.12C99.7414 329.293 100.555 329.627 101.035 330.12C101.515 330.6 101.755 331.233 101.755 332.02C101.755 332.687 101.601 333.26 101.295 333.74C100.988 334.22 100.548 334.593 99.9748 334.86C99.4014 335.113 98.7214 335.24 97.9348 335.24Z" fill="#680036"/>
<path d="M92.98 205H90.98C90.4333 205 90.0133 204.84 89.72 204.52C89.4267 204.2 89.28 203.793 89.28 203.3V196.08H87.58V194.68H88.54C88.8867 194.68 89.12 194.613 89.24 194.48C89.3733 194.333 89.44 194.087 89.44 193.74V191.82H90.88V194.68H93.14V196.08H90.88V203.6H92.98V205ZM99.5136 205.24C98.5803 205.24 97.7669 205.02 97.0736 204.58C96.3803 204.127 95.8403 203.5 95.4536 202.7C95.0669 201.887 94.8736 200.933 94.8736 199.84C94.8736 198.747 95.0669 197.8 95.4536 197C95.8403 196.187 96.3803 195.56 97.0736 195.12C97.7669 194.667 98.5803 194.44 99.5136 194.44C100.434 194.44 101.227 194.66 101.894 195.1C102.56 195.527 103.074 196.12 103.434 196.88C103.794 197.64 103.974 198.507 103.974 199.48V200.24H96.5536V200.72C96.5536 201.613 96.8203 202.36 97.3536 202.96C97.9003 203.547 98.6536 203.84 99.6136 203.84C100.267 203.84 100.834 203.687 101.314 203.38C101.807 203.073 102.187 202.633 102.454 202.06L103.594 202.88C103.26 203.573 102.74 204.14 102.034 204.58C101.327 205.02 100.487 205.24 99.5136 205.24ZM99.5136 195.78C98.9403 195.78 98.4269 195.913 97.9736 196.18C97.5336 196.447 97.1869 196.82 96.9336 197.3C96.6803 197.767 96.5536 198.3 96.5536 198.9V199.04H102.254V198.82C102.254 198.207 102.14 197.673 101.914 197.22C101.687 196.767 101.367 196.413 100.954 196.16C100.54 195.907 100.06 195.78 99.5136 195.78ZM110.49 205.24C109.557 205.24 108.743 205.02 108.05 204.58C107.357 204.127 106.817 203.5 106.43 202.7C106.043 201.887 105.85 200.933 105.85 199.84C105.85 198.747 106.043 197.8 106.43 197C106.817 196.187 107.357 195.56 108.05 195.12C108.743 194.667 109.557 194.44 110.49 194.44C111.41 194.44 112.203 194.66 112.87 195.1C113.537 195.527 114.05 196.12 114.41 196.88C114.77 197.64 114.95 198.507 114.95 199.48V200.24H107.53V200.72C107.53 201.613 107.797 202.36 108.33 202.96C108.877 203.547 109.63 203.84 110.59 203.84C111.243 203.84 111.81 203.687 112.29 203.38C112.783 203.073 113.163 202.633 113.43 202.06L114.57 202.88C114.237 203.573 113.717 204.14 113.01 204.58C112.303 205.02 111.463 205.24 110.49 205.24ZM110.49 195.78C109.917 195.78 109.403 195.913 108.95 196.18C108.51 196.447 108.163 196.82 107.91 197.3C107.657 197.767 107.53 198.3 107.53 198.9V199.04H113.23V198.82C113.23 198.207 113.117 197.673 112.89 197.22C112.663 196.767 112.343 196.413 111.93 196.16C111.517 195.907 111.037 195.78 110.49 195.78ZM119.187 205H117.587V194.68H119.187V196.36H119.267C119.52 195.773 119.873 195.307 120.327 194.96C120.793 194.613 121.413 194.44 122.187 194.44C123.253 194.44 124.093 194.787 124.707 195.48C125.333 196.16 125.647 197.127 125.647 198.38V205H124.047V198.66C124.047 197.74 123.847 197.047 123.447 196.58C123.06 196.113 122.48 195.88 121.707 195.88C121.28 195.88 120.873 195.953 120.487 196.1C120.1 196.233 119.787 196.447 119.547 196.74C119.307 197.033 119.187 197.4 119.187 197.84V205ZM132.054 205.24C131.107 205.24 130.307 205.06 129.654 204.7C129.001 204.327 128.441 203.833 127.974 203.22L129.114 202.3C129.514 202.793 129.961 203.18 130.454 203.46C130.947 203.74 131.521 203.88 132.174 203.88C132.854 203.88 133.381 203.733 133.754 203.44C134.141 203.147 134.334 202.733 134.334 202.2C134.334 201.8 134.201 201.453 133.934 201.16C133.681 200.867 133.214 200.673 132.534 200.58L131.714 200.46C131.087 200.367 130.521 200.213 130.014 200C129.507 199.773 129.107 199.46 128.814 199.06C128.534 198.647 128.394 198.12 128.394 197.48C128.394 196.453 128.741 195.693 129.434 195.2C130.141 194.693 131.021 194.44 132.074 194.44C132.634 194.44 133.127 194.507 133.554 194.64C133.994 194.773 134.387 194.967 134.734 195.22C135.081 195.46 135.394 195.753 135.674 196.1L134.614 197.06C134.387 196.74 134.054 196.453 133.614 196.2C133.174 195.933 132.621 195.8 131.954 195.8C131.301 195.8 130.801 195.947 130.454 196.24C130.107 196.52 129.934 196.907 129.934 197.4C129.934 197.893 130.101 198.26 130.434 198.5C130.781 198.727 131.274 198.893 131.914 199L132.714 199.12C133.861 199.293 134.674 199.627 135.154 200.12C135.634 200.6 135.874 201.233 135.874 202.02C135.874 202.687 135.721 203.26 135.414 203.74C135.107 204.22 134.667 204.593 134.094 204.86C133.521 205.113 132.841 205.24 132.054 205.24Z" fill="#680036"/>
<path d="M548.98 423H546.98C546.433 423 546.013 422.84 545.72 422.52C545.427 422.2 545.28 421.793 545.28 421.3V414.08H543.58V412.68H544.54C544.887 412.68 545.12 412.613 545.24 412.48C545.373 412.333 545.44 412.087 545.44 411.74V409.82H546.88V412.68H549.14V414.08H546.88V421.6H548.98V423ZM555.514 423.24C554.58 423.24 553.767 423.02 553.074 422.58C552.38 422.127 551.84 421.5 551.454 420.7C551.067 419.887 550.874 418.933 550.874 417.84C550.874 416.747 551.067 415.8 551.454 415C551.84 414.187 552.38 413.56 553.074 413.12C553.767 412.667 554.58 412.44 555.514 412.44C556.434 412.44 557.227 412.66 557.894 413.1C558.56 413.527 559.074 414.12 559.434 414.88C559.794 415.64 559.974 416.507 559.974 417.48V418.24H552.554V418.72C552.554 419.613 552.82 420.36 553.354 420.96C553.9 421.547 554.654 421.84 555.614 421.84C556.267 421.84 556.834 421.687 557.314 421.38C557.807 421.073 558.187 420.633 558.454 420.06L559.594 420.88C559.26 421.573 558.74 422.14 558.034 422.58C557.327 423.02 556.487 423.24 555.514 423.24ZM555.514 413.78C554.94 413.78 554.427 413.913 553.974 414.18C553.534 414.447 553.187 414.82 552.934 415.3C552.68 415.767 552.554 416.3 552.554 416.9V417.04H558.254V416.82C558.254 416.207 558.14 415.673 557.914 415.22C557.687 414.767 557.367 414.413 556.954 414.16C556.54 413.907 556.06 413.78 555.514 413.78ZM566.49 423.24C565.557 423.24 564.743 423.02 564.05 422.58C563.357 422.127 562.817 421.5 562.43 420.7C562.043 419.887 561.85 418.933 561.85 417.84C561.85 416.747 562.043 415.8 562.43 415C562.817 414.187 563.357 413.56 564.05 413.12C564.743 412.667 565.557 412.44 566.49 412.44C567.41 412.44 568.203 412.66 568.87 413.1C569.537 413.527 570.05 414.12 570.41 414.88C570.77 415.64 570.95 416.507 570.95 417.48V418.24H563.53V418.72C563.53 419.613 563.797 420.36 564.33 420.96C564.877 421.547 565.63 421.84 566.59 421.84C567.243 421.84 567.81 421.687 568.29 421.38C568.783 421.073 569.163 420.633 569.43 420.06L570.57 420.88C570.237 421.573 569.717 422.14 569.01 422.58C568.303 423.02 567.463 423.24 566.49 423.24ZM566.49 413.78C565.917 413.78 565.403 413.913 564.95 414.18C564.51 414.447 564.163 414.82 563.91 415.3C563.657 415.767 563.53 416.3 563.53 416.9V417.04H569.23V416.82C569.23 416.207 569.117 415.673 568.89 415.22C568.663 414.767 568.343 414.413 567.93 414.16C567.517 413.907 567.037 413.78 566.49 413.78ZM575.187 423H573.587V412.68H575.187V414.36H575.267C575.52 413.773 575.873 413.307 576.327 412.96C576.793 412.613 577.413 412.44 578.187 412.44C579.253 412.44 580.093 412.787 580.707 413.48C581.333 414.16 581.647 415.127 581.647 416.38V423H580.047V416.66C580.047 415.74 579.847 415.047 579.447 414.58C579.06 414.113 578.48 413.88 577.707 413.88C577.28 413.88 576.873 413.953 576.487 414.1C576.1 414.233 575.787 414.447 575.547 414.74C575.307 415.033 575.187 415.4 575.187 415.84V423ZM588.054 423.24C587.107 423.24 586.307 423.06 585.654 422.7C585.001 422.327 584.441 421.833 583.974 421.22L585.114 420.3C585.514 420.793 585.961 421.18 586.454 421.46C586.947 421.74 587.521 421.88 588.174 421.88C588.854 421.88 589.381 421.733 589.754 421.44C590.141 421.147 590.334 420.733 590.334 420.2C590.334 419.8 590.201 419.453 589.934 419.16C589.681 418.867 589.214 418.673 588.534 418.58L587.714 418.46C587.087 418.367 586.521 418.213 586.014 418C585.507 417.773 585.107 417.46 584.814 417.06C584.534 416.647 584.394 416.12 584.394 415.48C584.394 414.453 584.741 413.693 585.434 413.2C586.141 412.693 587.021 412.44 588.074 412.44C588.634 412.44 589.127 412.507 589.554 412.64C589.994 412.773 590.387 412.967 590.734 413.22C591.081 413.46 591.394 413.753 591.674 414.1L590.614 415.06C590.387 414.74 590.054 414.453 589.614 414.2C589.174 413.933 588.621 413.8 587.954 413.8C587.301 413.8 586.801 413.947 586.454 414.24C586.107 414.52 585.934 414.907 585.934 415.4C585.934 415.893 586.101 416.26 586.434 416.5C586.781 416.727 587.274 416.893 587.914 417L588.714 417.12C589.861 417.293 590.674 417.627 591.154 418.12C591.634 418.6 591.874 419.233 591.874 420.02C591.874 420.687 591.721 421.26 591.414 421.74C591.107 422.22 590.667 422.593 590.094 422.86C589.521 423.113 588.841 423.24 588.054 423.24Z" fill="#000A55"/>
</g>
<defs>
<clipPath id="clip0_184_187">
<rect width="649" height="643" fill="white"/>
</clipPath>
</defs>
</svg>
