<svg width="167" height="150" viewBox="0 0 167 150" fill="none" xmlns="http://www.w3.org/2000/svg">
<g clip-path="url(#clip0_185_191)">
<path d="M57.5409 27.1175C56.8962 29.8846 53.2068 31.2493 51.6492 33.4187C50.035 35.6728 49.8939 39.5834 47.5739 41.0234C45.2539 42.4634 41.6868 40.8634 38.9527 41.3152C36.3174 41.7528 33.4609 44.4587 30.6986 43.814C27.9362 43.1693 26.5668 39.4799 24.3927 37.9222C22.1433 36.3081 18.228 36.1622 16.788 33.847C15.348 31.5317 16.948 27.9599 16.4962 25.2258C16.0633 22.5858 13.3574 19.734 14.0021 16.9669C14.6468 14.1999 18.3362 12.8352 19.8939 10.6658C21.508 8.41165 21.6492 4.50107 23.9692 3.06107C26.2892 1.62107 29.8562 3.22107 32.5903 2.7693C35.2256 2.33166 38.0821 -0.369521 40.8492 0.275185C43.6162 0.91989 44.9762 4.6046 47.1503 6.16224C49.3997 7.77636 53.315 7.92224 54.755 10.2375C56.195 12.5528 54.595 16.1293 55.0468 18.8634C55.4844 21.4987 58.2092 24.3552 57.5409 27.1175Z" fill="#53012C"/>
<path d="M65.9266 90.5576C64.7407 91.9694 63.7148 93.5129 62.5054 94.9012C56.096 102.271 42.1336 97.4282 35.2113 93.0188C30.1148 89.7953 26.2701 84.9341 22.976 79.8706C18.9289 73.6259 15.5454 66.8353 14.0772 59.5412C7.35245 26.1341 50.2089 11.6023 74.2419 28.0023C83.183 34.12 91.263 47.8423 89.3007 58.84C88.2983 64.4212 84.3313 69.4423 84.7548 75.0941C85.2254 81.1835 90.7266 86.9859 88.4254 92.6423C87.5219 94.8541 85.5736 96.4353 83.9972 98.2282C81.8654 100.652 80.3077 103.682 80.1242 106.901C79.9407 110.12 81.2772 113.489 83.9313 115.334C77.376 114.459 73.3383 106.609 75.0325 100.219C75.5877 98.12 76.6136 96.1623 77.0607 94.0353C77.5077 91.9082 77.2442 89.4376 75.6207 87.9976C73.536 86.1482 70.1383 86.8494 67.9501 88.5718C67.2115 89.1651 66.5337 89.8303 65.9266 90.5576Z" fill="#53012C"/>
<path d="M106.402 132.012C74.943 156.23 31.0672 156.036 -0.176758 131.541L22.7221 120.807C23.4229 120.477 24.1062 120.111 24.7691 119.71C24.9479 119.602 25.1221 119.494 25.2962 119.376C25.4703 119.259 25.6679 119.141 25.8515 119.014C28.7401 117.021 31.1077 114.362 32.755 111.263C34.6374 107.715 35.2585 103.79 35.2868 99.7905C35.2868 97.094 35.1409 94.4069 35.1127 91.7058C35.0938 90.2156 35.0781 88.7238 35.0656 87.2305L35.155 87.2775L35.9974 87.7152L38.4444 88.9764L52.6985 91.3999L67.3432 93.8987L67.6821 105.405L67.7856 108.939L68.0068 116.407L73.4044 118.605L77.6397 120.322L106.402 132.012Z" fill="#845161"/>
<path d="M67.6819 105.391C66.6775 106.06 65.4851 106.39 64.2795 106.332C57.3195 105.584 43.7431 100.13 35.1972 90.0355C35.1972 89.5398 35.1878 89.0457 35.1689 88.5532V87.2402L36.0113 87.6779L38.4584 88.9391L52.7125 91.3626L67.3572 93.8614L67.6819 105.391Z" fill="#69303A"/>
<path d="M106.402 132.012C74.9442 156.234 31.066 156.04 -0.176758 131.541L22.7221 120.807C23.423 120.476 24.1063 120.108 24.7691 119.706C35.9127 127.899 51.4232 133.236 64.7974 127.236C68.5903 125.532 72.0115 122.506 73.4044 118.619L77.6397 120.332L106.402 132.012Z" fill="#00214E"/>
<circle cx="23.3008" cy="72.1626" r="8" fill="#845161"/>
<circle cx="26.125" cy="71.2212" r="8" fill="#69303A"/>
<path d="M77.673 60.0448C83.1977 79.193 71.4566 102.322 64.2424 102.322C54.3601 102.322 30.3601 94.4307 24.8401 75.2824C19.3201 56.1342 26.6801 37.2166 41.2683 33.0048C55.8566 28.793 72.1436 40.9013 77.673 60.0448Z" fill="#845161"/>
<path d="M61.2868 36.5436C60.1574 38.7742 57.8045 40.713 56.4068 42.9954C54.5763 45.9836 53.1927 49.2307 51.6398 52.3695C50.4868 54.7224 49.1974 57.0471 47.2492 58.7742C45.301 60.5013 42.5433 61.5224 40.0445 60.8024C38.3316 60.3083 36.9386 59.0848 35.4092 58.1765C33.8798 57.2683 31.9127 56.6613 30.341 57.5083C28.0257 58.7507 28.0586 62.1248 26.4021 64.1624C22.5998 68.8354 15.6304 62.5389 14.7927 58.4589C13.5645 52.4965 18.4586 47.513 22.0163 43.4001C24.981 39.9648 28.9951 34.7224 33.6539 33.5789C33.7339 33.5789 60.948 22.7554 60.948 22.7554C61.1927 26.393 62.661 31.7718 61.781 35.2542C61.6654 35.7013 61.4997 36.1338 61.2868 36.5436Z" fill="#53012C"/>
<path d="M60.2795 60.939C60.2513 61.0519 62.8866 68.4119 64.4819 72.8543C64.7467 73.6096 64.6299 74.4464 64.1683 75.1003C63.7068 75.7543 62.9576 76.1447 62.1572 76.1484H60.4442" stroke="#00214E"/>
<path d="M65.6729 56.1344C68.9975 54.4407 72.8426 54.0772 76.4258 55.118" stroke="#53012C"/>
<path d="M39.7393 57.8754C44.322 55.5383 49.7081 55.3658 54.431 57.4049" stroke="#53012C"/>
<path d="M48.2896 63.0894C51.1602 63.0894 51.1602 67.4988 48.2896 67.5223H48.1578C45.2872 67.4988 45.2872 63.1082 48.1578 63.0894H48.2896Z" fill="#00214E"/>
<path d="M71.9413 61.6353C74.6048 61.6588 74.6048 65.7294 71.9413 65.7529H71.8189C69.1554 65.7529 69.1554 61.6588 71.8189 61.6353H71.9413Z" fill="#00214E"/>
<path d="M56.9391 73.4517C56.1699 73.5352 55.5733 74.1617 55.5273 74.934C55.539 75.3066 55.7168 75.6544 56.012 75.8822C56.3071 76.1099 56.6887 76.1937 57.052 76.1105" stroke="#00214E"/>
<path d="M48.6326 89.5246C48.7627 89.7304 48.9726 89.8726 49.2119 89.9173C49.4512 89.9619 49.6983 89.9049 49.8938 89.7599C50.8679 89.0728 52.6609 87.614 55.2021 87.1105C58.6656 86.4187 61.6679 87.807 62.3879 86.9128C62.7927 86.4093 62.2985 85.7976 61.3526 85.007C59.35 83.5114 56.8294 82.8855 54.3597 83.2705C51.0279 83.8964 48.5244 87.7552 48.5244 89.1246C48.5243 89.2652 48.5616 89.4033 48.6326 89.5246Z" fill="white"/>
<g clip-path="url(#clip1_185_191)">
<path d="M164.775 75.5711C164.316 74.8612 163.691 74.2744 162.953 73.8618C162.215 73.4491 161.388 73.2232 160.543 73.2037C155.651 73.0862 146.006 72.2894 136.46 68.308C126.915 64.3265 119.559 58.0326 116.027 54.6367C115.418 54.0511 114.675 53.6228 113.863 53.389C113.05 53.1553 112.193 53.123 111.366 53.295C110.538 53.467 109.765 53.8381 109.113 54.3762C108.461 54.9143 107.951 55.6031 107.625 56.3831L100.647 73.1137C96.1623 83.8654 94.8268 95.2155 96.8913 105.068C99.0283 115.278 104.541 122.698 112.407 125.978C120.272 129.259 129.427 127.946 138.182 122.29C146.633 116.83 153.758 107.895 158.243 97.1434L165.223 80.4068C165.548 79.6251 165.676 78.7761 165.598 77.9334C165.52 77.0907 165.238 76.2798 164.775 75.5711ZM110.748 87.7371C110.439 87.8858 110.104 87.9722 109.762 87.9915C109.42 88.0107 109.077 87.9623 108.753 87.8492C108.1 87.6206 107.564 87.1419 107.264 86.5183C106.964 85.8947 106.923 85.1774 107.152 84.5241C107.381 83.8708 107.859 83.335 108.483 83.0347C111.006 81.8402 114.671 81.8613 117.616 83.09C120.562 84.3187 123.156 86.9077 124.082 89.5411C124.194 89.8651 124.241 90.208 124.22 90.5501C124.199 90.8921 124.111 91.2267 123.961 91.5348C123.81 91.8428 123.601 92.1182 123.344 92.3453C123.088 92.5724 122.789 92.7467 122.465 92.8583C122.141 92.9699 121.798 93.0166 121.456 92.9957C121.114 92.9747 120.779 92.8867 120.471 92.7364C120.163 92.5862 119.888 92.3768 119.66 92.1201C119.433 91.8635 119.259 91.5646 119.147 91.2405C118.719 90.0052 117.159 88.5342 115.614 87.8899C114.07 87.2455 111.914 87.1704 110.748 87.7371ZM131.906 113.417C129.679 114.563 127.228 115.209 124.726 115.31C122.223 115.41 119.729 114.962 117.417 113.998C115.106 113.034 113.033 111.577 111.343 109.728C109.654 107.879 108.389 105.683 107.636 103.295C107.507 102.964 107.447 102.611 107.459 102.257C107.471 101.903 107.556 101.555 107.708 101.234C107.86 100.914 108.075 100.628 108.342 100.394C108.608 100.16 108.92 99.9828 109.257 99.8736C109.594 99.7644 109.95 99.7253 110.303 99.7587C110.656 99.7922 110.999 99.8975 111.309 100.068C111.62 100.239 111.893 100.471 112.11 100.751C112.328 101.031 112.486 101.352 112.575 101.695C113.097 103.369 113.979 104.907 115.159 106.203C116.339 107.499 117.789 108.52 119.407 109.194C121.025 109.869 122.771 110.181 124.522 110.108C126.273 110.035 127.987 109.579 129.543 108.772C130.158 108.461 130.872 108.406 131.527 108.621C132.183 108.835 132.726 109.302 133.038 109.917C133.35 110.532 133.404 111.246 133.19 111.901C132.975 112.557 132.509 113.1 131.894 113.412L131.906 113.417ZM144.065 101.869C143.742 101.982 143.401 102.029 143.06 102.009C142.719 101.99 142.385 101.903 142.077 101.754C141.77 101.605 141.495 101.397 141.268 101.142C141.04 100.887 140.866 100.589 140.754 100.266C140.325 99.0311 138.766 97.5601 137.221 96.9157C135.676 96.2714 133.52 96.1963 132.354 96.763C132.044 96.9121 131.708 96.9988 131.365 97.0181C131.021 97.0373 130.677 96.9887 130.353 96.875C130.028 96.7614 129.729 96.5849 129.473 96.3557C129.216 96.1265 129.008 95.8491 128.858 95.5392C128.709 95.2293 128.623 94.8931 128.603 94.5497C128.584 94.2063 128.633 93.8625 128.746 93.5379C128.86 93.2133 129.037 92.9143 129.266 92.6579C129.495 92.4015 129.772 92.1928 130.082 92.0436C132.594 90.8441 136.258 90.8652 139.216 92.0989C142.174 93.3326 144.755 95.9166 145.682 98.55C145.795 98.874 145.843 99.2173 145.823 99.5599C145.803 99.9026 145.715 100.238 145.565 100.546C145.414 100.855 145.205 101.131 144.947 101.358C144.69 101.585 144.39 101.759 144.065 101.869Z" fill="#00214E"/>
</g>
</g>
<defs>
<clipPath id="clip0_185_191">
<rect width="167" height="150" fill="white"/>
</clipPath>
<clipPath id="clip1_185_191">
<rect width="83.2102" height="83.2102" fill="white" transform="translate(104.031 37.9795) rotate(22.6405)"/>
</clipPath>
</defs>
</svg>
